<?xml version="1.0" encoding="utf-8"?>
<svg x="0px" y="0px" width="800px" height="200px" viewBox="0 0 800 200" xmlns="http://www.w3.org/2000/svg" xmlns:xlink="http://www.w3.org/1999/xlink">
  <!--Generated by AMDN-->
  <g id="Layer_1">
    <g id="Group">
      <linearGradient x1="22.3328" y1="71.1709" x2="126.983" y2="129.18" gradientUnits="userSpaceOnUse" id="am2">
        <stop offset="0.182031" style="stop-color:#0399e5;stop-opacity:1;"/>
        <stop offset="0.44161" style="stop-color:#174382;stop-opacity:1;"/>
        <stop offset="0.682252" style="stop-color:#164b89;stop-opacity:1;"/>
        <stop offset="1" style="stop-color:#0479c1;stop-opacity:1;"/>
      </linearGradient>
      <g id="Path">
        <path style="fill:url(#am2);fill-opacity:1;fill-rule:evenodd;opacity:1;stroke:none;" d="M74.658,40.349 C107.699,40.349,134.484,67.1342,134.484,100.175 C134.484,133.216,107.699,160.001,74.658,160.001 C41.6169,160.001,14.8318,133.216,14.8318,100.175 C14.8318,67.1342,41.6169,40.349,74.658,40.349 z"/>
      </g>
      <path id="Path-1" style="fill:#ffffff;fill-opacity:1;fill-rule:evenodd;opacity:1;stroke:none;" d="M74.4022,53.208 C100.341,53.208,121.369,74.236,121.369,100.175 C121.369,126.115,100.341,147.142,74.4022,147.142 C48.4629,147.142,27.4349,126.115,27.4349,100.175 C27.4349,74.236,48.4629,53.208,74.4022,53.208 z"/>
      <path id="Path-2" style="fill:#3b4552;fill-opacity:1;fill-rule:evenodd;opacity:1;stroke:none;" d="M74.7007,70.3554 C91.1698,70.3554,104.521,83.7062,104.521,100.175 C104.521,116.644,91.1698,129.995,74.7007,129.995 C58.2317,129.995,44.8809,116.644,44.8809,100.175 C44.8809,83.7062,58.2317,70.3554,74.7007,70.3554 z"/>
      <path id="Path-3" style="fill:none;opacity:1;stroke:#ffffff;stroke-linecap:butt;stroke-linejoin:miter;stroke-miterlimit:10;stroke-opacity:1;stroke-width:3;" d="M74.7007,92.8352 C78.7545,92.8352,82.0407,96.1214,82.0407,100.175 C82.0407,104.229,78.7545,107.515,74.7007,107.515 C70.6469,107.515,67.3607,104.229,67.3607,100.175 C67.3607,96.1214,70.6469,92.8352,74.7007,92.8352 z"/>
      <path id="Path-4" style="fill:none;opacity:1;stroke:#ffffff;stroke-linecap:butt;stroke-linejoin:miter;stroke-miterlimit:10;stroke-opacity:1;stroke-width:3;" d="M74.676,81.8935 C85.0085,81.8935,93.3848,90.2697,93.3848,100.602 C93.3848,110.935,85.0085,119.311,74.676,119.311 C64.3433,119.311,55.9671,110.935,55.9671,100.602 C55.9671,90.2697,64.3433,81.8935,74.676,81.8935 z"/>
      <g id="Group-1">
        <path id="Path-5" style="fill:none;opacity:1;stroke:#ffffff;stroke-linecap:round;stroke-linejoin:miter;stroke-miterlimit:10;stroke-opacity:1;stroke-width:2;" d="M74.4701,100.14 C64.9914,88.4352,47.8184,86.6302,36.1132,96.1089"/>
        <path id="Path-6" style="fill:none;opacity:1;stroke:#ffffff;stroke-linecap:round;stroke-linejoin:miter;stroke-miterlimit:10;stroke-opacity:1;stroke-width:2;" d="M74.5253,100.369 C65.4609,88.3401,67.864,71.2406,79.893,62.1761"/>
      </g>
      <path id="Path-7" style="fill:#11b2f1;fill-opacity:1;fill-rule:nonzero;opacity:1;stroke:#ffffff;stroke-linecap:round;stroke-linejoin:miter;stroke-miterlimit:10;stroke-opacity:1;stroke-width:1;" d="M74.4701,100.14 C74.4701,100.14,108.301,37.8356,108.301,37.8356 C108.301,37.8356,117.659,43.5178,117.659,43.5178 C117.659,43.5178,74.4701,100.14,74.4701,100.14 z"/>
      <path id="Path-8" style="fill:#ffffff;fill-opacity:1;fill-rule:nonzero;opacity:1;stroke:#ffffff;stroke-linecap:round;stroke-linejoin:miter;stroke-miterlimit:10;stroke-opacity:1;stroke-width:1.5;" d="M64.1858,68.377"/>
      <path id="Path_24" style="fill:none;opacity:1;stroke:#fbed21;stroke-linecap:square;stroke-linejoin:miter;stroke-miterlimit:10;stroke-opacity:1;stroke-width:8;" d="M72.5616,67.2634 C73.2813,67.2165,74.0072,67.1927,74.7387,67.1927 C75.2343,67.1927,75.7274,67.2036,76.2176,67.2252"/>
      <path id="Path_26" style="fill:none;opacity:1;stroke:#fbed21;stroke-linecap:butt;stroke-linejoin:miter;stroke-miterlimit:10;stroke-opacity:1;stroke-width:8;" d="M69.4082,67.6212 C69.5361,67.6004,69.6642,67.5804,69.7926,67.5611"/>
      <path id="Path_29" style="fill:none;opacity:1;stroke:#fbed21;stroke-linecap:butt;stroke-linejoin:miter;stroke-miterlimit:10;stroke-opacity:1;stroke-width:8;" d="M59.8855,70.7184 C60.1119,70.604,60.3398,70.4922,60.5691,70.3829"/>
      <path id="Path_28" style="fill:none;opacity:1;stroke:#fbed21;stroke-linecap:butt;stroke-linejoin:miter;stroke-miterlimit:10;stroke-opacity:1;stroke-width:8;" d="M54.4653,74.1572 C54.7799,73.9117,55.0991,73.6717,55.4228,73.4376"/>
      <path id="Path_32" style="fill:none;opacity:1;stroke:#fbed21;stroke-linecap:butt;stroke-linejoin:miter;stroke-miterlimit:10;stroke-opacity:1;stroke-width:8;" d="M52.1211,76.1689 C52.6823,75.64,53.2621,75.1305,53.8594,74.6415"/>
      <path id="Path_39" style="fill:none;opacity:1;stroke:#fbed21;stroke-linecap:round;stroke-linejoin:miter;stroke-miterlimit:10;stroke-opacity:1;stroke-width:8;" d="M45.2879,85.31 C45.3043,85.2777,45.3207,85.2454,45.3372,85.2131"/>
      <path id="Path_38" style="fill:none;opacity:1;stroke:#fbed21;stroke-linecap:square;stroke-linejoin:miter;stroke-miterlimit:10;stroke-opacity:1;stroke-width:8;" d="M45.0961,85.6956 C45.1421,85.6015,45.1886,85.5077,45.2355,85.4142"/>
      <path id="Path_42" style="fill:none;opacity:1;stroke:#fbed21;stroke-linecap:butt;stroke-linejoin:miter;stroke-miterlimit:10;stroke-opacity:1;stroke-width:8;" d="M42.5084,93.1383 C42.7857,91.8625,43.1368,90.6142,43.557,89.3982"/>
      <path id="Path_83" style="fill:none;opacity:1;stroke:#fbed21;stroke-linecap:butt;stroke-linejoin:miter;stroke-miterlimit:10;stroke-opacity:1;stroke-width:8;" d="M67.3424,132.325 C67.2074,132.294,67.0728,132.263,66.9384,132.23"/>
      <path id="Path_81" style="fill:none;opacity:1;stroke:#fbed21;stroke-linecap:butt;stroke-linejoin:miter;stroke-miterlimit:10;stroke-opacity:1;stroke-width:8;" d="M86.3189,131.068 C85.9847,131.193,85.6481,131.313,85.309,131.428"/>
      <path id="Path_59" style="fill:none;opacity:1;stroke:#fbed21;stroke-linecap:butt;stroke-linejoin:miter;stroke-miterlimit:10;stroke-opacity:1;stroke-width:8;" d="M107.368,95.3329 C107.534,96.4586,107.643,97.6028,107.692,98.7625"/>
      <path id="Path_54" style="fill:none;opacity:1;stroke:#fbed21;stroke-linecap:butt;stroke-linejoin:miter;stroke-miterlimit:10;stroke-opacity:1;stroke-width:8;" d="M101.6,81.0307 C101.565,80.9823,101.53,80.934,101.495,80.8857"/>
      <path id="Path_52" style="fill:none;opacity:1;stroke:#fbed21;stroke-linecap:butt;stroke-linejoin:miter;stroke-miterlimit:10;stroke-opacity:1;stroke-width:8;" d="M97.6775,76.4759 C97.1137,75.93,96.5304,75.4041,95.9289,74.8993"/>
      <path id="Path_107" style="fill:none;opacity:1;stroke:#fdbf52;stroke-linecap:butt;stroke-linejoin:miter;stroke-miterlimit:10;stroke-opacity:1;stroke-width:7;" d="M88.6177,65.8916 C88.7491,65.9456,88.8801,66.0003,89.0107,66.0557"/>
      <path id="Path_118" style="fill:none;opacity:1;stroke:#fdbf52;stroke-linecap:butt;stroke-linejoin:miter;stroke-miterlimit:10;stroke-opacity:1;stroke-width:7;" d="M83.9412,64.3277 C84.1211,64.3747,84.3005,64.423,84.4794,64.4727"/>
      <path id="Path_121" style="fill:none;opacity:1;stroke:#fdbf52;stroke-linecap:butt;stroke-linejoin:miter;stroke-miterlimit:10;stroke-opacity:1;stroke-width:7;" d="M71.4439,63.2545 C72.4671,63.1696,73.5022,63.1263,74.5473,63.1263 C75.5489,63.1263,76.5412,63.1661,77.5227,63.2441"/>
      <path id="Path_135" style="fill:none;opacity:1;stroke:#fdbf52;stroke-linecap:butt;stroke-linejoin:miter;stroke-miterlimit:10;stroke-opacity:1;stroke-width:7;" d="M38.918,89.9831 C38.6968,90.758,38.5001,91.5432,38.3289,92.338"/>
      <path id="Path_133" style="fill:none;opacity:1;stroke:#fdbf52;stroke-linecap:butt;stroke-linejoin:miter;stroke-miterlimit:10;stroke-opacity:1;stroke-width:7;" d="M37.99,94.1251 C38.0837,93.5546,38.1904,92.9886,38.3098,92.4273"/>
      <path id="Path_123" style="fill:none;opacity:1;stroke:#fdbf52;stroke-linecap:butt;stroke-linejoin:miter;stroke-miterlimit:10;stroke-opacity:1;stroke-width:7;" d="M44.0459,121.212 C43.9039,121.006,43.7638,120.799,43.6259,120.591"/>
      <path id="Path_127" style="fill:none;opacity:1;stroke:#fdbf52;stroke-linecap:butt;stroke-linejoin:miter;stroke-miterlimit:10;stroke-opacity:1;stroke-width:7;" d="M47.9329,125.949 C47.7291,125.739,47.5277,125.526,47.3288,125.311"/>
      <path id="Path_146" style="fill:none;opacity:1;stroke:#fdbf52;stroke-linecap:butt;stroke-linejoin:miter;stroke-miterlimit:10;stroke-opacity:1;stroke-width:7;" d="M88.152,134.646 C87.5227,134.895,86.8848,135.127,86.2392,135.342"/>
      <path id="Path_145" style="fill:none;opacity:1;stroke:#fdbf52;stroke-linecap:butt;stroke-linejoin:miter;stroke-miterlimit:10;stroke-opacity:1;stroke-width:7;" d="M89.8632,133.92 C89.5221,134.075,89.1782,134.225,88.8317,134.37"/>
      <path id="Path_152" style="fill:none;opacity:1;stroke:#fdbf52;stroke-linecap:butt;stroke-linejoin:miter;stroke-miterlimit:10;stroke-opacity:1;stroke-width:7;" d="M110.714,92.102 C110.603,91.6012,110.481,91.1042,110.35,90.6113"/>
      <path id="Path_151" style="fill:none;opacity:1;stroke:#fdbf52;stroke-linecap:butt;stroke-linejoin:miter;stroke-miterlimit:10;stroke-opacity:1;stroke-width:7;" d="M111.171,94.5408 C111.298,95.3778,111.398,96.224,111.469,97.0784"/>
      <path id="Path_110" style="fill:none;opacity:1;stroke:#fdbf52;stroke-linecap:butt;stroke-linejoin:miter;stroke-miterlimit:10;stroke-opacity:1;stroke-width:7;" d="M98.6154,72.0079 C99.1878,72.4974,99.7451,73.0042,100.287,73.5272"/>
      <path id="Path_162" style="fill:none;opacity:1;stroke:#9e9e9e;stroke-linecap:butt;stroke-linejoin:miter;stroke-miterlimit:10;stroke-opacity:0.6;stroke-width:7;" d="M85.0081,60.164 C85.3785,60.2609,85.7468,60.3628,86.1131,60.4697"/>
      <path id="Path_166" style="fill:none;opacity:1;stroke:#9e9e9e;stroke-linecap:butt;stroke-linejoin:miter;stroke-miterlimit:10;stroke-opacity:0.6;stroke-width:7;" d="M34.4792,90.797 C34.5786,90.3597,34.6849,89.9251,34.798,89.4932"/>
      <path id="Path_168" style="fill:none;opacity:1;stroke:#9e9e9e;stroke-linecap:butt;stroke-linejoin:miter;stroke-miterlimit:10;stroke-opacity:0.6;stroke-width:7;" d="M33.9181,93.7733 C34.0114,93.1534,34.1185,92.538,34.2392,91.9275"/>
      <path id="Path_183" style="fill:none;opacity:1;stroke:#9e9e9e;stroke-linecap:butt;stroke-linejoin:miter;stroke-miterlimit:10;stroke-opacity:0.6;stroke-width:7;" d="M89.8965,138.108 C89.0465,138.45,88.1824,138.764,87.3053,139.049"/>
      <path id="Path_186" style="fill:none;opacity:1;stroke:#9e9e9e;stroke-linecap:butt;stroke-linejoin:miter;stroke-miterlimit:10;stroke-opacity:0.6;stroke-width:7;" d="M92.1169,137.139 C91.5675,137.398,91.0114,137.646,90.449,137.882"/>
      <path id="Path_194" style="fill:none;opacity:1;stroke:#9e9e9e;stroke-linecap:butt;stroke-linejoin:miter;stroke-miterlimit:10;stroke-opacity:0.6;stroke-width:7;" d="M115.379,94.8679 C115.483,95.719,115.562,96.5781,115.614,97.4445 C115.626,97.6365,115.636,97.8288,115.645,98.0215"/>
      <path id="Path_199" style="fill:none;opacity:1;stroke:#9e9e9e;stroke-linecap:butt;stroke-linejoin:miter;stroke-miterlimit:10;stroke-opacity:0.6;stroke-width:7;" d="M114.023,88.3215 C114.054,88.4262,114.084,88.531,114.114,88.636"/>
      <path id="Path_197" style="fill:none;opacity:1;stroke:#9e9e9e;stroke-linecap:butt;stroke-linejoin:miter;stroke-miterlimit:10;stroke-opacity:0.6;stroke-width:7;" d="M114.372,89.5825 C114.527,90.1782,114.668,90.7792,114.797,91.3851"/>
      <path id="Path_195" style="fill:none;opacity:1;stroke:#9e9e9e;stroke-linecap:butt;stroke-linejoin:miter;stroke-miterlimit:10;stroke-opacity:0.6;stroke-width:7;" d="M114.907,91.9258 C115.044,92.6148,115.163,93.31,115.264,94.0108"/>
      <path id="Path_213" style="fill:none;opacity:1;stroke:#9e9e9e;stroke-linecap:butt;stroke-linejoin:miter;stroke-miterlimit:10;stroke-opacity:0.974723;stroke-width:6;" d="M30.1907,93.1135 C30.2484,92.7434,30.3106,92.3748,30.3773,92.0077"/>
      <path id="Path_218" style="fill:none;opacity:1;stroke:#9e9e9e;stroke-linecap:butt;stroke-linejoin:miter;stroke-miterlimit:10;stroke-opacity:0.974723;stroke-width:6;" d="M110.938,125.841 C110.605,126.313,110.263,126.778,109.911,127.237"/>
      <path id="Path_204" style="fill:none;opacity:1;stroke:#9e9e9e;stroke-linecap:butt;stroke-linejoin:miter;stroke-miterlimit:10;stroke-opacity:0.974723;stroke-width:6;" d="M103.976,66.5113 C104.264,66.7659,104.549,67.0241,104.831,67.286"/>
      <path id="Path_219" style="fill:none;opacity:1;stroke:#ffffff;stroke-linecap:butt;stroke-linejoin:miter;stroke-miterlimit:10;stroke-opacity:1;stroke-width:2;" d="M117.659,167.793 C109.756,140.192,95.6853,117.232,75.1095,100.57"/>
      <path id="Path_224" style="fill:none;opacity:1;stroke:#3b4552;stroke-linecap:butt;stroke-linejoin:miter;stroke-miterlimit:10;stroke-opacity:1;stroke-width:2;" d="M104.665,136.018 C101.929,131.103,98.9167,126.422,95.6251,121.99"/>
      <path id="Path_96" style="fill:none;opacity:1;stroke:#fbed21;stroke-linecap:butt;stroke-linejoin:miter;stroke-miterlimit:10;stroke-opacity:1;stroke-width:8;" d="M96.798,124.643 C96.616,124.801,96.4324,124.957,96.247,125.111"/>
      <path id="Path_148" style="fill:none;opacity:1;stroke:#fdbf52;stroke-linecap:butt;stroke-linejoin:miter;stroke-miterlimit:10;stroke-opacity:1;stroke-width:7;" d="M99.7048,127.373 C99.161,127.877,98.6021,128.364,98.0288,128.834"/>
      <path id="Path_190" style="fill:none;opacity:1;stroke:#c4c4c4;stroke-linecap:butt;stroke-linejoin:miter;stroke-miterlimit:10;stroke-opacity:1;stroke-width:7;" d="M102.283,130.319 C101.836,130.727,101.38,131.125,100.915,131.513"/>
      <path id="Path_51" style="fill:none;opacity:1;stroke:#fbed21;stroke-linecap:square;stroke-linejoin:miter;stroke-miterlimit:10;stroke-opacity:1;stroke-width:8;" d="M91.588,71.8153 C91.7478,71.9104,91.9066,72.0068,92.0646,72.1045 C92.3643,72.2899,92.6608,72.48,92.9541,72.6746"/>
      <path id="Path_50" style="fill:none;opacity:1;stroke:#fbed21;stroke-linecap:butt;stroke-linejoin:miter;stroke-miterlimit:10;stroke-opacity:1;stroke-width:8;" d="M89.5625,70.7036 C88.8912,70.3653,88.2068,70.0493,87.5102,69.7565"/>
      <path id="Path_108" style="fill:none;opacity:1;stroke:#fdbf52;stroke-linecap:butt;stroke-linejoin:miter;stroke-miterlimit:10;stroke-opacity:1;stroke-width:7;" d="M89.7762,66.3909 C90.8622,66.8812,91.9202,67.4223,92.9474,68.0112"/>
      <path id="Path_109" style="fill:none;opacity:1;stroke:#fdbf52;stroke-linecap:butt;stroke-linejoin:miter;stroke-miterlimit:10;stroke-opacity:1;stroke-width:7;" d="M98.2773,71.7221 C97.349,70.9471,96.3821,70.2166,95.38,69.534"/>
      <path id="Path_159" style="fill:none;opacity:1;stroke:#c4c4c4;stroke-linecap:butt;stroke-linejoin:miter;stroke-miterlimit:10;stroke-opacity:1;stroke-width:7;" d="M96.9116,65.4199 C96.9576,65.4498,97.0035,65.4797,97.0494,65.5097 C98.4003,66.3932,99.696,67.3541,100.93,68.3861"/>
      <path id="Path_157" style="fill:none;opacity:1;stroke:#c4c4c4;stroke-linecap:butt;stroke-linejoin:miter;stroke-miterlimit:10;stroke-opacity:1;stroke-width:7;" d="M95.5378,64.5671 C94.3866,63.8834,93.1992,63.2543,91.979,62.6833"/>
      <path id="Path_207" style="fill:none;opacity:1;stroke:#9e9e9e;stroke-linecap:butt;stroke-linejoin:miter;stroke-miterlimit:10;stroke-opacity:0.974723;stroke-width:6;" d="M99.6654,63.1493 C100.955,64.0345,102.196,64.9855,103.384,65.9975 C103.407,66.0173,103.43,66.0371,103.453,66.0569"/>
      <path id="Path_208" style="fill:none;opacity:1;stroke:#9e9e9e;stroke-linecap:butt;stroke-linejoin:miter;stroke-miterlimit:10;stroke-opacity:0.974723;stroke-width:6;" d="M93.305,59.5121 C94.4505,60.0476,95.5696,60.6301,96.6598,61.2574 C97.0741,61.4958,97.4844,61.7407,97.8902,61.9918 C97.9695,62.0409,98.0485,62.0901,98.1274,62.1396"/>
      <path id="Path-9" style="fill:#11b2f1;fill-opacity:1;fill-rule:nonzero;opacity:1;stroke:#ffffff;stroke-linecap:round;stroke-linejoin:miter;stroke-miterlimit:10;stroke-opacity:1;stroke-width:1;" d="M74.5253,100.369 C74.5253,100.369,24.7847,141.579,24.7847,141.579 C24.7847,141.579,28.2763,145.429,28.2763,145.429 C28.2763,145.429,74.5253,100.369,74.5253,100.369 z"/>
      <path id="Path-10" style="fill:#aaaaaa;fill-opacity:1;fill-rule:nonzero;opacity:1;stroke:none;" d="M33.9181,156.419"/>
      <path id="Path-11" style="fill:#11b2f1;fill-opacity:1;fill-rule:nonzero;opacity:1;stroke:#ffffff;stroke-linecap:round;stroke-linejoin:miter;stroke-miterlimit:10;stroke-opacity:1;stroke-width:1;" d="M74.4701,100.14 C74.4701,100.14,37.99,152.032,37.99,152.032 C37.99,152.032,34.0786,148.985,34.0786,148.985 C34.0786,148.985,74.4701,100.14,74.4701,100.14 z"/>
      <path id="Path_67" style="fill:none;opacity:1;stroke:#fbed21;stroke-linecap:butt;stroke-linejoin:miter;stroke-miterlimit:10;stroke-opacity:1;stroke-width:8;" d="M50.8398,122.906 C49.6519,121.658,48.561,120.316,47.5788,118.894 C47.415,118.657,47.2542,118.417,47.0964,118.176"/>
      <path id="Path_78" style="fill:none;opacity:1;stroke:#fbed21;stroke-linecap:square;stroke-linejoin:miter;stroke-miterlimit:10;stroke-opacity:1;stroke-width:8;" d="M57.5968,128.359 C56.4846,127.681,55.4157,126.939,54.3951,126.138"/>
      <path id="Path_128" style="fill:none;opacity:1;stroke:#fdbf52;stroke-linecap:butt;stroke-linejoin:miter;stroke-miterlimit:10;stroke-opacity:1;stroke-width:7;" d="M47.2508,125.226 C46.2815,124.17,45.3726,123.058,44.5297,121.895"/>
      <path id="Path_131" style="fill:none;opacity:1;stroke:#fdbf52;stroke-linecap:butt;stroke-linejoin:miter;stroke-miterlimit:10;stroke-opacity:1;stroke-width:7;" d="M54.2299,131.161 C53.0058,130.357,51.8322,129.482,50.715,128.543"/>
      <path id="Path_172" style="fill:none;opacity:1;stroke:#c4c4c4;stroke-linecap:butt;stroke-linejoin:miter;stroke-miterlimit:10;stroke-opacity:1;stroke-width:7;" d="M44.4346,127.91 C43.7095,127.129,43.0144,126.32,42.3511,125.484"/>
      <path id="Path_175" style="fill:none;opacity:1;stroke:#9e9e9e;stroke-linecap:butt;stroke-linejoin:miter;stroke-miterlimit:10;stroke-opacity:0.6;stroke-width:7;" d="M47.2386,130.657 C46.6374,130.121,46.0521,129.568,45.4833,128.999"/>
      <path id="Path_178" style="fill:none;opacity:1;stroke:#c4c4c4;stroke-linecap:butt;stroke-linejoin:miter;stroke-miterlimit:10;stroke-opacity:1;stroke-width:7;" d="M52.4754,134.621 C50.7529,133.522,49.1179,132.297,47.583,130.96"/>
      <g id="Text">
        <g id="Text-1">
          <path style="fill:#000000;fill-opacity:1;fill-rule:nonzero;opacity:1;stroke:none;" d="M173.548,81.6444 C168.713,81.6444,164.873,83.4473,162.027,87.0531 C159.181,90.6589,157.758,95.5729,157.758,101.795 C157.758,107.995,159.181,112.898,162.027,116.504 C164.873,120.11,168.713,121.913,173.548,121.913 C178.383,121.913,182.212,120.11,185.036,116.504 C187.86,112.898,189.272,107.995,189.272,101.795 C189.272,95.5729,187.86,90.6589,185.036,87.0531 C182.212,83.4473,178.383,81.6444,173.548,81.6444 z M173.548,76.2356 C180.448,76.2356,185.964,78.5497,190.096,83.1779 C194.227,87.8061,196.293,94.0118,196.293,101.795 C196.293,109.556,194.227,115.751,190.096,120.379 C185.964,125.008,180.448,127.322,173.548,127.322 C166.626,127.322,161.093,125.013,156.951,120.396 C152.808,115.779,150.737,109.578,150.737,101.795 C150.737,94.0118,152.808,87.8061,156.951,83.1779 C161.093,78.5497,166.626,76.2356,173.548,76.2356 z M212.313,120.825 C212.313,120.825,212.313,140.415,212.313,140.415 C212.313,140.415,206.215,140.415,206.215,140.415 C206.215,140.415,206.215,89.4276,206.215,89.4276 C206.215,89.4276,212.313,89.4276,212.313,89.4276 C212.313,89.4276,212.313,95.0342,212.313,95.0342 C213.588,92.8356,215.197,91.203,217.142,90.1367 C219.087,89.0703,221.411,88.5372,224.114,88.5372 C228.597,88.5372,232.24,90.3181,235.042,93.8799 C237.843,97.4418,239.244,102.125,239.244,107.929 C239.244,113.734,237.843,118.417,235.042,121.979 C232.24,125.541,228.597,127.322,224.114,127.322 C221.411,127.322,219.087,126.788,217.142,125.722 C215.197,124.656,213.588,123.023,212.313,120.825 z M232.948,107.929 C232.948,103.466,232.031,99.9647,230.196,97.4253 C228.361,94.8858,225.839,93.6161,222.631,93.6161 C219.422,93.6161,216.901,94.8858,215.066,97.4253 C213.231,99.9647,212.313,103.466,212.313,107.929 C212.313,112.393,213.231,115.894,215.066,118.434 C216.901,120.973,219.422,122.243,222.631,122.243 C225.839,122.243,228.361,120.973,230.196,118.434 C232.031,115.894,232.948,112.393,232.948,107.929 z M280.877,106.379 C280.877,106.379,280.877,109.348,280.877,109.348 C280.877,109.348,252.99,109.348,252.99,109.348 C253.254,113.525,254.512,116.708,256.765,118.895 C259.017,121.083,262.154,122.177,266.176,122.177 C268.505,122.177,270.763,121.891,272.95,121.319 C275.136,120.748,277.306,119.89,279.46,118.747 C279.46,118.747,279.46,124.485,279.46,124.485 C277.284,125.409,275.054,126.112,272.768,126.596 C270.483,127.08,268.164,127.322,265.813,127.322 C259.924,127.322,255.259,125.607,251.82,122.177 C248.381,118.747,246.661,114.108,246.661,108.259 C246.661,102.213,248.293,97.4143,251.556,93.8634 C254.82,90.3126,259.22,88.5372,264.758,88.5372 C269.725,88.5372,273.653,90.1367,276.543,93.3358 C279.432,96.5348,280.877,100.883,280.877,106.379 z M274.812,104.598 C274.768,101.278,273.84,98.629,272.027,96.6502 C270.214,94.6714,267.813,93.682,264.824,93.682 C261.44,93.682,258.731,94.6385,256.699,96.5513 C254.666,98.4641,253.496,101.158,253.188,104.631 C253.188,104.631,274.812,104.598,274.812,104.598 z M321.521,104.071 C321.521,104.071,321.521,126.365,321.521,126.365 C321.521,126.365,315.456,126.365,315.456,126.365 C315.456,126.365,315.456,104.269,315.456,104.269 C315.456,100.773,314.775,98.1563,313.412,96.4194 C312.05,94.6824,310.006,93.814,307.281,93.814 C304.007,93.814,301.425,94.8583,299.535,96.9471 C297.645,99.0358,296.7,101.883,296.7,105.489 C296.7,105.489,296.7,126.365,296.7,126.365 C296.7,126.365,290.602,126.365,290.602,126.365 C290.602,126.365,290.602,89.4276,290.602,89.4276 C290.602,89.4276,296.7,89.4276,296.7,89.4276 C296.7,89.4276,296.7,95.1661,296.7,95.1661 C298.15,92.9455,299.859,91.2855,301.826,90.1862 C303.793,89.0868,306.062,88.5372,308.633,88.5372 C312.874,88.5372,316.082,89.8509,318.258,92.4783 C320.434,95.1057,321.521,98.9698,321.521,104.071 z M340.541,82.6008 C340.541,82.6008,340.541,120.891,340.541,120.891 C340.541,120.891,348.585,120.891,348.585,120.891 C355.375,120.891,360.347,119.351,363.501,116.273 C366.654,113.195,368.231,108.336,368.231,101.696 C368.231,95.1002,366.654,90.2686,363.501,87.2015 C360.347,84.1343,355.375,82.6008,348.585,82.6008 C348.585,82.6008,340.541,82.6008,340.541,82.6008 z M333.883,77.1261 C333.883,77.1261,347.563,77.1261,347.563,77.1261 C357.1,77.1261,364.099,79.1104,368.56,83.079 C373.021,87.0476,375.252,93.2533,375.252,101.696 C375.252,110.183,373.01,116.416,368.527,120.396 C364.044,124.375,357.056,126.365,347.563,126.365 C347.563,126.365,333.883,126.365,333.883,126.365 C333.883,126.365,333.883,77.1261,333.883,77.1261 z M402.381,107.797 C397.48,107.797,394.085,108.358,392.195,109.479 C390.305,110.601,389.36,112.514,389.36,115.218 C389.36,117.373,390.069,119.082,391.487,120.346 C392.904,121.611,394.832,122.243,397.272,122.243 C400.634,122.243,403.331,121.05,405.364,118.664 C407.397,116.279,408.413,113.107,408.413,109.15 C408.413,109.15,408.413,107.797,408.413,107.797 C408.413,107.797,402.381,107.797,402.381,107.797 z M414.479,105.291 C414.479,105.291,414.479,126.365,414.479,126.365 C414.479,126.365,408.413,126.365,408.413,126.365 C408.413,126.365,408.413,120.759,408.413,120.759 C407.029,123.001,405.304,124.656,403.238,125.722 C401.172,126.788,398.645,127.322,395.656,127.322 C391.877,127.322,388.871,126.261,386.641,124.139 C384.41,122.017,383.295,119.176,383.295,115.614 C383.295,111.458,384.685,108.325,387.465,106.214 C390.245,104.104,394.393,103.048,399.909,103.048 C399.909,103.048,408.413,103.048,408.413,103.048 C408.413,103.048,408.413,102.455,408.413,102.455 C408.413,99.6624,407.496,97.5022,405.661,95.9742 C403.826,94.4461,401.249,93.682,397.931,93.682 C395.821,93.682,393.767,93.9349,391.767,94.4406 C389.767,94.9463,387.844,95.7048,385.998,96.7162 C385.998,96.7162,385.998,91.1096,385.998,91.1096 C388.218,90.2521,390.371,89.609,392.459,89.1803 C394.547,88.7515,396.579,88.5372,398.557,88.5372 C403.897,88.5372,407.886,89.9223,410.523,92.6926 C413.16,95.463,414.479,99.6624,414.479,105.291 z M432.971,78.94 C432.971,78.94,432.971,89.4276,432.971,89.4276 C432.971,89.4276,445.464,89.4276,445.464,89.4276 C445.464,89.4276,445.464,94.1438,445.464,94.1438 C445.464,94.1438,432.971,94.1438,432.971,94.1438 C432.971,94.1438,432.971,114.196,432.971,114.196 C432.971,117.208,433.383,119.143,434.207,120 C435.031,120.858,436.707,121.286,439.234,121.286 C439.234,121.286,445.464,121.286,445.464,121.286 C445.464,121.286,445.464,126.365,445.464,126.365 C445.464,126.365,439.234,126.365,439.234,126.365 C434.553,126.365,431.323,125.491,429.543,123.743 C427.763,121.995,426.873,118.813,426.873,114.196 C426.873,114.196,426.873,94.1438,426.873,94.1438 C426.873,94.1438,422.423,94.1438,422.423,94.1438 C422.423,94.1438,422.423,89.4276,422.423,89.4276 C422.423,89.4276,426.873,89.4276,426.873,89.4276 C426.873,89.4276,426.873,78.94,426.873,78.94 C426.873,78.94,432.971,78.94,432.971,78.94 z M470.22,107.797 C465.319,107.797,461.924,108.358,460.034,109.479 C458.144,110.601,457.199,112.514,457.199,115.218 C457.199,117.373,457.908,119.082,459.326,120.346 C460.743,121.611,462.671,122.243,465.111,122.243 C468.473,122.243,471.17,121.05,473.203,118.664 C475.236,116.279,476.252,113.107,476.252,109.15 C476.252,109.15,476.252,107.797,476.252,107.797 C476.252,107.797,470.22,107.797,470.22,107.797 z M482.318,105.291 C482.318,105.291,482.318,126.365,482.318,126.365 C482.318,126.365,476.252,126.365,476.252,126.365 C476.252,126.365,476.252,120.759,476.252,120.759 C474.868,123.001,473.143,124.656,471.077,125.722 C469.011,126.788,466.484,127.322,463.495,127.322 C459.716,127.322,456.71,126.261,454.48,124.139 C452.249,122.017,451.134,119.176,451.134,115.614 C451.134,111.458,452.524,108.325,455.304,106.214 C458.084,104.104,462.232,103.048,467.748,103.048 C467.748,103.048,476.252,103.048,476.252,103.048 C476.252,103.048,476.252,102.455,476.252,102.455 C476.252,99.6624,475.335,97.5022,473.5,95.9742 C471.665,94.4461,469.088,93.682,465.77,93.682 C463.66,93.682,461.606,93.9349,459.606,94.4406 C457.606,94.9463,455.683,95.7048,453.837,96.7162 C453.837,96.7162,453.837,91.1096,453.837,91.1096 C456.057,90.2521,458.21,89.609,460.298,89.1803 C462.386,88.7515,464.418,88.5372,466.396,88.5372 C471.736,88.5372,475.725,89.9223,478.362,92.6926 C480.999,95.463,482.318,99.6624,482.318,105.291 z M501.733,82.6008 C501.733,82.6008,501.733,120.891,501.733,120.891 C501.733,120.891,509.776,120.891,509.776,120.891 C516.567,120.891,521.539,119.351,524.692,116.273 C527.846,113.195,529.423,108.336,529.423,101.696 C529.423,95.1002,527.846,90.2686,524.692,87.2015 C521.539,84.1343,516.567,82.6008,509.776,82.6008 C509.776,82.6008,501.733,82.6008,501.733,82.6008 z M495.075,77.1261 C495.075,77.1261,508.754,77.1261,508.754,77.1261 C518.292,77.1261,525.291,79.1104,529.752,83.079 C534.213,87.0476,536.444,93.2533,536.444,101.696 C536.444,110.183,534.202,116.416,529.719,120.396 C525.236,124.375,518.248,126.365,508.754,126.365 C508.754,126.365,495.075,126.365,495.075,126.365 C495.075,126.365,495.075,77.1261,495.075,77.1261 z M578.373,106.379 C578.373,106.379,578.373,109.348,578.373,109.348 C578.373,109.348,550.486,109.348,550.486,109.348 C550.75,113.525,552.008,116.708,554.261,118.895 C556.513,121.083,559.65,122.177,563.672,122.177 C566.001,122.177,568.259,121.891,570.446,121.319 C572.632,120.748,574.802,119.89,576.956,118.747 C576.956,118.747,576.956,124.485,576.956,124.485 C574.78,125.409,572.55,126.112,570.264,126.596 C567.979,127.08,565.661,127.322,563.309,127.322 C557.42,127.322,552.755,125.607,549.316,122.177 C545.877,118.747,544.157,114.108,544.157,108.259 C544.157,102.213,545.789,97.4143,549.052,93.8634 C552.316,90.3126,556.716,88.5372,562.254,88.5372 C567.221,88.5372,571.149,90.1367,574.039,93.3358 C576.929,96.5348,578.373,100.883,578.373,106.379 z M572.308,104.598 C572.264,101.278,571.336,98.629,569.523,96.6502 C567.71,94.6714,565.309,93.682,562.32,93.682 C558.936,93.682,556.227,94.6385,554.195,96.5513 C552.162,98.4641,550.992,101.158,550.684,104.631 C550.684,104.631,572.308,104.598,572.308,104.598 z M594.328,78.94 C594.328,78.94,594.328,89.4276,594.328,89.4276 C594.328,89.4276,606.821,89.4276,606.821,89.4276 C606.821,89.4276,606.821,94.1438,606.821,94.1438 C606.821,94.1438,594.328,94.1438,594.328,94.1438 C594.328,94.1438,594.328,114.196,594.328,114.196 C594.328,117.208,594.74,119.143,595.564,120 C596.388,120.858,598.064,121.286,600.591,121.286 C600.591,121.286,606.821,121.286,606.821,121.286 C606.821,121.286,606.821,126.365,606.821,126.365 C606.821,126.365,600.591,126.365,600.591,126.365 C595.91,126.365,592.68,125.491,590.9,123.743 C589.12,121.995,588.23,118.813,588.23,114.196 C588.23,114.196,588.23,94.1438,588.23,94.1438 C588.23,94.1438,583.779,94.1438,583.779,94.1438 C583.779,94.1438,583.779,89.4276,583.779,89.4276 C583.779,89.4276,588.23,89.4276,588.23,89.4276 C588.23,89.4276,588.23,78.94,588.23,78.94 C588.23,78.94,594.328,78.94,594.328,78.94 z M646.377,106.379 C646.377,106.379,646.377,109.348,646.377,109.348 C646.377,109.348,618.49,109.348,618.49,109.348 C618.754,113.525,620.012,116.708,622.264,118.895 C624.517,121.083,627.654,122.177,631.675,122.177 C634.005,122.177,636.263,121.891,638.45,121.319 C640.636,120.748,642.806,119.89,644.96,118.747 C644.96,118.747,644.96,124.485,644.96,124.485 C642.784,125.409,640.554,126.112,638.268,126.596 C635.983,127.08,633.664,127.322,631.313,127.322 C625.423,127.322,620.759,125.607,617.32,122.177 C613.881,118.747,612.161,114.108,612.161,108.259 C612.161,102.213,613.793,97.4143,617.056,93.8634 C620.32,90.3126,624.72,88.5372,630.258,88.5372 C635.225,88.5372,639.153,90.1367,642.043,93.3358 C644.932,96.5348,646.377,100.883,646.377,106.379 z M640.312,104.598 C640.268,101.278,639.34,98.629,637.527,96.6502 C635.714,94.6714,633.313,93.682,630.324,93.682 C626.94,93.682,624.231,94.6385,622.199,96.5513 C620.166,98.4641,618.996,101.158,618.688,104.631 C618.688,104.631,640.312,104.598,640.312,104.598 z M682.901,90.8458 C682.901,90.8458,682.901,96.5183,682.901,96.5183 C681.187,95.5729,679.467,94.8638,677.742,94.3911 C676.017,93.9184,674.275,93.682,672.517,93.682 C668.584,93.682,665.529,94.9298,663.354,97.4253 C661.178,99.9208,660.09,103.422,660.09,107.929 C660.09,112.437,661.178,115.938,663.354,118.434 C665.529,120.929,668.584,122.177,672.517,122.177 C674.275,122.177,676.017,121.94,677.742,121.468 C679.467,120.995,681.187,120.286,682.901,119.34 C682.901,119.34,682.901,124.947,682.901,124.947 C681.209,125.739,679.456,126.332,677.643,126.728 C675.83,127.124,673.902,127.322,671.858,127.322 C666.298,127.322,661.881,125.574,658.607,122.078 C655.332,118.582,653.695,113.866,653.695,107.929 C653.695,101.905,655.349,97.1669,658.656,93.715 C661.964,90.2631,666.496,88.5372,672.254,88.5372 C674.122,88.5372,675.946,88.7295,677.726,89.1143 C679.506,89.4991,681.231,90.0762,682.901,90.8458 z M699.449,78.94 C699.449,78.94,699.449,89.4276,699.449,89.4276 C699.449,89.4276,711.942,89.4276,711.942,89.4276 C711.942,89.4276,711.942,94.1438,711.942,94.1438 C711.942,94.1438,699.449,94.1438,699.449,94.1438 C699.449,94.1438,699.449,114.196,699.449,114.196 C699.449,117.208,699.861,119.143,700.685,120 C701.509,120.858,703.184,121.286,705.712,121.286 C705.712,121.286,711.942,121.286,711.942,121.286 C711.942,121.286,711.942,126.365,711.942,126.365 C711.942,126.365,705.712,126.365,705.712,126.365 C701.031,126.365,697.8,125.491,696.02,123.743 C694.24,121.995,693.35,118.813,693.35,114.196 C693.35,114.196,693.35,94.1438,693.35,94.1438 C693.35,94.1438,688.9,94.1438,688.9,94.1438 C688.9,94.1438,688.9,89.4276,688.9,89.4276 C688.9,89.4276,693.35,89.4276,693.35,89.4276 C693.35,89.4276,693.35,78.94,693.35,78.94 C693.35,78.94,699.449,78.94,699.449,78.94 z M734.225,93.682 C730.973,93.682,728.402,94.9518,726.512,97.4912 C724.622,100.031,723.677,103.51,723.677,107.929 C723.677,112.349,724.616,115.828,726.495,118.368 C728.374,120.907,730.951,122.177,734.225,122.177 C737.456,122.177,740.016,120.902,741.906,118.351 C743.796,115.801,744.74,112.327,744.74,107.929 C744.74,103.554,743.796,100.086,741.906,97.5242 C740.016,94.9628,737.456,93.682,734.225,93.682 z M734.225,88.5372 C739.499,88.5372,743.642,90.2521,746.652,93.682 C749.663,97.112,751.168,101.861,751.168,107.929 C751.168,113.976,749.663,118.719,746.652,122.16 C743.642,125.601,739.499,127.322,734.225,127.322 C728.929,127.322,724.781,125.601,721.781,122.16 C718.782,118.719,717.282,113.976,717.282,107.929 C717.282,101.861,718.782,97.112,721.781,93.682 C724.781,90.2521,728.929,88.5372,734.225,88.5372 z M782.616,95.1002 C781.934,94.7044,781.193,94.4131,780.391,94.2262 C779.588,94.0393,778.704,93.9459,777.737,93.9459 C774.309,93.9459,771.677,95.0617,769.842,97.2934 C768.007,99.525,767.09,102.73,767.09,106.907 C767.09,106.907,767.09,126.365,767.09,126.365 C767.09,126.365,760.992,126.365,760.992,126.365 C760.992,126.365,760.992,89.4276,760.992,89.4276 C760.992,89.4276,767.09,89.4276,767.09,89.4276 C767.09,89.4276,767.09,95.1661,767.09,95.1661 C768.364,92.9235,770.024,91.258,772.067,90.1697 C774.111,89.0813,776.594,88.5372,779.517,88.5372 C779.935,88.5372,780.396,88.5647,780.902,88.6196 C781.407,88.6746,781.967,88.757,782.583,88.867 C782.583,88.867,782.616,95.1002,782.616,95.1002 z"/>
        </g>
      </g>
    </g>
  </g>
</svg>
