<?xml version="1.0" encoding="utf-8"?>
<svg x="0pt" y="0pt" width="800pt" height="200pt" viewBox="0 0 800 200" xmlns="http://www.w3.org/2000/svg" xmlns:xlink="http://www.w3.org/1999/xlink">
  <!--Generated by AMDN-->
  <g id="Layer_1">
    <g id="Path">
      <linearGradient x1="22.3328" y1="71.1709" x2="126.983" y2="129.18" gradientUnits="userSpaceOnUse" id="am2">
        <stop offset="0.182031" style="stop-color:#0399e5;stop-opacity:1;"/>
        <stop offset="0.44161" style="stop-color:#174382;stop-opacity:1;"/>
        <stop offset="0.682252" style="stop-color:#164b89;stop-opacity:1;"/>
        <stop offset="1" style="stop-color:#0479c1;stop-opacity:1;"/>
      </linearGradient>
      <g id="Path_108">
        <path style="fill:url(#am2);fill-opacity:1;fill-rule:evenodd;opacity:1;stroke:none;" d="M74.658,40.349 C107.699,40.349,134.484,67.1342,134.484,100.175 C134.484,133.216,107.699,160.001,74.658,160.001 C41.6169,160.001,14.8318,133.216,14.8318,100.175 C14.8318,67.1342,41.6169,40.349,74.658,40.349 z"/>
      </g>
    </g>
    <path id="Path_1" style="fill:#ffffff;fill-opacity:1;fill-rule:evenodd;opacity:1;stroke:none;" d="M74.4022,53.208 C100.341,53.208,121.369,74.236,121.369,100.175 C121.369,126.115,100.341,147.142,74.4022,147.142 C48.4629,147.142,27.4349,126.115,27.4349,100.175 C27.4349,74.236,48.4629,53.208,74.4022,53.208 z"/>
    <path id="Path_2" style="fill:#3b4552;fill-opacity:1;fill-rule:evenodd;opacity:1;stroke:none;" d="M74.7007,70.3554 C91.1698,70.3554,104.521,83.7062,104.521,100.175 C104.521,116.644,91.1698,129.995,74.7007,129.995 C58.2317,129.995,44.8809,116.644,44.8809,100.175 C44.8809,83.7062,58.2317,70.3554,74.7007,70.3554 z"/>
    <path id="Path_3" style="fill:none;opacity:1;stroke:#ffffff;stroke-linecap:butt;stroke-linejoin:miter;stroke-miterlimit:10;stroke-opacity:1;stroke-width:3;" d="M74.7007,92.8352 C78.7545,92.8352,82.0407,96.1214,82.0407,100.175 C82.0407,104.229,78.7545,107.515,74.7007,107.515 C70.6469,107.515,67.3607,104.229,67.3607,100.175 C67.3607,96.1214,70.6469,92.8352,74.7007,92.8352 z"/>
    <path id="Path_4" style="fill:none;opacity:1;stroke:#ffffff;stroke-linecap:butt;stroke-linejoin:miter;stroke-miterlimit:10;stroke-opacity:1;stroke-width:3;" d="M74.676,81.8935 C85.0085,81.8935,93.3848,90.2697,93.3848,100.602 C93.3848,110.935,85.0085,119.311,74.676,119.311 C64.3433,119.311,55.9671,110.935,55.9671,100.602 C55.9671,90.2697,64.3433,81.8935,74.676,81.8935 z"/>
    <g id="Group">
      <path id="Path_5" style="fill:none;opacity:1;stroke:#ffffff;stroke-linecap:round;stroke-linejoin:miter;stroke-miterlimit:10;stroke-opacity:1;stroke-width:2;" d="M74.4701,100.14 C64.9914,88.4352,47.8184,86.6302,36.1132,96.1089"/>
      <path id="Path_6" style="fill:none;opacity:1;stroke:#ffffff;stroke-linecap:round;stroke-linejoin:miter;stroke-miterlimit:10;stroke-opacity:1;stroke-width:2;" d="M74.5253,100.369 C65.4609,88.3401,67.864,71.2406,79.893,62.1761"/>
    </g>
    <path id="Path_7" style="fill:#11b2f1;fill-opacity:1;fill-rule:nonzero;opacity:1;stroke:#ffffff;stroke-linecap:round;stroke-linejoin:miter;stroke-miterlimit:10;stroke-opacity:1;stroke-width:1;" d="M74.4701,100.14 C74.4701,100.14,108.301,37.8356,108.301,37.8356 C108.301,37.8356,117.659,43.5178,117.659,43.5178 C117.659,43.5178,74.4701,100.14,74.4701,100.14 z"/>
    <path id="Path_8" style="fill:#ffffff;fill-opacity:1;fill-rule:nonzero;opacity:1;stroke:#ffffff;stroke-linecap:round;stroke-linejoin:miter;stroke-miterlimit:10;stroke-opacity:1;stroke-width:1.5;" d="M64.1858,68.377"/>
    <path id="Path_24" style="fill:none;opacity:1;stroke:#fbed21;stroke-linecap:square;stroke-linejoin:miter;stroke-miterlimit:10;stroke-opacity:1;stroke-width:8;" d="M72.5616,67.2634 C73.2813,67.2165,74.0072,67.1927,74.7387,67.1927 C75.2343,67.1927,75.7274,67.2036,76.2176,67.2252"/>
    <path id="Path_26" style="fill:none;opacity:1;stroke:#fbed21;stroke-linecap:butt;stroke-linejoin:miter;stroke-miterlimit:10;stroke-opacity:1;stroke-width:8;" d="M69.4082,67.6212 C69.5361,67.6004,69.6642,67.5804,69.7926,67.5611"/>
    <path id="Path_29" style="fill:none;opacity:1;stroke:#fbed21;stroke-linecap:butt;stroke-linejoin:miter;stroke-miterlimit:10;stroke-opacity:1;stroke-width:8;" d="M59.8855,70.7184 C60.1119,70.604,60.3398,70.4922,60.5691,70.3829"/>
    <path id="Path_28" style="fill:none;opacity:1;stroke:#fbed21;stroke-linecap:butt;stroke-linejoin:miter;stroke-miterlimit:10;stroke-opacity:1;stroke-width:8;" d="M54.4653,74.1572 C54.7799,73.9117,55.0991,73.6717,55.4228,73.4376"/>
    <path id="Path_32" style="fill:none;opacity:1;stroke:#fbed21;stroke-linecap:butt;stroke-linejoin:miter;stroke-miterlimit:10;stroke-opacity:1;stroke-width:8;" d="M52.1211,76.1689 C52.6823,75.64,53.2621,75.1305,53.8594,74.6415"/>
    <path id="Path_39" style="fill:none;opacity:1;stroke:#fbed21;stroke-linecap:round;stroke-linejoin:miter;stroke-miterlimit:10;stroke-opacity:1;stroke-width:8;" d="M45.2879,85.31 C45.3043,85.2777,45.3207,85.2454,45.3372,85.2131"/>
    <path id="Path_38" style="fill:none;opacity:1;stroke:#fbed21;stroke-linecap:square;stroke-linejoin:miter;stroke-miterlimit:10;stroke-opacity:1;stroke-width:8;" d="M45.0961,85.6956 C45.1421,85.6015,45.1886,85.5077,45.2355,85.4142"/>
    <path id="Path_42" style="fill:none;opacity:1;stroke:#fbed21;stroke-linecap:butt;stroke-linejoin:miter;stroke-miterlimit:10;stroke-opacity:1;stroke-width:8;" d="M42.5084,93.1383 C42.7857,91.8625,43.1368,90.6142,43.557,89.3982"/>
    <path id="Path_83" style="fill:none;opacity:1;stroke:#fbed21;stroke-linecap:butt;stroke-linejoin:miter;stroke-miterlimit:10;stroke-opacity:1;stroke-width:8;" d="M67.3424,132.325 C67.2074,132.294,67.0728,132.263,66.9384,132.23"/>
    <path id="Path_81" style="fill:none;opacity:1;stroke:#fbed21;stroke-linecap:butt;stroke-linejoin:miter;stroke-miterlimit:10;stroke-opacity:1;stroke-width:8;" d="M86.3189,131.068 C85.9847,131.193,85.6481,131.313,85.309,131.428"/>
    <path id="Path_59" style="fill:none;opacity:1;stroke:#fbed21;stroke-linecap:butt;stroke-linejoin:miter;stroke-miterlimit:10;stroke-opacity:1;stroke-width:8;" d="M107.368,95.3329 C107.534,96.4586,107.643,97.6028,107.692,98.7625"/>
    <path id="Path_54" style="fill:none;opacity:1;stroke:#fbed21;stroke-linecap:butt;stroke-linejoin:miter;stroke-miterlimit:10;stroke-opacity:1;stroke-width:8;" d="M101.6,81.0307 C101.565,80.9823,101.53,80.934,101.495,80.8857"/>
    <path id="Path_52" style="fill:none;opacity:1;stroke:#fbed21;stroke-linecap:butt;stroke-linejoin:miter;stroke-miterlimit:10;stroke-opacity:1;stroke-width:8;" d="M97.6775,76.4759 C97.1137,75.93,96.5304,75.4041,95.9289,74.8993"/>
    <path id="Path_107" style="fill:none;opacity:1;stroke:#fdbf52;stroke-linecap:butt;stroke-linejoin:miter;stroke-miterlimit:10;stroke-opacity:1;stroke-width:7;" d="M88.6177,65.8916 C88.7491,65.9456,88.8801,66.0003,89.0107,66.0557"/>
    <path id="Path_118" style="fill:none;opacity:1;stroke:#fdbf52;stroke-linecap:butt;stroke-linejoin:miter;stroke-miterlimit:10;stroke-opacity:1;stroke-width:7;" d="M83.9412,64.3277 C84.1211,64.3747,84.3005,64.423,84.4794,64.4727"/>
    <path id="Path_121" style="fill:none;opacity:1;stroke:#fdbf52;stroke-linecap:butt;stroke-linejoin:miter;stroke-miterlimit:10;stroke-opacity:1;stroke-width:7;" d="M71.4439,63.2545 C72.4671,63.1696,73.5022,63.1263,74.5473,63.1263 C75.5489,63.1263,76.5412,63.1661,77.5227,63.2441"/>
    <path id="Path_135" style="fill:none;opacity:1;stroke:#fdbf52;stroke-linecap:butt;stroke-linejoin:miter;stroke-miterlimit:10;stroke-opacity:1;stroke-width:7;" d="M38.918,89.9831 C38.6968,90.758,38.5001,91.5432,38.3289,92.338"/>
    <path id="Path_133" style="fill:none;opacity:1;stroke:#fdbf52;stroke-linecap:butt;stroke-linejoin:miter;stroke-miterlimit:10;stroke-opacity:1;stroke-width:7;" d="M37.99,94.1251 C38.0837,93.5546,38.1904,92.9886,38.3098,92.4273"/>
    <path id="Path_123" style="fill:none;opacity:1;stroke:#fdbf52;stroke-linecap:butt;stroke-linejoin:miter;stroke-miterlimit:10;stroke-opacity:1;stroke-width:7;" d="M44.0459,121.212 C43.9039,121.006,43.7638,120.799,43.6259,120.591"/>
    <path id="Path_127" style="fill:none;opacity:1;stroke:#fdbf52;stroke-linecap:butt;stroke-linejoin:miter;stroke-miterlimit:10;stroke-opacity:1;stroke-width:7;" d="M47.9329,125.949 C47.7291,125.739,47.5277,125.526,47.3288,125.311"/>
    <path id="Path_146" style="fill:none;opacity:1;stroke:#fdbf52;stroke-linecap:butt;stroke-linejoin:miter;stroke-miterlimit:10;stroke-opacity:1;stroke-width:7;" d="M88.152,134.646 C87.5227,134.895,86.8848,135.127,86.2392,135.342"/>
    <path id="Path_145" style="fill:none;opacity:1;stroke:#fdbf52;stroke-linecap:butt;stroke-linejoin:miter;stroke-miterlimit:10;stroke-opacity:1;stroke-width:7;" d="M89.8632,133.92 C89.5221,134.075,89.1782,134.225,88.8317,134.37"/>
    <path id="Path_152" style="fill:none;opacity:1;stroke:#fdbf52;stroke-linecap:butt;stroke-linejoin:miter;stroke-miterlimit:10;stroke-opacity:1;stroke-width:7;" d="M110.714,92.102 C110.603,91.6012,110.481,91.1042,110.35,90.6113"/>
    <path id="Path_151" style="fill:none;opacity:1;stroke:#fdbf52;stroke-linecap:butt;stroke-linejoin:miter;stroke-miterlimit:10;stroke-opacity:1;stroke-width:7;" d="M111.171,94.5408 C111.298,95.3778,111.398,96.224,111.469,97.0784"/>
    <path id="Path_110" style="fill:none;opacity:1;stroke:#fdbf52;stroke-linecap:butt;stroke-linejoin:miter;stroke-miterlimit:10;stroke-opacity:1;stroke-width:7;" d="M98.6154,72.0079 C99.1878,72.4974,99.7451,73.0042,100.287,73.5272"/>
    <path id="Path_162" style="fill:none;opacity:1;stroke:#9e9e9e;stroke-linecap:butt;stroke-linejoin:miter;stroke-miterlimit:10;stroke-opacity:0.6;stroke-width:7;" d="M85.0081,60.164 C85.3785,60.2609,85.7468,60.3628,86.1131,60.4697"/>
    <path id="Path_166" style="fill:none;opacity:1;stroke:#9e9e9e;stroke-linecap:butt;stroke-linejoin:miter;stroke-miterlimit:10;stroke-opacity:0.6;stroke-width:7;" d="M34.4792,90.797 C34.5786,90.3597,34.6849,89.9251,34.798,89.4932"/>
    <path id="Path_168" style="fill:none;opacity:1;stroke:#9e9e9e;stroke-linecap:butt;stroke-linejoin:miter;stroke-miterlimit:10;stroke-opacity:0.6;stroke-width:7;" d="M33.9181,93.7733 C34.0114,93.1534,34.1185,92.538,34.2392,91.9275"/>
    <path id="Path_183" style="fill:none;opacity:1;stroke:#9e9e9e;stroke-linecap:butt;stroke-linejoin:miter;stroke-miterlimit:10;stroke-opacity:0.6;stroke-width:7;" d="M89.8965,138.108 C89.0465,138.45,88.1824,138.764,87.3053,139.049"/>
    <path id="Path_186" style="fill:none;opacity:1;stroke:#9e9e9e;stroke-linecap:butt;stroke-linejoin:miter;stroke-miterlimit:10;stroke-opacity:0.6;stroke-width:7;" d="M92.1169,137.139 C91.5675,137.398,91.0114,137.646,90.449,137.882"/>
    <path id="Path_194" style="fill:none;opacity:1;stroke:#9e9e9e;stroke-linecap:butt;stroke-linejoin:miter;stroke-miterlimit:10;stroke-opacity:0.6;stroke-width:7;" d="M115.379,94.8679 C115.483,95.719,115.562,96.5781,115.614,97.4445 C115.626,97.6365,115.636,97.8288,115.645,98.0215"/>
    <path id="Path_199" style="fill:none;opacity:1;stroke:#9e9e9e;stroke-linecap:butt;stroke-linejoin:miter;stroke-miterlimit:10;stroke-opacity:0.6;stroke-width:7;" d="M114.023,88.3215 C114.054,88.4262,114.084,88.531,114.114,88.636"/>
    <path id="Path_197" style="fill:none;opacity:1;stroke:#9e9e9e;stroke-linecap:butt;stroke-linejoin:miter;stroke-miterlimit:10;stroke-opacity:0.6;stroke-width:7;" d="M114.372,89.5825 C114.527,90.1782,114.668,90.7792,114.797,91.3851"/>
    <path id="Path_195" style="fill:none;opacity:1;stroke:#9e9e9e;stroke-linecap:butt;stroke-linejoin:miter;stroke-miterlimit:10;stroke-opacity:0.6;stroke-width:7;" d="M114.907,91.9258 C115.044,92.6148,115.163,93.31,115.264,94.0108"/>
    <path id="Path_213" style="fill:none;opacity:1;stroke:#9e9e9e;stroke-linecap:butt;stroke-linejoin:miter;stroke-miterlimit:10;stroke-opacity:0.974723;stroke-width:6;" d="M30.1907,93.1135 C30.2484,92.7434,30.3106,92.3748,30.3773,92.0077"/>
    <path id="Path_218" style="fill:none;opacity:1;stroke:#9e9e9e;stroke-linecap:butt;stroke-linejoin:miter;stroke-miterlimit:10;stroke-opacity:0.974723;stroke-width:6;" d="M110.938,125.841 C110.605,126.313,110.263,126.778,109.911,127.237"/>
    <path id="Path_204" style="fill:none;opacity:1;stroke:#9e9e9e;stroke-linecap:butt;stroke-linejoin:miter;stroke-miterlimit:10;stroke-opacity:0.974723;stroke-width:6;" d="M103.976,66.5113 C104.264,66.7659,104.549,67.0241,104.831,67.286"/>
    <path id="Path_17" style="fill:none;opacity:1;stroke:#ffffff;stroke-linecap:butt;stroke-linejoin:miter;stroke-miterlimit:10;stroke-opacity:1;stroke-width:2;" d="M112.132,151.699 C103.826,131.201,91.5425,113.877,75.1095,100.57"/>
    <path id="Path_224" style="fill:none;opacity:1;stroke:#3b4552;stroke-linecap:butt;stroke-linejoin:miter;stroke-miterlimit:10;stroke-opacity:1;stroke-width:2;" d="M104.665,136.018 C101.929,131.103,98.9167,126.422,95.6251,121.99"/>
    <path id="Path_96" style="fill:none;opacity:1;stroke:#fbed21;stroke-linecap:butt;stroke-linejoin:miter;stroke-miterlimit:10;stroke-opacity:1;stroke-width:8;" d="M96.798,124.643 C96.616,124.801,96.4324,124.957,96.247,125.111"/>
    <path id="Path_148" style="fill:none;opacity:1;stroke:#fdbf52;stroke-linecap:butt;stroke-linejoin:miter;stroke-miterlimit:10;stroke-opacity:1;stroke-width:7;" d="M99.7048,127.373 C99.161,127.877,98.6021,128.364,98.0288,128.834"/>
    <path id="Path_190" style="fill:none;opacity:1;stroke:#c4c4c4;stroke-linecap:butt;stroke-linejoin:miter;stroke-miterlimit:10;stroke-opacity:1;stroke-width:7;" d="M102.283,130.319 C101.836,130.727,101.38,131.125,100.915,131.513"/>
    <path id="Path_51" style="fill:none;opacity:1;stroke:#fbed21;stroke-linecap:square;stroke-linejoin:miter;stroke-miterlimit:10;stroke-opacity:1;stroke-width:8;" d="M91.588,71.8153 C91.7478,71.9104,91.9066,72.0068,92.0646,72.1045 C92.3643,72.2899,92.6608,72.48,92.9541,72.6746"/>
    <path id="Path_50" style="fill:none;opacity:1;stroke:#fbed21;stroke-linecap:butt;stroke-linejoin:miter;stroke-miterlimit:10;stroke-opacity:1;stroke-width:8;" d="M89.5625,70.7036 C88.8912,70.3653,88.2068,70.0493,87.5102,69.7565"/>
    <path id="Path_108-1" style="fill:none;opacity:1;stroke:#fdbf52;stroke-linecap:butt;stroke-linejoin:miter;stroke-miterlimit:10;stroke-opacity:1;stroke-width:7;" d="M89.7762,66.3909 C90.8622,66.8812,91.9202,67.4223,92.9474,68.0112"/>
    <path id="Path_109" style="fill:none;opacity:1;stroke:#fdbf52;stroke-linecap:butt;stroke-linejoin:miter;stroke-miterlimit:10;stroke-opacity:1;stroke-width:7;" d="M98.2773,71.7221 C97.349,70.9471,96.3821,70.2166,95.38,69.534"/>
    <path id="Path_159" style="fill:none;opacity:1;stroke:#c4c4c4;stroke-linecap:butt;stroke-linejoin:miter;stroke-miterlimit:10;stroke-opacity:1;stroke-width:7;" d="M96.9116,65.4199 C96.9576,65.4498,97.0035,65.4797,97.0494,65.5097 C98.4003,66.3932,99.696,67.3541,100.93,68.3861"/>
    <path id="Path_157" style="fill:none;opacity:1;stroke:#c4c4c4;stroke-linecap:butt;stroke-linejoin:miter;stroke-miterlimit:10;stroke-opacity:1;stroke-width:7;" d="M95.5378,64.5671 C94.3866,63.8834,93.1992,63.2543,91.979,62.6833"/>
    <path id="Path_207" style="fill:none;opacity:1;stroke:#9e9e9e;stroke-linecap:butt;stroke-linejoin:miter;stroke-miterlimit:10;stroke-opacity:0.974723;stroke-width:6;" d="M99.6654,63.1493 C100.955,64.0345,102.196,64.9855,103.384,65.9975 C103.407,66.0173,103.43,66.0371,103.453,66.0569"/>
    <path id="Path_208" style="fill:none;opacity:1;stroke:#9e9e9e;stroke-linecap:butt;stroke-linejoin:miter;stroke-miterlimit:10;stroke-opacity:0.974723;stroke-width:6;" d="M93.305,59.5121 C94.4505,60.0476,95.5696,60.6301,96.6598,61.2574 C97.0741,61.4958,97.4844,61.7407,97.8902,61.9918 C97.9695,62.0409,98.0485,62.0901,98.1274,62.1396"/>
    <path id="Path_9" style="fill:#11b2f1;fill-opacity:1;fill-rule:nonzero;opacity:1;stroke:#ffffff;stroke-linecap:round;stroke-linejoin:miter;stroke-miterlimit:10;stroke-opacity:1;stroke-width:1;" d="M74.5253,100.369 C74.5253,100.369,24.7847,141.579,24.7847,141.579 C24.7847,141.579,28.2763,145.429,28.2763,145.429 C28.2763,145.429,74.5253,100.369,74.5253,100.369 z"/>
    <path id="Path_10" style="fill:#aaaaaa;fill-opacity:1;fill-rule:nonzero;opacity:1;stroke:none;" d="M33.9181,156.419"/>
    <path id="Path_11" style="fill:#11b2f1;fill-opacity:1;fill-rule:nonzero;opacity:1;stroke:#ffffff;stroke-linecap:round;stroke-linejoin:miter;stroke-miterlimit:10;stroke-opacity:1;stroke-width:1;" d="M74.4701,100.14 C74.4701,100.14,37.99,152.032,37.99,152.032 C37.99,152.032,34.0786,148.985,34.0786,148.985 C34.0786,148.985,74.4701,100.14,74.4701,100.14 z"/>
    <path id="Path_67" style="fill:none;opacity:1;stroke:#fbed21;stroke-linecap:butt;stroke-linejoin:miter;stroke-miterlimit:10;stroke-opacity:1;stroke-width:8;" d="M50.8398,122.906 C49.6519,121.658,48.561,120.316,47.5788,118.894 C47.415,118.657,47.2542,118.417,47.0964,118.176"/>
    <path id="Path_78" style="fill:none;opacity:1;stroke:#fbed21;stroke-linecap:square;stroke-linejoin:miter;stroke-miterlimit:10;stroke-opacity:1;stroke-width:8;" d="M57.5968,128.359 C56.4846,127.681,55.4157,126.939,54.3951,126.138"/>
    <path id="Path_128" style="fill:none;opacity:1;stroke:#fdbf52;stroke-linecap:butt;stroke-linejoin:miter;stroke-miterlimit:10;stroke-opacity:1;stroke-width:7;" d="M47.2508,125.226 C46.2815,124.17,45.3726,123.058,44.5297,121.895"/>
    <path id="Path_131" style="fill:none;opacity:1;stroke:#fdbf52;stroke-linecap:butt;stroke-linejoin:miter;stroke-miterlimit:10;stroke-opacity:1;stroke-width:7;" d="M54.2299,131.161 C53.0058,130.357,51.8322,129.482,50.715,128.543"/>
    <path id="Path_172" style="fill:none;opacity:1;stroke:#c4c4c4;stroke-linecap:butt;stroke-linejoin:miter;stroke-miterlimit:10;stroke-opacity:1;stroke-width:7;" d="M44.4346,127.91 C43.7095,127.129,43.0144,126.32,42.3511,125.484"/>
    <path id="Path_175" style="fill:none;opacity:1;stroke:#9e9e9e;stroke-linecap:butt;stroke-linejoin:miter;stroke-miterlimit:10;stroke-opacity:0.6;stroke-width:7;" d="M47.2386,130.657 C46.6374,130.121,46.0521,129.568,45.4833,128.999"/>
    <path id="Path_178" style="fill:none;opacity:1;stroke:#c4c4c4;stroke-linecap:butt;stroke-linejoin:miter;stroke-miterlimit:10;stroke-opacity:1;stroke-width:7;" d="M52.4754,134.621 C50.7529,133.522,49.1179,132.297,47.583,130.96"/>
    <g id="Group-1">
      <g id="Text">
        <g id="Text-1">
          <path style="fill:#000000;fill-opacity:1;fill-rule:nonzero;opacity:1;stroke:none;" d="M173.741,79.6018 C168.871,79.6018,165.003,81.4169,162.136,85.0471 C159.27,88.6773,157.837,93.6245,157.837,99.8889 C157.837,106.131,159.27,111.067,162.136,114.697 C165.003,118.328,168.871,120.143,173.741,120.143 C178.611,120.143,182.468,118.328,185.312,114.697 C188.157,111.067,189.579,106.131,189.579,99.8889 C189.579,93.6245,188.157,88.6773,185.312,85.0471 C182.468,81.4169,178.611,79.6018,173.741,79.6018 z M173.741,74.1564 C180.691,74.1564,186.247,76.4862,190.409,81.1457 C194.57,85.8052,196.651,92.0529,196.651,99.8889 C196.651,107.703,194.57,113.939,190.409,118.599 C186.247,123.258,180.691,125.588,173.741,125.588 C166.768,125.588,161.196,123.264,157.023,118.615 C152.851,113.967,150.764,107.725,150.764,99.8889 C150.764,92.0529,152.851,85.8052,157.023,81.1457 C161.196,76.4862,166.768,74.1564,173.741,74.1564 z"/>
        </g>
        <g id="Text-2">
          <path style="fill:#000000;fill-opacity:1;fill-rule:nonzero;opacity:1;stroke:none;" d="M212.788,119.047 C212.788,119.047,212.788,138.77,212.788,138.77 C212.788,138.77,206.645,138.77,206.645,138.77 C206.645,138.77,206.645,87.4377,206.645,87.4377 C206.645,87.4377,212.788,87.4377,212.788,87.4377 C212.788,87.4377,212.788,93.0822,212.788,93.0822 C214.072,90.8687,215.693,89.2251,217.652,88.1516 C219.611,87.078,221.952,86.5412,224.675,86.5412 C229.19,86.5412,232.859,88.3342,235.681,91.9201 C238.504,95.5061,239.915,100.221,239.915,106.065 C239.915,111.908,238.504,116.623,235.681,120.209 C232.859,123.795,229.19,125.588,224.675,125.588 C221.952,125.588,219.611,125.051,217.652,123.978 C215.693,122.904,214.072,121.261,212.788,119.047 z M233.573,106.065 C233.573,101.571,232.649,98.0461,230.8,95.4895 C228.952,92.9328,226.412,91.6545,223.18,91.6545 C219.949,91.6545,217.409,92.9328,215.56,95.4895 C213.712,98.0461,212.788,101.571,212.788,106.065 C212.788,110.558,213.712,114.083,215.56,116.64 C217.409,119.196,219.949,120.475,223.18,120.475 C226.412,120.475,228.952,119.196,230.8,116.64 C232.649,114.083,233.573,110.558,233.573,106.065 z"/>
        </g>
        <g id="Text-3">
          <path style="fill:#000000;fill-opacity:1;fill-rule:nonzero;opacity:1;stroke:none;" d="M281.85,104.504 C281.85,104.504,281.85,107.492,281.85,107.492 C281.85,107.492,253.76,107.492,253.76,107.492 C254.026,111.698,255.293,114.902,257.562,117.105 C259.831,119.307,262.991,120.408,267.042,120.408 C269.388,120.408,271.662,120.121,273.865,119.545 C276.067,118.97,278.253,118.106,280.423,116.955 C280.423,116.955,280.423,122.733,280.423,122.733 C278.231,123.662,275.984,124.371,273.682,124.858 C271.38,125.345,269.045,125.588,266.676,125.588 C260.744,125.588,256.046,123.862,252.582,120.408 C249.118,116.955,247.385,112.285,247.385,106.397 C247.385,100.309,249.029,95.4784,252.316,91.9035 C255.603,88.3287,260.036,86.5412,265.614,86.5412 C270.617,86.5412,274.573,88.1516,277.484,91.3723 C280.395,94.593,281.85,98.9702,281.85,104.504 z M275.741,102.711 C275.697,99.3687,274.761,96.7014,272.935,94.7092 C271.109,92.717,268.691,91.7209,265.68,91.7209 C262.272,91.7209,259.543,92.6838,257.496,94.6096 C255.448,96.5354,254.27,99.2469,253.96,102.744 C253.96,102.744,275.741,102.711,275.741,102.711 z"/>
        </g>
        <g id="Text-4">
          <path style="fill:#000000;fill-opacity:1;fill-rule:nonzero;opacity:1;stroke:none;" d="M322.79,102.18 C322.79,102.18,322.79,124.625,322.79,124.625 C322.79,124.625,316.68,124.625,316.68,124.625 C316.68,124.625,316.68,102.379,316.68,102.379 C316.68,98.8596,315.994,96.2255,314.622,94.4768 C313.249,92.7281,311.191,91.8537,308.446,91.8537 C305.148,91.8537,302.547,92.9051,300.643,95.008 C298.74,97.1109,297.788,99.9774,297.788,103.608 C297.788,103.608,297.788,124.625,297.788,124.625 C297.788,124.625,291.645,124.625,291.645,124.625 C291.645,124.625,291.645,87.4377,291.645,87.4377 C291.645,87.4377,297.788,87.4377,297.788,87.4377 C297.788,87.4377,297.788,93.215,297.788,93.215 C299.249,90.9794,300.97,89.3081,302.951,88.2014 C304.932,87.0946,307.217,86.5412,309.807,86.5412 C314.079,86.5412,317.311,87.8638,319.503,90.509 C321.694,93.1542,322.79,97.0445,322.79,102.18 z"/>
        </g>
        <g id="Text-5">
          <path style="fill:#000000;fill-opacity:1;fill-rule:nonzero;opacity:1;stroke:none;" d="M341.948,80.5647 C341.948,80.5647,341.948,119.113,341.948,119.113 C341.948,119.113,350.049,119.113,350.049,119.113 C356.889,119.113,361.897,117.564,365.074,114.465 C368.25,111.366,369.839,106.474,369.839,99.7893 C369.839,93.1486,368.25,88.2844,365.074,85.1965 C361.897,82.1086,356.889,80.5647,350.049,80.5647 C350.049,80.5647,341.948,80.5647,341.948,80.5647 z M335.241,75.0529 C335.241,75.0529,349.02,75.0529,349.02,75.0529 C358.627,75.0529,365.677,77.0507,370.171,81.0461 C374.664,85.0415,376.911,91.2893,376.911,99.7893 C376.911,108.334,374.653,114.609,370.137,118.615 C365.622,122.622,358.583,124.625,349.02,124.625 C349.02,124.625,335.241,124.625,335.241,124.625 C335.241,124.625,335.241,75.0529,335.241,75.0529 z"/>
        </g>
        <g id="Text-6">
          <path style="fill:#000000;fill-opacity:1;fill-rule:nonzero;opacity:1;stroke:none;" d="M404.237,105.932 C399.301,105.932,395.881,106.496,393.977,107.625 C392.074,108.754,391.122,110.68,391.122,113.403 C391.122,115.572,391.836,117.293,393.263,118.566 C394.691,119.838,396.633,120.475,399.091,120.475 C402.477,120.475,405.194,119.274,407.242,116.872 C409.289,114.471,410.313,111.278,410.313,107.293 C410.313,107.293,410.313,105.932,410.313,105.932 C410.313,105.932,404.237,105.932,404.237,105.932 z M416.423,103.408 C416.423,103.408,416.423,124.625,416.423,124.625 C416.423,124.625,410.313,124.625,410.313,124.625 C410.313,124.625,410.313,118.981,410.313,118.981 C408.919,121.238,407.181,122.904,405.1,123.978 C403.02,125.051,400.474,125.588,397.464,125.588 C393.656,125.588,390.629,124.52,388.383,122.384 C386.136,120.248,385.012,117.387,385.012,113.801 C385.012,109.617,386.412,106.463,389.213,104.338 C392.013,102.213,396.191,101.151,401.747,101.151 C401.747,101.151,410.313,101.151,410.313,101.151 C410.313,101.151,410.313,100.553,410.313,100.553 C410.313,97.7417,409.389,95.5669,407.541,94.0285 C405.692,92.4901,403.097,91.7209,399.755,91.7209 C397.63,91.7209,395.56,91.9755,393.546,92.4846 C391.531,92.9937,389.594,93.7574,387.735,94.7756 C387.735,94.7756,387.735,89.1311,387.735,89.1311 C389.971,88.2678,392.14,87.6203,394.243,87.1887 C396.346,86.757,398.393,86.5412,400.385,86.5412 C405.764,86.5412,409.782,87.9357,412.438,90.7248 C415.094,93.5139,416.423,97.7417,416.423,103.408 z"/>
        </g>
        <g id="Text-7">
          <path style="fill:#000000;fill-opacity:1;fill-rule:nonzero;opacity:1;stroke:none;" d="M435.049,76.8791 C435.049,76.8791,435.049,87.4377,435.049,87.4377 C435.049,87.4377,447.633,87.4377,447.633,87.4377 C447.633,87.4377,447.633,92.1857,447.633,92.1857 C447.633,92.1857,435.049,92.1857,435.049,92.1857 C435.049,92.1857,435.049,112.373,435.049,112.373 C435.049,115.406,435.465,117.354,436.295,118.217 C437.125,119.08,438.813,119.512,441.358,119.512 C441.358,119.512,447.633,119.512,447.633,119.512 C447.633,119.512,447.633,124.625,447.633,124.625 C447.633,124.625,441.358,124.625,441.358,124.625 C436.643,124.625,433.389,123.745,431.596,121.986 C429.803,120.226,428.907,117.022,428.907,112.373 C428.907,112.373,428.907,92.1857,428.907,92.1857 C428.907,92.1857,424.424,92.1857,424.424,92.1857 C424.424,92.1857,424.424,87.4377,424.424,87.4377 C424.424,87.4377,428.907,87.4377,428.907,87.4377 C428.907,87.4377,428.907,76.8791,428.907,76.8791 C428.907,76.8791,435.049,76.8791,435.049,76.8791 z"/>
        </g>
        <g id="Text-8">
          <path style="fill:#000000;fill-opacity:1;fill-rule:nonzero;opacity:1;stroke:none;" d="M472.569,105.932 C467.633,105.932,464.213,106.496,462.309,107.625 C460.406,108.754,459.454,110.68,459.454,113.403 C459.454,115.572,460.168,117.293,461.595,118.566 C463.023,119.838,464.966,120.475,467.423,120.475 C470.809,120.475,473.526,119.274,475.574,116.872 C477.621,114.471,478.645,111.278,478.645,107.293 C478.645,107.293,478.645,105.932,478.645,105.932 C478.645,105.932,472.569,105.932,472.569,105.932 z M484.755,103.408 C484.755,103.408,484.755,124.625,484.755,124.625 C484.755,124.625,478.645,124.625,478.645,124.625 C478.645,124.625,478.645,118.981,478.645,118.981 C477.251,121.238,475.513,122.904,473.432,123.978 C471.352,125.051,468.806,125.588,465.796,125.588 C461.988,125.588,458.961,124.52,456.715,122.384 C454.468,120.248,453.344,117.387,453.344,113.801 C453.344,109.617,454.744,106.463,457.545,104.338 C460.345,102.213,464.523,101.151,470.079,101.151 C470.079,101.151,478.645,101.151,478.645,101.151 C478.645,101.151,478.645,100.553,478.645,100.553 C478.645,97.7417,477.721,95.5669,475.873,94.0285 C474.024,92.4901,471.429,91.7209,468.087,91.7209 C465.962,91.7209,463.892,91.9755,461.878,92.4846 C459.863,92.9937,457.926,93.7574,456.067,94.7756 C456.067,94.7756,456.067,89.1311,456.067,89.1311 C458.303,88.2678,460.472,87.6203,462.575,87.1887 C464.678,86.757,466.725,86.5412,468.717,86.5412 C474.096,86.5412,478.114,87.9357,480.77,90.7248 C483.426,93.5139,484.755,97.7417,484.755,103.408 z"/>
        </g>
        <g id="Text-9">
          <path style="fill:#000000;fill-opacity:1;fill-rule:nonzero;opacity:1;stroke:none;" d="M504.311,80.5647 C504.311,80.5647,504.311,119.113,504.311,119.113 C504.311,119.113,512.413,119.113,512.413,119.113 C519.253,119.113,524.261,117.564,527.437,114.465 C530.614,111.366,532.202,106.474,532.202,99.7893 C532.202,93.1486,530.614,88.2844,527.437,85.1965 C524.261,82.1086,519.253,80.5647,512.413,80.5647 C512.413,80.5647,504.311,80.5647,504.311,80.5647 z M497.604,75.0529 C497.604,75.0529,511.383,75.0529,511.383,75.0529 C520.99,75.0529,528.04,77.0507,532.534,81.0461 C537.027,85.0415,539.274,91.2893,539.274,99.7893 C539.274,108.334,537.016,114.609,532.501,118.615 C527.985,122.622,520.946,124.625,511.383,124.625 C511.383,124.625,497.604,124.625,497.604,124.625 C497.604,124.625,497.604,75.0529,497.604,75.0529 z"/>
        </g>
        <g id="Text-10">
          <path style="fill:#000000;fill-opacity:1;fill-rule:nonzero;opacity:1;stroke:none;" d="M581.508,104.504 C581.508,104.504,581.508,107.492,581.508,107.492 C581.508,107.492,553.419,107.492,553.419,107.492 C553.684,111.698,554.952,114.902,557.22,117.105 C559.489,119.307,562.649,120.408,566.7,120.408 C569.046,120.408,571.321,120.121,573.523,119.545 C575.726,118.97,577.911,118.106,580.081,116.955 C580.081,116.955,580.081,122.733,580.081,122.733 C577.889,123.662,575.643,124.371,573.341,124.858 C571.038,125.345,568.703,125.588,566.335,125.588 C560.402,125.588,555.704,123.862,552.24,120.408 C548.776,116.955,547.044,112.285,547.044,106.397 C547.044,100.309,548.687,95.4784,551.974,91.9035 C555.261,88.3287,559.694,86.5412,565.272,86.5412 C570.275,86.5412,574.232,88.1516,577.142,91.3723 C580.053,94.593,581.508,98.9702,581.508,104.504 z M575.399,102.711 C575.355,99.3687,574.42,96.7014,572.593,94.7092 C570.767,92.717,568.349,91.7209,565.339,91.7209 C561.93,91.7209,559.202,92.6838,557.154,94.6096 C555.107,96.5354,553.928,99.2469,553.618,102.744 C553.618,102.744,575.399,102.711,575.399,102.711 z"/>
        </g>
        <g id="Text-11">
          <path style="fill:#000000;fill-opacity:1;fill-rule:nonzero;opacity:1;stroke:none;" d="M597.579,76.8791 C597.579,76.8791,597.579,87.4377,597.579,87.4377 C597.579,87.4377,610.163,87.4377,610.163,87.4377 C610.163,87.4377,610.163,92.1857,610.163,92.1857 C610.163,92.1857,597.579,92.1857,597.579,92.1857 C597.579,92.1857,597.579,112.373,597.579,112.373 C597.579,115.406,597.994,117.354,598.824,118.217 C599.654,119.08,601.342,119.512,603.887,119.512 C603.887,119.512,610.163,119.512,610.163,119.512 C610.163,119.512,610.163,124.625,610.163,124.625 C610.163,124.625,603.887,124.625,603.887,124.625 C599.173,124.625,595.919,123.745,594.126,121.986 C592.333,120.226,591.436,117.022,591.436,112.373 C591.436,112.373,591.436,92.1857,591.436,92.1857 C591.436,92.1857,586.954,92.1857,586.954,92.1857 C586.954,92.1857,586.954,87.4377,586.954,87.4377 C586.954,87.4377,591.436,87.4377,591.436,87.4377 C591.436,87.4377,591.436,76.8791,591.436,76.8791 C591.436,76.8791,597.579,76.8791,597.579,76.8791 z"/>
        </g>
        <g id="Text-12">
          <path style="fill:#000000;fill-opacity:1;fill-rule:nonzero;opacity:1;stroke:none;" d="M650.007,104.504 C650.007,104.504,650.007,107.492,650.007,107.492 C650.007,107.492,621.917,107.492,621.917,107.492 C622.182,111.698,623.45,114.902,625.718,117.105 C627.987,119.307,631.147,120.408,635.198,120.408 C637.544,120.408,639.819,120.121,642.021,119.545 C644.224,118.97,646.41,118.106,648.579,116.955 C648.579,116.955,648.579,122.733,648.579,122.733 C646.387,123.662,644.141,124.371,641.839,124.858 C639.536,125.345,637.201,125.588,634.833,125.588 C628.9,125.588,624.202,123.862,620.738,120.408 C617.274,116.955,615.542,112.285,615.542,106.397 C615.542,100.309,617.185,95.4784,620.472,91.9035 C623.759,88.3287,628.192,86.5412,633.77,86.5412 C638.773,86.5412,642.73,88.1516,645.64,91.3723 C648.551,94.593,650.007,98.9702,650.007,104.504 z M643.897,102.711 C643.853,99.3687,642.918,96.7014,641.091,94.7092 C639.265,92.717,636.847,91.7209,633.837,91.7209 C630.428,91.7209,627.7,92.6838,625.652,94.6096 C623.605,96.5354,622.426,99.2469,622.116,102.744 C622.116,102.744,643.897,102.711,643.897,102.711 z"/>
        </g>
        <g id="Text-13">
          <path style="fill:#000000;fill-opacity:1;fill-rule:nonzero;opacity:1;stroke:none;" d="M686.796,88.8654 C686.796,88.8654,686.796,94.5764,686.796,94.5764 C685.069,93.6245,683.337,92.9107,681.599,92.4348 C679.862,91.9589,678.107,91.7209,676.337,91.7209 C672.374,91.7209,669.298,92.9771,667.106,95.4895 C664.915,98.0018,663.819,101.527,663.819,106.065 C663.819,110.602,664.915,114.127,667.106,116.64 C669.298,119.152,672.374,120.408,676.337,120.408 C678.107,120.408,679.862,120.17,681.599,119.695 C683.337,119.219,685.069,118.505,686.796,117.553 C686.796,117.553,686.796,123.197,686.796,123.197 C685.091,123.994,683.326,124.592,681.5,124.99 C679.674,125.389,677.731,125.588,675.673,125.588 C670.072,125.588,665.623,123.828,662.325,120.309 C659.027,116.789,657.378,112.041,657.378,106.065 C657.378,99.9995,659.043,95.2294,662.375,91.7541 C665.706,88.2788,670.271,86.5412,676.071,86.5412 C677.953,86.5412,679.79,86.7349,681.583,87.1223 C683.376,87.5096,685.113,88.0907,686.796,88.8654 z"/>
        </g>
        <g id="Text-14">
          <path style="fill:#000000;fill-opacity:1;fill-rule:nonzero;opacity:1;stroke:none;" d="M703.464,76.8791 C703.464,76.8791,703.464,87.4377,703.464,87.4377 C703.464,87.4377,716.048,87.4377,716.048,87.4377 C716.048,87.4377,716.048,92.1857,716.048,92.1857 C716.048,92.1857,703.464,92.1857,703.464,92.1857 C703.464,92.1857,703.464,112.373,703.464,112.373 C703.464,115.406,703.879,117.354,704.709,118.217 C705.539,119.08,707.227,119.512,709.772,119.512 C709.772,119.512,716.048,119.512,716.048,119.512 C716.048,119.512,716.048,124.625,716.048,124.625 C716.048,124.625,709.772,124.625,709.772,124.625 C705.057,124.625,701.803,123.745,700.01,121.986 C698.217,120.226,697.321,117.022,697.321,112.373 C697.321,112.373,697.321,92.1857,697.321,92.1857 C697.321,92.1857,692.839,92.1857,692.839,92.1857 C692.839,92.1857,692.839,87.4377,692.839,87.4377 C692.839,87.4377,697.321,87.4377,697.321,87.4377 C697.321,87.4377,697.321,76.8791,697.321,76.8791 C697.321,76.8791,703.464,76.8791,703.464,76.8791 z"/>
        </g>
        <g id="Text-15">
          <path style="fill:#000000;fill-opacity:1;fill-rule:nonzero;opacity:1;stroke:none;" d="M738.493,91.7209 C735.217,91.7209,732.627,92.9992,730.723,95.5559 C728.82,98.1125,727.868,101.615,727.868,106.065 C727.868,110.514,728.814,114.017,730.707,116.573 C732.599,119.13,735.195,120.408,738.493,120.408 C741.747,120.408,744.326,119.125,746.229,116.557 C748.133,113.989,749.085,110.492,749.085,106.065 C749.085,101.66,748.133,98.1678,746.229,95.5891 C744.326,93.0103,741.747,91.7209,738.493,91.7209 z M738.493,86.5412 C743.805,86.5412,747.978,88.2678,751.01,91.7209 C754.043,95.174,755.559,99.9553,755.559,106.065 C755.559,112.152,754.043,116.928,751.01,120.392 C747.978,123.856,743.805,125.588,738.493,125.588 C733.158,125.588,728.98,123.856,725.959,120.392 C722.937,116.928,721.426,112.152,721.426,106.065 C721.426,99.9553,722.937,95.174,725.959,91.7209 C728.98,88.2678,733.158,86.5412,738.493,86.5412 z"/>
        </g>
        <g id="Text-16">
          <path style="fill:#000000;fill-opacity:1;fill-rule:nonzero;opacity:1;stroke:none;" d="M787.235,93.1486 C786.549,92.7502,785.802,92.4569,784.994,92.2688 C784.186,92.0806,783.295,91.9865,782.321,91.9865 C778.868,91.9865,776.217,93.1099,774.369,95.3566 C772.521,97.6034,771.596,100.83,771.596,105.035 C771.596,105.035,771.596,124.625,771.596,124.625 C771.596,124.625,765.454,124.625,765.454,124.625 C765.454,124.625,765.454,87.4377,765.454,87.4377 C765.454,87.4377,771.596,87.4377,771.596,87.4377 C771.596,87.4377,771.596,93.215,771.596,93.215 C772.88,90.9572,774.551,89.2805,776.61,88.1848 C778.669,87.0891,781.17,86.5412,784.114,86.5412 C784.535,86.5412,784.999,86.5689,785.508,86.6242 C786.018,86.6796,786.582,86.7626,787.202,86.8732 C787.202,86.8732,787.235,93.1486,787.235,93.1486 z"/>
        </g>
      </g>
    </g>
  </g>
</svg>
