<?xml version="1.0" encoding="utf-8"?>
<svg x="0pt" y="0pt" width="800pt" height="600pt" viewBox="0 0 800 600" xmlns="http://www.w3.org/2000/svg" xmlns:xlink="http://www.w3.org/1999/xlink">
  <!--Generated by AMDN-->
  <g id="Layer_1">
    <g id="Path">
      <linearGradient x1="276.521" y1="220.625" x2="508.142" y2="349.015" gradientUnits="userSpaceOnUse" id="am2">
        <stop offset="0.182031" style="stop-color:#0399e5;stop-opacity:1;"/>
        <stop offset="0.44161" style="stop-color:#174382;stop-opacity:1;"/>
        <stop offset="0.682252" style="stop-color:#164b89;stop-opacity:1;"/>
        <stop offset="1" style="stop-color:#0479c1;stop-opacity:1;"/>
      </linearGradient>
      <g id="Path_21">
        <path style="fill:url(#am2);fill-opacity:1;fill-rule:evenodd;opacity:1;stroke:none;" d="M392.331,152.408 C465.461,152.408,524.744,211.691,524.744,284.82 C524.744,357.95,465.461,417.233,392.331,417.233 C319.202,417.233,259.919,357.95,259.919,284.82 C259.919,211.691,319.202,152.408,392.331,152.408 z"/>
      </g>
    </g>
    <path id="Path_1" style="fill:#ffffff;fill-opacity:1;fill-rule:evenodd;opacity:1;stroke:none;" d="M391.765,180.868 C449.176,180.868,495.717,227.409,495.717,284.82 C495.717,342.232,449.176,388.772,391.765,388.772 C334.354,388.772,287.813,342.232,287.813,284.82 C287.813,227.409,334.354,180.868,391.765,180.868 z"/>
    <path id="Path_2" style="fill:#3b4552;fill-opacity:1;fill-rule:evenodd;opacity:1;stroke:none;" d="M392.426,218.82 C428.877,218.82,458.426,248.37,458.426,284.82 C458.426,321.271,428.877,350.82,392.426,350.82 C355.975,350.82,326.426,321.271,326.426,284.82 C326.426,248.37,355.975,218.82,392.426,218.82 z"/>
    <path id="Path_3" style="fill:none;opacity:1;stroke:#ffffff;stroke-linecap:butt;stroke-linejoin:miter;stroke-miterlimit:10;stroke-opacity:1;stroke-width:5;" d="M392.426,268.575 C401.398,268.575,408.672,275.848,408.672,284.82 C408.672,293.793,401.398,301.066,392.426,301.066 C383.454,301.066,376.18,293.793,376.18,284.82 C376.18,275.848,383.454,268.575,392.426,268.575 z"/>
    <path id="Path_4" style="fill:none;opacity:1;stroke:#ffffff;stroke-linecap:butt;stroke-linejoin:miter;stroke-miterlimit:10;stroke-opacity:1;stroke-width:5;" d="M392.371,244.357 C415.24,244.357,433.779,262.896,433.779,285.766 C433.779,308.635,415.24,327.174,392.371,327.174 C369.502,327.174,350.963,308.635,350.963,285.766 C350.963,262.896,369.502,244.357,392.371,244.357 z"/>
    <path id="Path_5" style="fill:none;opacity:1;stroke:#ffffff;stroke-linecap:round;stroke-linejoin:miter;stroke-miterlimit:10;stroke-opacity:1;stroke-width:2;" d="M391.916,284.743 C370.936,258.836,332.928,254.841,307.021,275.82"/>
    <path id="Path_6" style="fill:none;opacity:1;stroke:#ffffff;stroke-linecap:round;stroke-linejoin:miter;stroke-miterlimit:10;stroke-opacity:1;stroke-width:2;" d="M392.038,285.249 C371.976,258.626,377.294,220.78,403.918,200.717"/>
    <path id="Path_7" style="fill:#11b2f1;fill-opacity:1;fill-rule:nonzero;opacity:1;stroke:#ffffff;stroke-linecap:round;stroke-linejoin:miter;stroke-miterlimit:10;stroke-opacity:1;stroke-width:1;" d="M391.916,284.743 C391.916,284.743,466.793,146.845,466.793,146.845 C466.793,146.845,487.504,159.421,487.504,159.421 C487.504,159.421,391.916,284.743,391.916,284.743 z"/>
    <path id="Path_8" style="fill:#ffffff;fill-opacity:1;fill-rule:nonzero;opacity:1;stroke:#ffffff;stroke-linecap:round;stroke-linejoin:miter;stroke-miterlimit:10;stroke-opacity:1;stroke-width:1.5;" d="M369.154,214.442"/>
    <path id="Path_24" style="fill:none;opacity:1;stroke:#fbed21;stroke-linecap:square;stroke-linejoin:miter;stroke-miterlimit:10;stroke-opacity:1;stroke-width:8;" d="M387.692,211.977 C389.284,211.873,390.891,211.82,392.51,211.82 C393.607,211.82,394.698,211.845,395.783,211.892"/>
    <path id="Path_26" style="fill:none;opacity:1;stroke:#fbed21;stroke-linecap:butt;stroke-linejoin:miter;stroke-miterlimit:10;stroke-opacity:1;stroke-width:8;" d="M380.712,212.769 C380.995,212.723,381.279,212.678,381.563,212.636"/>
    <path id="Path_29" style="fill:none;opacity:1;stroke:#fbed21;stroke-linecap:butt;stroke-linejoin:miter;stroke-miterlimit:10;stroke-opacity:1;stroke-width:8;" d="M359.636,219.624 C360.137,219.371,360.641,219.123,361.149,218.881"/>
    <path id="Path_28" style="fill:none;opacity:1;stroke:#fbed21;stroke-linecap:butt;stroke-linejoin:miter;stroke-miterlimit:10;stroke-opacity:1;stroke-width:8;" d="M347.639,227.235 C348.336,226.691,349.042,226.16,349.758,225.642"/>
    <path id="Path_32" style="fill:none;opacity:1;stroke:#fbed21;stroke-linecap:butt;stroke-linejoin:miter;stroke-miterlimit:10;stroke-opacity:1;stroke-width:8;" d="M342.451,231.687 C343.693,230.517,344.976,229.389,346.298,228.307"/>
    <path id="Path_39" style="fill:none;opacity:1;stroke:#fbed21;stroke-linecap:round;stroke-linejoin:miter;stroke-miterlimit:10;stroke-opacity:1;stroke-width:8;" d="M327.327,251.919 C327.363,251.848,327.4,251.776,327.436,251.705"/>
    <path id="Path_38" style="fill:none;opacity:1;stroke:#fbed21;stroke-linecap:square;stroke-linejoin:miter;stroke-miterlimit:10;stroke-opacity:1;stroke-width:8;" d="M326.902,252.773 C327.004,252.565,327.107,252.357,327.211,252.15"/>
    <path id="Path_42" style="fill:none;opacity:1;stroke:#fbed21;stroke-linecap:butt;stroke-linejoin:miter;stroke-miterlimit:10;stroke-opacity:1;stroke-width:8;" d="M321.175,269.246 C321.789,266.422,322.566,263.659,323.496,260.968"/>
    <path id="Path_83" style="fill:none;opacity:1;stroke:#fbed21;stroke-linecap:butt;stroke-linejoin:miter;stroke-miterlimit:10;stroke-opacity:1;stroke-width:8;" d="M376.14,355.978 C375.841,355.909,375.543,355.839,375.246,355.767"/>
    <path id="Path_81" style="fill:none;opacity:1;stroke:#fbed21;stroke-linecap:butt;stroke-linejoin:miter;stroke-miterlimit:10;stroke-opacity:1;stroke-width:8;" d="M418.14,353.194 C417.401,353.471,416.656,353.737,415.905,353.991"/>
    <path id="Path_59" style="fill:none;opacity:1;stroke:#fbed21;stroke-linecap:butt;stroke-linejoin:miter;stroke-miterlimit:10;stroke-opacity:1;stroke-width:8;" d="M464.729,274.103 C465.095,276.594,465.336,279.127,465.444,281.694"/>
    <path id="Path_54" style="fill:none;opacity:1;stroke:#fbed21;stroke-linecap:butt;stroke-linejoin:miter;stroke-miterlimit:10;stroke-opacity:1;stroke-width:8;" d="M451.961,242.448 C451.884,242.341,451.808,242.234,451.73,242.127"/>
    <path id="Path_52" style="fill:none;opacity:1;stroke:#fbed21;stroke-linecap:butt;stroke-linejoin:miter;stroke-miterlimit:10;stroke-opacity:1;stroke-width:8;" d="M443.28,232.367 C442.032,231.159,440.741,229.995,439.41,228.877"/>
    <path id="Path_107" style="fill:none;opacity:1;stroke:#fdbf52;stroke-linecap:butt;stroke-linejoin:miter;stroke-miterlimit:10;stroke-opacity:1;stroke-width:7;" d="M423.228,208.941 C423.519,209.06,423.809,209.181,424.098,209.304"/>
    <path id="Path_118" style="fill:none;opacity:1;stroke:#fdbf52;stroke-linecap:butt;stroke-linejoin:miter;stroke-miterlimit:10;stroke-opacity:1;stroke-width:7;" d="M412.878,205.479 C413.276,205.583,413.673,205.69,414.069,205.8"/>
    <path id="Path_121" style="fill:none;opacity:1;stroke:#fdbf52;stroke-linecap:butt;stroke-linejoin:miter;stroke-miterlimit:10;stroke-opacity:1;stroke-width:7;" d="M385.218,203.104 C387.482,202.916,389.773,202.82,392.087,202.82 C394.303,202.82,396.499,202.908,398.672,203.081"/>
    <path id="Path_135" style="fill:none;opacity:1;stroke:#fdbf52;stroke-linecap:butt;stroke-linejoin:miter;stroke-miterlimit:10;stroke-opacity:1;stroke-width:7;" d="M313.228,262.262 C312.739,263.977,312.304,265.715,311.925,267.474"/>
    <path id="Path_133" style="fill:none;opacity:1;stroke:#fdbf52;stroke-linecap:butt;stroke-linejoin:miter;stroke-miterlimit:10;stroke-opacity:1;stroke-width:7;" d="M311.174,271.43 C311.382,270.167,311.618,268.914,311.882,267.672"/>
    <path id="Path_123" style="fill:none;opacity:1;stroke:#fdbf52;stroke-linecap:butt;stroke-linejoin:miter;stroke-miterlimit:10;stroke-opacity:1;stroke-width:7;" d="M324.578,331.38 C324.264,330.925,323.954,330.467,323.648,330.005"/>
    <path id="Path_127" style="fill:none;opacity:1;stroke:#fdbf52;stroke-linecap:butt;stroke-linejoin:miter;stroke-miterlimit:10;stroke-opacity:1;stroke-width:7;" d="M333.181,341.866 C332.73,341.4,332.284,340.929,331.844,340.452"/>
    <path id="Path_146" style="fill:none;opacity:1;stroke:#fdbf52;stroke-linecap:butt;stroke-linejoin:miter;stroke-miterlimit:10;stroke-opacity:1;stroke-width:7;" d="M422.198,361.115 C420.805,361.665,419.393,362.179,417.964,362.654"/>
    <path id="Path_145" style="fill:none;opacity:1;stroke:#fdbf52;stroke-linecap:butt;stroke-linejoin:miter;stroke-miterlimit:10;stroke-opacity:1;stroke-width:7;" d="M425.985,359.508 C425.23,359.851,424.469,360.183,423.702,360.504"/>
    <path id="Path_152" style="fill:none;opacity:1;stroke:#fdbf52;stroke-linecap:butt;stroke-linejoin:miter;stroke-miterlimit:10;stroke-opacity:1;stroke-width:7;" d="M472.134,266.952 C471.888,265.844,471.619,264.744,471.328,263.653"/>
    <path id="Path_151" style="fill:none;opacity:1;stroke:#fdbf52;stroke-linecap:butt;stroke-linejoin:miter;stroke-miterlimit:10;stroke-opacity:1;stroke-width:7;" d="M473.144,272.35 C473.427,274.202,473.648,276.075,473.804,277.966"/>
    <path id="Path_110" style="fill:none;opacity:1;stroke:#fdbf52;stroke-linecap:butt;stroke-linejoin:miter;stroke-miterlimit:10;stroke-opacity:1;stroke-width:7;" d="M445.356,222.478 C446.623,223.561,447.857,224.683,449.055,225.841"/>
    <path id="Path_162" style="fill:none;opacity:1;stroke:#9e9e9e;stroke-linecap:butt;stroke-linejoin:miter;stroke-miterlimit:10;stroke-opacity:0.6;stroke-width:7;" d="M415.239,196.264 C416.059,196.478,416.874,196.704,417.685,196.94"/>
    <path id="Path_166" style="fill:none;opacity:1;stroke:#9e9e9e;stroke-linecap:butt;stroke-linejoin:miter;stroke-miterlimit:10;stroke-opacity:0.6;stroke-width:7;" d="M303.404,264.064 C303.624,263.096,303.859,262.134,304.11,261.178"/>
    <path id="Path_168" style="fill:none;opacity:1;stroke:#9e9e9e;stroke-linecap:butt;stroke-linejoin:miter;stroke-miterlimit:10;stroke-opacity:0.6;stroke-width:7;" d="M302.162,270.651 C302.369,269.279,302.606,267.917,302.873,266.566"/>
    <path id="Path_183" style="fill:none;opacity:1;stroke:#9e9e9e;stroke-linecap:butt;stroke-linejoin:miter;stroke-miterlimit:10;stroke-opacity:0.6;stroke-width:7;" d="M426.059,368.778 C424.177,369.534,422.265,370.229,420.324,370.86"/>
    <path id="Path_186" style="fill:none;opacity:1;stroke:#9e9e9e;stroke-linecap:butt;stroke-linejoin:miter;stroke-miterlimit:10;stroke-opacity:0.6;stroke-width:7;" d="M430.973,366.631 C429.757,367.206,428.526,367.754,427.282,368.276"/>
    <path id="Path_194" style="fill:none;opacity:1;stroke:#9e9e9e;stroke-linecap:butt;stroke-linejoin:miter;stroke-miterlimit:10;stroke-opacity:0.6;stroke-width:7;" d="M482.458,273.074 C482.69,274.957,482.864,276.859,482.979,278.776 C483.004,279.201,483.027,279.627,483.047,280.054"/>
    <path id="Path_199" style="fill:none;opacity:1;stroke:#9e9e9e;stroke-linecap:butt;stroke-linejoin:miter;stroke-miterlimit:10;stroke-opacity:0.6;stroke-width:7;" d="M479.458,258.585 C479.526,258.816,479.593,259.048,479.66,259.281"/>
    <path id="Path_197" style="fill:none;opacity:1;stroke:#9e9e9e;stroke-linecap:butt;stroke-linejoin:miter;stroke-miterlimit:10;stroke-opacity:0.6;stroke-width:7;" d="M480.23,261.376 C480.573,262.694,480.886,264.024,481.17,265.365"/>
    <path id="Path_195" style="fill:none;opacity:1;stroke:#9e9e9e;stroke-linecap:butt;stroke-linejoin:miter;stroke-miterlimit:10;stroke-opacity:0.6;stroke-width:7;" d="M481.415,266.562 C481.716,268.087,481.98,269.625,482.204,271.177"/>
    <path id="Path_213" style="fill:none;opacity:1;stroke:#9e9e9e;stroke-linecap:butt;stroke-linejoin:miter;stroke-miterlimit:10;stroke-opacity:0.974723;stroke-width:6;" d="M293.912,269.191 C294.04,268.371,294.178,267.556,294.325,266.743"/>
    <path id="Path_218" style="fill:none;opacity:1;stroke:#9e9e9e;stroke-linecap:butt;stroke-linejoin:miter;stroke-miterlimit:10;stroke-opacity:0.974723;stroke-width:6;" d="M472.631,341.627 C471.893,342.671,471.135,343.701,470.358,344.715"/>
    <path id="Path_204" style="fill:none;opacity:1;stroke:#9e9e9e;stroke-linecap:butt;stroke-linejoin:miter;stroke-miterlimit:10;stroke-opacity:0.974723;stroke-width:6;" d="M457.22,210.312 C457.859,210.876,458.49,211.447,459.113,212.027"/>
    <path id="Path_13" style="fill:none;opacity:1;stroke:#ffffff;stroke-linecap:butt;stroke-linejoin:miter;stroke-miterlimit:10;stroke-opacity:1;stroke-width:2;" d="M475.322,398.979 C456.938,353.559,429.734,315.173,393.331,285.694"/>
    <path id="Path_224" style="fill:none;opacity:1;stroke:#3b4552;stroke-linecap:butt;stroke-linejoin:miter;stroke-miterlimit:10;stroke-opacity:1;stroke-width:2;" d="M458.745,364.151 C452.69,353.273,446.023,342.913,438.738,333.103"/>
    <path id="Path_96" style="fill:none;opacity:1;stroke:#fbed21;stroke-linecap:butt;stroke-linejoin:miter;stroke-miterlimit:10;stroke-opacity:1;stroke-width:8;" d="M441.334,338.975 C440.931,339.325,440.524,339.67,440.114,340.01"/>
    <path id="Path_148" style="fill:none;opacity:1;stroke:#fdbf52;stroke-linecap:butt;stroke-linejoin:miter;stroke-miterlimit:10;stroke-opacity:1;stroke-width:7;" d="M447.767,345.018 C446.564,346.131,445.327,347.21,444.058,348.25"/>
    <path id="Path_190" style="fill:none;opacity:1;stroke:#c4c4c4;stroke-linecap:butt;stroke-linejoin:miter;stroke-miterlimit:10;stroke-opacity:1;stroke-width:7;" d="M453.473,351.537 C452.484,352.44,451.475,353.322,450.446,354.181"/>
    <path id="Path_51" style="fill:none;opacity:1;stroke:#fbed21;stroke-linecap:square;stroke-linejoin:miter;stroke-miterlimit:10;stroke-opacity:1;stroke-width:8;" d="M429.803,222.052 C430.156,222.262,430.508,222.475,430.857,222.692 C431.521,223.102,432.177,223.523,432.826,223.953"/>
    <path id="Path_50" style="fill:none;opacity:1;stroke:#fbed21;stroke-linecap:butt;stroke-linejoin:miter;stroke-miterlimit:10;stroke-opacity:1;stroke-width:8;" d="M425.32,219.591 C423.834,218.842,422.319,218.143,420.777,217.495"/>
    <path id="Path_108" style="fill:none;opacity:1;stroke:#fdbf52;stroke-linecap:butt;stroke-linejoin:miter;stroke-miterlimit:10;stroke-opacity:1;stroke-width:7;" d="M425.792,210.046 C428.196,211.131,430.538,212.329,432.811,213.632"/>
    <path id="Path_109" style="fill:none;opacity:1;stroke:#fdbf52;stroke-linecap:butt;stroke-linejoin:miter;stroke-miterlimit:10;stroke-opacity:1;stroke-width:7;" d="M444.608,221.845 C442.553,220.13,440.413,218.513,438.195,217.002"/>
    <path id="Path_159" style="fill:none;opacity:1;stroke:#c4c4c4;stroke-linecap:butt;stroke-linejoin:miter;stroke-miterlimit:10;stroke-opacity:1;stroke-width:7;" d="M441.585,207.897 C441.687,207.963,441.789,208.029,441.89,208.095 C444.88,210.051,447.748,212.178,450.48,214.462"/>
    <path id="Path_157" style="fill:none;opacity:1;stroke:#c4c4c4;stroke-linecap:butt;stroke-linejoin:miter;stroke-miterlimit:10;stroke-opacity:1;stroke-width:7;" d="M438.545,206.009 C435.997,204.496,433.368,203.104,430.668,201.84"/>
    <path id="Path_207" style="fill:none;opacity:1;stroke:#9e9e9e;stroke-linecap:butt;stroke-linejoin:miter;stroke-miterlimit:10;stroke-opacity:0.974723;stroke-width:6;" d="M447.68,202.871 C450.535,204.83,453.281,206.935,455.909,209.175 C455.961,209.219,456.012,209.263,456.063,209.307"/>
    <path id="Path_208" style="fill:none;opacity:1;stroke:#9e9e9e;stroke-linecap:butt;stroke-linejoin:miter;stroke-miterlimit:10;stroke-opacity:0.974723;stroke-width:6;" d="M433.603,194.821 C436.138,196.006,438.615,197.296,441.028,198.684 C441.945,199.212,442.853,199.753,443.751,200.309 C443.926,200.418,444.101,200.527,444.276,200.637"/>
    <path id="Path_9" style="fill:#11b2f1;fill-opacity:1;fill-rule:nonzero;opacity:1;stroke:#ffffff;stroke-linecap:round;stroke-linejoin:miter;stroke-miterlimit:10;stroke-opacity:1;stroke-width:1;" d="M392.038,285.249 C392.038,285.249,281.947,376.459,281.947,376.459 C281.947,376.459,289.675,384.98,289.675,384.98 C289.675,384.98,392.038,285.249,392.038,285.249 z"/>
    <path id="Path_10" style="fill:#aaaaaa;fill-opacity:1;fill-rule:nonzero;opacity:1;stroke:none;" d="M302.162,409.305"/>
    <path id="Path_11" style="fill:#11b2f1;fill-opacity:1;fill-rule:nonzero;opacity:1;stroke:#ffffff;stroke-linecap:round;stroke-linejoin:miter;stroke-miterlimit:10;stroke-opacity:1;stroke-width:1;" d="M391.916,284.743 C391.916,284.743,311.174,399.595,311.174,399.595 C311.174,399.595,302.518,392.85,302.518,392.85 C302.518,392.85,391.916,284.743,391.916,284.743 z"/>
    <path id="Path_67" style="fill:none;opacity:1;stroke:#fbed21;stroke-linecap:butt;stroke-linejoin:miter;stroke-miterlimit:10;stroke-opacity:1;stroke-width:8;" d="M339.615,335.131 C336.986,332.367,334.571,329.398,332.397,326.25 C332.035,325.725,331.679,325.195,331.33,324.66"/>
    <path id="Path_78" style="fill:none;opacity:1;stroke:#fbed21;stroke-linecap:square;stroke-linejoin:miter;stroke-miterlimit:10;stroke-opacity:1;stroke-width:8;" d="M354.57,347.199 C352.108,345.699,349.743,344.057,347.484,342.284"/>
    <path id="Path_128" style="fill:none;opacity:1;stroke:#fdbf52;stroke-linecap:butt;stroke-linejoin:miter;stroke-miterlimit:10;stroke-opacity:1;stroke-width:7;" d="M331.671,340.265 C329.526,337.928,327.514,335.467,325.649,332.893"/>
    <path id="Path_131" style="fill:none;opacity:1;stroke:#fdbf52;stroke-linecap:butt;stroke-linejoin:miter;stroke-miterlimit:10;stroke-opacity:1;stroke-width:7;" d="M347.118,353.401 C344.409,351.621,341.811,349.685,339.339,347.605"/>
    <path id="Path_172" style="fill:none;opacity:1;stroke:#c4c4c4;stroke-linecap:butt;stroke-linejoin:miter;stroke-miterlimit:10;stroke-opacity:1;stroke-width:7;" d="M325.438,346.205 C323.833,344.477,322.295,342.686,320.827,340.836"/>
    <path id="Path_175" style="fill:none;opacity:1;stroke:#9e9e9e;stroke-linecap:butt;stroke-linejoin:miter;stroke-miterlimit:10;stroke-opacity:0.6;stroke-width:7;" d="M331.644,352.285 C330.314,351.1,329.018,349.876,327.759,348.616"/>
    <path id="Path_178" style="fill:none;opacity:1;stroke:#c4c4c4;stroke-linecap:butt;stroke-linejoin:miter;stroke-miterlimit:10;stroke-opacity:1;stroke-width:7;" d="M343.235,361.06 C339.423,358.625,335.804,355.915,332.407,352.956"/>
    <g id="Group">
      <g id="Text">
        <g id="Text-1">
          <path style="fill:#000000;fill-opacity:1;fill-rule:nonzero;opacity:1;stroke:none;" d="M176.511,440.371 C172.501,440.371,169.315,441.866,166.955,444.855 C164.594,447.845,163.414,451.919,163.414,457.078 C163.414,462.219,164.594,466.284,166.955,469.273 C169.315,472.263,172.501,473.758,176.511,473.758 C180.522,473.758,183.698,472.263,186.041,469.273 C188.383,466.284,189.554,462.219,189.554,457.078 C189.554,451.919,188.383,447.845,186.041,444.855 C183.698,441.866,180.522,440.371,176.511,440.371 z M176.511,435.887 C182.235,435.887,186.811,437.805,190.238,441.642 C193.665,445.48,195.379,450.625,195.379,457.078 C195.379,463.513,193.665,468.649,190.238,472.486 C186.811,476.323,182.235,478.242,176.511,478.242 C170.769,478.242,166.18,476.328,162.744,472.5 C159.308,468.672,157.59,463.531,157.59,457.078 C157.59,450.625,159.308,445.48,162.744,441.642 C166.18,437.805,170.769,435.887,176.511,435.887 z"/>
        </g>
        <g id="Text-2">
          <path style="fill:#000000;fill-opacity:1;fill-rule:nonzero;opacity:1;stroke:none;" d="M208.668,472.855 C208.668,472.855,208.668,489.097,208.668,489.097 C208.668,489.097,203.609,489.097,203.609,489.097 C203.609,489.097,203.609,446.824,203.609,446.824 C203.609,446.824,208.668,446.824,208.668,446.824 C208.668,446.824,208.668,451.472,208.668,451.472 C209.725,449.65,211.06,448.296,212.674,447.412 C214.287,446.528,216.215,446.086,218.457,446.086 C222.175,446.086,225.197,447.562,227.521,450.515 C229.845,453.469,231.008,457.351,231.008,462.164 C231.008,466.976,229.845,470.859,227.521,473.812 C225.197,476.765,222.175,478.242,218.457,478.242 C216.215,478.242,214.287,477.8,212.674,476.916 C211.06,476.032,209.725,474.678,208.668,472.855 z M225.785,462.164 C225.785,458.463,225.024,455.56,223.502,453.455 C221.98,451.349,219.888,450.297,217.226,450.297 C214.565,450.297,212.473,451.349,210.951,453.455 C209.429,455.56,208.668,458.463,208.668,462.164 C208.668,465.864,209.429,468.767,210.951,470.873 C212.473,472.978,214.565,474.031,217.226,474.031 C219.888,474.031,221.98,472.978,223.502,470.873 C225.024,468.767,225.785,465.864,225.785,462.164 z"/>
        </g>
        <g id="Text-3">
          <path style="fill:#000000;fill-opacity:1;fill-rule:nonzero;opacity:1;stroke:none;" d="M265.543,460.879 C265.543,460.879,265.543,463.34,265.543,463.34 C265.543,463.34,242.41,463.34,242.41,463.34 C242.629,466.803,243.672,469.442,245.541,471.256 C247.409,473.069,250.011,473.976,253.347,473.976 C255.28,473.976,257.153,473.739,258.966,473.265 C260.78,472.791,262.58,472.081,264.367,471.133 C264.367,471.133,264.367,475.89,264.367,475.89 C262.562,476.656,260.712,477.239,258.816,477.64 C256.92,478.041,254.997,478.242,253.047,478.242 C248.161,478.242,244.292,476.82,241.439,473.976 C238.586,471.133,237.16,467.286,237.16,462.437 C237.16,457.424,238.513,453.446,241.22,450.502 C243.927,447.558,247.578,446.086,252.172,446.086 C256.291,446.086,259.55,447.412,261.947,450.064 C264.344,452.717,265.543,456.321,265.543,460.879 z M260.511,459.402 C260.475,456.65,259.705,454.453,258.201,452.812 C256.697,451.172,254.705,450.351,252.226,450.351 C249.419,450.351,247.172,451.144,245.486,452.73 C243.8,454.316,242.829,456.549,242.574,459.43 C242.574,459.43,260.511,459.402,260.511,459.402 z"/>
        </g>
        <g id="Text-4">
          <path style="fill:#000000;fill-opacity:1;fill-rule:nonzero;opacity:1;stroke:none;" d="M299.258,458.965 C299.258,458.965,299.258,477.449,299.258,477.449 C299.258,477.449,294.226,477.449,294.226,477.449 C294.226,477.449,294.226,459.129,294.226,459.129 C294.226,456.23,293.661,454.061,292.531,452.621 C291.401,451.181,289.705,450.461,287.445,450.461 C284.729,450.461,282.587,451.327,281.019,453.058 C279.452,454.79,278.668,457.151,278.668,460.14 C278.668,460.14,278.668,477.449,278.668,477.449 C278.668,477.449,273.609,477.449,273.609,477.449 C273.609,477.449,273.609,446.824,273.609,446.824 C273.609,446.824,278.668,446.824,278.668,446.824 C278.668,446.824,278.668,451.582,278.668,451.582 C279.871,449.741,281.288,448.364,282.92,447.453 C284.551,446.541,286.433,446.086,288.566,446.086 C292.084,446.086,294.746,447.175,296.55,449.353 C298.355,451.532,299.258,454.736,299.258,458.965 z"/>
        </g>
        <g id="Text-5">
          <path style="fill:#000000;fill-opacity:1;fill-rule:nonzero;opacity:1;stroke:none;" d="M315.035,441.164 C315.035,441.164,315.035,472.91,315.035,472.91 C315.035,472.91,321.707,472.91,321.707,472.91 C327.34,472.91,331.464,471.634,334.08,469.082 C336.696,466.53,338.004,462.501,338.004,456.996 C338.004,451.527,336.696,447.521,334.08,444.978 C331.464,442.435,327.34,441.164,321.707,441.164 C321.707,441.164,315.035,441.164,315.035,441.164 z M309.511,436.625 C309.511,436.625,320.859,436.625,320.859,436.625 C328.771,436.625,334.577,438.27,338.277,441.56 C341.978,444.851,343.828,449.996,343.828,456.996 C343.828,464.032,341.968,469.2,338.25,472.5 C334.531,475.799,328.734,477.449,320.859,477.449 C320.859,477.449,309.511,477.449,309.511,477.449 C309.511,477.449,309.511,436.625,309.511,436.625 z"/>
        </g>
        <g id="Text-6">
          <path style="fill:#000000;fill-opacity:1;fill-rule:nonzero;opacity:1;stroke:none;" d="M366.332,462.055 C362.267,462.055,359.45,462.519,357.883,463.449 C356.315,464.379,355.531,465.965,355.531,468.207 C355.531,469.993,356.119,471.411,357.295,472.459 C358.47,473.507,360.07,474.031,362.093,474.031 C364.883,474.031,367.12,473.042,368.806,471.064 C370.493,469.086,371.336,466.457,371.336,463.176 C371.336,463.176,371.336,462.055,371.336,462.055 C371.336,462.055,366.332,462.055,366.332,462.055 z M376.367,459.976 C376.367,459.976,376.367,477.449,376.367,477.449 C376.367,477.449,371.336,477.449,371.336,477.449 C371.336,477.449,371.336,472.801,371.336,472.801 C370.187,474.66,368.756,476.032,367.043,476.916 C365.329,477.8,363.233,478.242,360.754,478.242 C357.618,478.242,355.125,477.362,353.275,475.603 C351.425,473.844,350.5,471.488,350.5,468.535 C350.5,465.09,351.653,462.492,353.959,460.742 C356.265,458.992,359.705,458.117,364.281,458.117 C364.281,458.117,371.336,458.117,371.336,458.117 C371.336,458.117,371.336,457.625,371.336,457.625 C371.336,455.31,370.575,453.519,369.052,452.252 C367.53,450.985,365.393,450.351,362.64,450.351 C360.89,450.351,359.186,450.561,357.527,450.98 C355.868,451.4,354.273,452.028,352.742,452.867 C352.742,452.867,352.742,448.219,352.742,448.219 C354.583,447.508,356.37,446.974,358.101,446.619 C359.833,446.263,361.519,446.086,363.16,446.086 C367.59,446.086,370.898,447.234,373.086,449.531 C375.273,451.828,376.367,455.31,376.367,459.976 z"/>
        </g>
        <g id="Text-7">
          <path style="fill:#000000;fill-opacity:1;fill-rule:nonzero;opacity:1;stroke:none;" d="M391.707,438.129 C391.707,438.129,391.707,446.824,391.707,446.824 C391.707,446.824,402.07,446.824,402.07,446.824 C402.07,446.824,402.07,450.734,402.07,450.734 C402.07,450.734,391.707,450.734,391.707,450.734 C391.707,450.734,391.707,467.359,391.707,467.359 C391.707,469.857,392.049,471.461,392.732,472.172 C393.416,472.883,394.806,473.238,396.902,473.238 C396.902,473.238,402.07,473.238,402.07,473.238 C402.07,473.238,402.07,477.449,402.07,477.449 C402.07,477.449,396.902,477.449,396.902,477.449 C393.019,477.449,390.34,476.724,388.863,475.275 C387.386,473.826,386.648,471.187,386.648,467.359 C386.648,467.359,386.648,450.734,386.648,450.734 C386.648,450.734,382.957,450.734,382.957,450.734 C382.957,450.734,382.957,446.824,382.957,446.824 C382.957,446.824,386.648,446.824,386.648,446.824 C386.648,446.824,386.648,438.129,386.648,438.129 C386.648,438.129,391.707,438.129,391.707,438.129 z"/>
        </g>
        <g id="Text-8">
          <path style="fill:#000000;fill-opacity:1;fill-rule:nonzero;opacity:1;stroke:none;" d="M422.605,462.055 C418.54,462.055,415.724,462.519,414.156,463.449 C412.588,464.379,411.804,465.965,411.804,468.207 C411.804,469.993,412.392,471.411,413.568,472.459 C414.744,473.507,416.343,474.031,418.367,474.031 C421.156,474.031,423.394,473.042,425.08,471.064 C426.766,469.086,427.609,466.457,427.609,463.176 C427.609,463.176,427.609,462.055,427.609,462.055 C427.609,462.055,422.605,462.055,422.605,462.055 z M432.64,459.976 C432.64,459.976,432.64,477.449,432.64,477.449 C432.64,477.449,427.609,477.449,427.609,477.449 C427.609,477.449,427.609,472.801,427.609,472.801 C426.461,474.66,425.03,476.032,423.316,476.916 C421.603,477.8,419.506,478.242,417.027,478.242 C413.892,478.242,411.399,477.362,409.549,475.603 C407.698,473.844,406.773,471.488,406.773,468.535 C406.773,465.09,407.926,462.492,410.232,460.742 C412.538,458.992,415.979,458.117,420.554,458.117 C420.554,458.117,427.609,458.117,427.609,458.117 C427.609,458.117,427.609,457.625,427.609,457.625 C427.609,455.31,426.848,453.519,425.326,452.252 C423.804,450.985,421.666,450.351,418.914,450.351 C417.164,450.351,415.459,450.561,413.8,450.98 C412.142,451.4,410.547,452.028,409.015,452.867 C409.015,452.867,409.015,448.219,409.015,448.219 C410.856,447.508,412.643,446.974,414.375,446.619 C416.106,446.263,417.793,446.086,419.433,446.086 C423.863,446.086,427.172,447.234,429.359,449.531 C431.547,451.828,432.64,455.31,432.64,459.976 z"/>
        </g>
        <g id="Text-9">
          <path style="fill:#000000;fill-opacity:1;fill-rule:nonzero;opacity:1;stroke:none;" d="M448.746,441.164 C448.746,441.164,448.746,472.91,448.746,472.91 C448.746,472.91,455.418,472.91,455.418,472.91 C461.05,472.91,465.175,471.634,467.791,469.082 C470.407,466.53,471.715,462.501,471.715,456.996 C471.715,451.527,470.407,447.521,467.791,444.978 C465.175,442.435,461.05,441.164,455.418,441.164 C455.418,441.164,448.746,441.164,448.746,441.164 z M443.222,436.625 C443.222,436.625,454.57,436.625,454.57,436.625 C462.481,436.625,468.287,438.27,471.988,441.56 C475.689,444.851,477.539,449.996,477.539,456.996 C477.539,464.032,475.679,469.2,471.961,472.5 C468.242,475.799,462.445,477.449,454.57,477.449 C454.57,477.449,443.222,477.449,443.222,477.449 C443.222,477.449,443.222,436.625,443.222,436.625 z"/>
        </g>
        <g id="Text-10">
          <path style="fill:#000000;fill-opacity:1;fill-rule:nonzero;opacity:1;stroke:none;" d="M512.32,460.879 C512.32,460.879,512.32,463.34,512.32,463.34 C512.32,463.34,489.187,463.34,489.187,463.34 C489.406,466.803,490.45,469.442,492.318,471.256 C494.187,473.069,496.789,473.976,500.125,473.976 C502.057,473.976,503.93,473.739,505.744,473.265 C507.558,472.791,509.358,472.081,511.144,471.133 C511.144,471.133,511.144,475.89,511.144,475.89 C509.34,476.656,507.489,477.239,505.593,477.64 C503.698,478.041,501.774,478.242,499.824,478.242 C494.939,478.242,491.069,476.82,488.216,473.976 C485.364,471.133,483.937,467.286,483.937,462.437 C483.937,457.424,485.291,453.446,487.998,450.502 C490.705,447.558,494.355,446.086,498.949,446.086 C503.069,446.086,506.327,447.412,508.724,450.064 C511.121,452.717,512.32,456.321,512.32,460.879 z M507.289,459.402 C507.252,456.65,506.482,454.453,504.978,452.812 C503.474,451.172,501.483,450.351,499.004,450.351 C496.196,450.351,493.95,451.144,492.263,452.73 C490.577,454.316,489.606,456.549,489.351,459.43 C489.351,459.43,507.289,459.402,507.289,459.402 z"/>
        </g>
        <g id="Text-11">
          <path style="fill:#000000;fill-opacity:1;fill-rule:nonzero;opacity:1;stroke:none;" d="M525.554,438.129 C525.554,438.129,525.554,446.824,525.554,446.824 C525.554,446.824,535.918,446.824,535.918,446.824 C535.918,446.824,535.918,450.734,535.918,450.734 C535.918,450.734,525.554,450.734,525.554,450.734 C525.554,450.734,525.554,467.359,525.554,467.359 C525.554,469.857,525.896,471.461,526.58,472.172 C527.263,472.883,528.653,473.238,530.75,473.238 C530.75,473.238,535.918,473.238,535.918,473.238 C535.918,473.238,535.918,477.449,535.918,477.449 C535.918,477.449,530.75,477.449,530.75,477.449 C526.867,477.449,524.187,476.724,522.711,475.275 C521.234,473.826,520.496,471.187,520.496,467.359 C520.496,467.359,520.496,450.734,520.496,450.734 C520.496,450.734,516.804,450.734,516.804,450.734 C516.804,450.734,516.804,446.824,516.804,446.824 C516.804,446.824,520.496,446.824,520.496,446.824 C520.496,446.824,520.496,438.129,520.496,438.129 C520.496,438.129,525.554,438.129,525.554,438.129 z"/>
        </g>
        <g id="Text-12">
          <path style="fill:#000000;fill-opacity:1;fill-rule:nonzero;opacity:1;stroke:none;" d="M568.73,460.879 C568.73,460.879,568.73,463.34,568.73,463.34 C568.73,463.34,545.597,463.34,545.597,463.34 C545.816,466.803,546.86,469.442,548.728,471.256 C550.597,473.069,553.199,473.976,556.535,473.976 C558.467,473.976,560.34,473.739,562.154,473.265 C563.968,472.791,565.768,472.081,567.554,471.133 C567.554,471.133,567.554,475.89,567.554,475.89 C565.75,476.656,563.899,477.239,562.004,477.64 C560.108,478.041,558.185,478.242,556.234,478.242 C551.349,478.242,547.479,476.82,544.627,473.976 C541.774,471.133,540.347,467.286,540.347,462.437 C540.347,457.424,541.701,453.446,544.408,450.502 C547.115,447.558,550.765,446.086,555.359,446.086 C559.479,446.086,562.737,447.412,565.134,450.064 C567.532,452.717,568.73,456.321,568.73,460.879 z M563.699,459.402 C563.662,456.65,562.892,454.453,561.388,452.812 C559.884,451.172,557.893,450.351,555.414,450.351 C552.606,450.351,550.36,451.144,548.674,452.73 C546.987,454.316,546.017,456.549,545.761,459.43 C545.761,459.43,563.699,459.402,563.699,459.402 z"/>
        </g>
        <g id="Text-13">
          <path style="fill:#000000;fill-opacity:1;fill-rule:nonzero;opacity:1;stroke:none;" d="M599.027,448 C599.027,448,599.027,452.703,599.027,452.703 C597.605,451.919,596.179,451.331,594.748,450.939 C593.317,450.547,591.872,450.351,590.414,450.351 C587.151,450.351,584.617,451.386,582.812,453.455 C581.008,455.524,580.105,458.427,580.105,462.164 C580.105,465.901,581.008,468.804,582.812,470.873 C584.617,472.942,587.151,473.976,590.414,473.976 C591.872,473.976,593.317,473.78,594.748,473.388 C596.179,472.997,597.605,472.409,599.027,471.625 C599.027,471.625,599.027,476.273,599.027,476.273 C597.623,476.93,596.17,477.422,594.666,477.75 C593.162,478.078,591.562,478.242,589.867,478.242 C585.255,478.242,581.591,476.793,578.875,473.894 C576.159,470.996,574.8,467.086,574.8,462.164 C574.8,457.169,576.172,453.241,578.916,450.379 C581.659,447.517,585.419,446.086,590.195,446.086 C591.744,446.086,593.258,446.245,594.734,446.564 C596.211,446.883,597.642,447.362,599.027,448 z"/>
        </g>
        <g id="Text-14">
          <path style="fill:#000000;fill-opacity:1;fill-rule:nonzero;opacity:1;stroke:none;" d="M612.754,438.129 C612.754,438.129,612.754,446.824,612.754,446.824 C612.754,446.824,623.117,446.824,623.117,446.824 C623.117,446.824,623.117,450.734,623.117,450.734 C623.117,450.734,612.754,450.734,612.754,450.734 C612.754,450.734,612.754,467.359,612.754,467.359 C612.754,469.857,613.095,471.461,613.779,472.172 C614.463,472.883,615.853,473.238,617.949,473.238 C617.949,473.238,623.117,473.238,623.117,473.238 C623.117,473.238,623.117,477.449,623.117,477.449 C623.117,477.449,617.949,477.449,617.949,477.449 C614.066,477.449,611.386,476.724,609.91,475.275 C608.433,473.826,607.695,471.187,607.695,467.359 C607.695,467.359,607.695,450.734,607.695,450.734 C607.695,450.734,604.004,450.734,604.004,450.734 C604.004,450.734,604.004,446.824,604.004,446.824 C604.004,446.824,607.695,446.824,607.695,446.824 C607.695,446.824,607.695,438.129,607.695,438.129 C607.695,438.129,612.754,438.129,612.754,438.129 z"/>
        </g>
        <g id="Text-15">
          <path style="fill:#000000;fill-opacity:1;fill-rule:nonzero;opacity:1;stroke:none;" d="M641.601,450.351 C638.903,450.351,636.771,451.404,635.203,453.51 C633.635,455.615,632.851,458.5,632.851,462.164 C632.851,465.828,633.631,468.713,635.189,470.818 C636.748,472.924,638.885,473.976,641.601,473.976 C644.281,473.976,646.405,472.919,647.972,470.805 C649.54,468.69,650.324,465.81,650.324,462.164 C650.324,458.536,649.54,455.661,647.972,453.537 C646.405,451.413,644.281,450.351,641.601,450.351 z M641.601,446.086 C645.976,446.086,649.412,447.508,651.91,450.351 C654.407,453.195,655.656,457.133,655.656,462.164 C655.656,467.177,654.407,471.11,651.91,473.963 C649.412,476.816,645.976,478.242,641.601,478.242 C637.208,478.242,633.767,476.816,631.279,473.963 C628.791,471.11,627.547,467.177,627.547,462.164 C627.547,457.133,628.791,453.195,631.279,450.351 C633.767,447.508,637.208,446.086,641.601,446.086 z"/>
        </g>
        <g id="Text-16">
          <path style="fill:#000000;fill-opacity:1;fill-rule:nonzero;opacity:1;stroke:none;" d="M681.742,451.527 C681.177,451.199,680.562,450.957,679.896,450.803 C679.231,450.648,678.497,450.57,677.695,450.57 C674.851,450.57,672.668,451.495,671.146,453.346 C669.624,455.196,668.863,457.853,668.863,461.316 C668.863,461.316,668.863,477.449,668.863,477.449 C668.863,477.449,663.804,477.449,663.804,477.449 C663.804,477.449,663.804,446.824,663.804,446.824 C663.804,446.824,668.863,446.824,668.863,446.824 C668.863,446.824,668.863,451.582,668.863,451.582 C669.92,449.722,671.297,448.342,672.992,447.439 C674.687,446.537,676.747,446.086,679.172,446.086 C679.518,446.086,679.901,446.109,680.32,446.154 C680.739,446.2,681.204,446.268,681.715,446.359 C681.715,446.359,681.742,451.527,681.742,451.527 z"/>
        </g>
      </g>
    </g>
  </g>
</svg>
