<?xml version="1.0" encoding="utf-8"?>
<svg x="0px" y="0px" width="800px" height="200px" viewBox="0 0 800 200" xmlns="http://www.w3.org/2000/svg" xmlns:xlink="http://www.w3.org/1999/xlink">
  <!--Generated by AMDN-->
  <g id="Layer_1">
    <path id="Path" style="fill:#ee257b;fill-opacity:1;fill-rule:evenodd;opacity:1;stroke:none;" d="M112.135,14.5876 C158.387,14.5876,195.882,52.0825,195.882,98.3348 C195.882,144.587,158.387,182.082,112.135,182.082 C65.8822,182.082,28.3873,144.587,28.3873,98.3348 C28.3873,52.0825,65.8822,14.5876,112.135,14.5876 z"/>
    <g id="Text">
      <g id="Text-1">
        <path style="fill:#000000;fill-opacity:1;fill-rule:nonzero;opacity:1;stroke:none;" d="M237.11,126.767 C238.333,126.767,239.467,126.582,240.512,126.211 C241.556,125.84,242.458,125.343,243.219,124.719 C243.98,124.096,244.569,123.376,244.987,122.56 C245.405,121.744,245.614,120.906,245.614,120.045 C245.614,118.65,245.263,117.433,244.562,116.395 C243.861,115.356,242.936,114.428,241.787,113.612 C240.638,112.796,239.333,112.047,237.871,111.364 C236.409,110.681,234.917,109.977,233.395,109.249 C231.874,108.522,230.382,107.751,228.92,106.934 C227.458,106.118,226.152,105.161,225.004,104.063 C223.855,102.965,222.93,101.696,222.229,100.257 C221.528,98.8173,221.177,97.1331,221.177,95.2039 C221.177,93.3936,221.565,91.7093,222.341,90.1512 C223.117,88.593,224.198,87.2501,225.586,86.1223 C226.973,84.9945,228.621,84.1115,230.531,83.4734 C232.441,82.8354,234.529,82.5163,236.797,82.5163 C238.319,82.5163,239.736,82.6202,241.049,82.8279 C242.361,83.0357,243.652,83.4363,244.92,84.0299 C246.188,84.6235,247.449,85.4768,248.702,86.5897 C249.955,87.7027,251.283,89.1495,252.685,90.9302 C252.685,90.9302,249.328,93.9129,249.328,93.9129 C247.598,91.0935,245.666,88.9937,243.533,87.6136 C241.399,86.2336,239.124,85.5435,236.707,85.5435 C235.394,85.5435,234.201,85.6993,233.127,86.011 C232.053,86.3226,231.135,86.7529,230.374,87.302 C229.614,87.8511,229.017,88.4966,228.584,89.2385 C228.152,89.9805,227.935,90.767,227.935,91.598 C227.935,92.9632,228.316,94.1504,229.076,95.1594 C229.837,96.1685,230.844,97.0811,232.097,97.8973 C233.351,98.7135,234.775,99.4628,236.372,100.145 C237.968,100.828,239.594,101.526,241.25,102.238 C242.906,102.95,244.532,103.722,246.128,104.553 C247.725,105.384,249.149,106.341,250.403,107.424 C251.656,108.507,252.663,109.761,253.424,111.186 C254.184,112.611,254.565,114.273,254.565,116.172 C254.565,118.101,254.207,119.904,253.491,121.581 C252.775,123.258,251.693,124.712,250.246,125.944 C248.799,127.175,246.986,128.147,244.808,128.86 C242.63,129.572,240.064,129.928,237.11,129.928 C235.767,129.928,234.387,129.824,232.97,129.616 C231.553,129.409,230.128,129.001,228.696,128.392 C227.264,127.784,225.832,126.93,224.4,125.832 C222.967,124.734,221.565,123.295,220.193,121.514 C220.193,121.514,223.907,118.175,223.907,118.175 C225.011,119.719,226.07,121.032,227.085,122.115 C228.099,123.198,229.136,124.089,230.195,124.786 C231.255,125.484,232.344,125.988,233.463,126.3 C234.581,126.611,235.797,126.767,237.11,126.767 z"/>
      </g>
      <g id="Text-2">
        <path style="fill:#000000;fill-opacity:1;fill-rule:nonzero;opacity:1;stroke:none;" d="M276.585,83.3622 C276.585,83.3622,276.585,115.816,276.585,115.816 C276.585,116.944,276.846,118.012,277.368,119.021 C277.89,120.03,278.613,120.906,279.538,121.648 C280.463,122.39,281.53,122.976,282.738,123.406 C283.947,123.836,285.252,124.052,286.655,124.052 C287.55,124.052,288.512,123.859,289.541,123.473 C290.571,123.087,291.578,122.56,292.562,121.893 C293.547,121.225,294.464,120.438,295.315,119.533 C296.165,118.628,296.889,117.671,297.485,116.662 C297.485,116.662,297.485,83.3622,297.485,83.3622 C297.485,83.3622,306.526,83.3622,306.526,83.3622 C306.526,83.3622,306.526,128.949,306.526,128.949 C306.526,128.949,297.485,128.949,297.485,128.949 C297.485,128.949,297.485,120.401,297.485,120.401 C296.68,121.707,295.673,122.939,294.464,124.096 C293.256,125.254,291.951,126.263,290.548,127.123 C289.146,127.984,287.699,128.667,286.207,129.171 C284.715,129.676,283.298,129.928,281.955,129.928 C279.956,129.928,278.076,129.557,276.316,128.815 C274.556,128.073,273.019,127.064,271.706,125.788 C270.393,124.512,269.356,123.013,268.596,121.292 C267.835,119.57,267.454,117.745,267.454,115.816 C267.454,115.816,267.454,83.3622,267.454,83.3622 C267.454,83.3622,276.585,83.3622,276.585,83.3622 z"/>
      </g>
      <g id="Text-3">
        <path style="fill:#000000;fill-opacity:1;fill-rule:nonzero;opacity:1;stroke:none;" d="M329.172,82.5163 C329.172,82.5163,331.768,82.5163,331.768,82.5163 C331.768,82.5163,331.768,92.7555,331.768,92.7555 C332.693,91.598,333.715,90.4108,334.834,89.194 C335.953,87.9772,337.191,86.8717,338.549,85.8774 C339.906,84.8832,341.405,84.0744,343.047,83.4512 C344.688,82.8279,346.478,82.5163,348.417,82.5163 C351.132,82.5163,353.594,83.0802,355.802,84.208 C358.01,85.3358,359.897,86.8642,361.463,88.7934 C363.03,90.7225,364.238,92.9855,365.089,95.5824 C365.939,98.1792,366.364,100.947,366.364,103.885 C366.364,107.654,365.842,111.134,364.798,114.324 C363.753,117.515,362.262,120.268,360.322,122.583 C358.383,124.897,356.026,126.7,353.251,127.991 C350.476,129.283,347.373,129.928,343.942,129.928 C342.688,129.928,341.517,129.861,340.428,129.728 C339.339,129.594,338.31,129.394,337.34,129.127 C336.37,128.86,335.431,128.518,334.521,128.103 C333.611,127.687,332.693,127.183,331.768,126.589 C331.768,126.589,331.768,148.136,331.768,148.136 C331.768,148.136,322.638,148.136,322.638,148.136 C322.638,148.136,322.638,85.0538,322.638,85.0538 C322.638,85.0538,329.172,82.5163,329.172,82.5163 z M331.768,116.662 C331.768,118.027,332.066,119.31,332.663,120.512 C333.26,121.714,334.095,122.768,335.17,123.673 C336.244,124.578,337.527,125.291,339.019,125.81 C340.51,126.329,342.151,126.589,343.942,126.589 C345.642,126.589,347.246,126.159,348.753,125.298 C350.26,124.437,351.572,123.213,352.691,121.625 C353.81,120.038,354.69,118.146,355.332,115.949 C355.973,113.753,356.294,111.319,356.294,108.648 C356.294,105.295,355.996,102.364,355.399,99.8561 C354.802,97.3482,353.974,95.2633,352.915,93.6013 C351.856,91.9393,350.603,90.6928,349.156,89.8618 C347.709,89.0308,346.12,88.6153,344.389,88.6153 C343.076,88.6153,341.816,88.8156,340.607,89.2163 C339.399,89.6169,338.258,90.1586,337.184,90.8412 C336.109,91.5238,335.117,92.3103,334.207,93.2006 C333.297,94.091,332.484,95.0259,331.768,96.0053 C331.768,96.0053,331.768,116.662,331.768,116.662 z"/>
      </g>
      <g id="Text-4">
        <path style="fill:#000000;fill-opacity:1;fill-rule:nonzero;opacity:1;stroke:none;" d="M398.767,129.928 C395.664,129.928,392.748,129.349,390.017,128.192 C387.287,127.034,384.908,125.461,382.879,123.473 C380.85,121.484,379.246,119.147,378.068,116.461 C376.889,113.775,376.3,110.919,376.3,107.892 C376.3,104.241,376.837,100.865,377.911,97.7637 C378.985,94.6623,380.507,91.9838,382.476,89.7282 C384.445,87.4726,386.81,85.7068,389.57,84.4306 C392.33,83.1544,395.411,82.5163,398.812,82.5163 C401.796,82.5163,404.541,83.0431,407.047,84.0967 C409.553,85.1503,411.709,86.56,413.514,88.3259 C415.319,90.0918,416.722,92.1322,417.721,94.4471 C418.721,96.7621,419.22,99.1809,419.22,101.704 C419.22,101.704,385.072,101.704,385.072,101.704 C385.072,104.76,385.467,107.595,386.258,110.207 C387.049,112.818,388.16,115.074,389.592,116.973 C391.024,118.873,392.725,120.357,394.694,121.425 C396.664,122.494,398.827,123.028,401.184,123.028 C403.153,123.028,405.048,122.709,406.868,122.071 C408.688,121.432,410.337,120.594,411.813,119.555 C413.29,118.517,414.551,117.329,415.595,115.994 C416.64,114.658,417.371,113.278,417.788,111.854 C417.788,111.854,420.429,113.011,420.429,113.011 C419.772,115.356,418.713,117.552,417.251,119.6 C415.789,121.648,414.081,123.436,412.127,124.964 C410.172,126.493,408.047,127.702,405.749,128.592 C403.452,129.483,401.124,129.928,398.767,129.928 z M407.808,98.0531 C407.808,96.3317,407.502,94.7291,406.89,93.2452 C406.279,91.7612,405.436,90.4776,404.362,89.3943 C403.288,88.3111,402.034,87.4578,400.602,86.8346 C399.17,86.2113,397.633,85.8997,395.992,85.8997 C394.62,85.8997,393.307,86.2039,392.054,86.8123 C390.801,87.4207,389.682,88.2666,388.697,89.3498 C387.713,90.4331,386.9,91.7167,386.258,93.2006 C385.617,94.6846,385.236,96.2872,385.117,98.0086 C385.117,98.0086,407.808,98.0531,407.808,98.0531 z"/>
      </g>
      <g id="Text-5">
        <path style="fill:#000000;fill-opacity:1;fill-rule:nonzero;opacity:1;stroke:none;" d="M439.853,82.5163 C439.853,82.5163,441.24,82.5163,441.24,82.5163 C441.24,82.5163,442.449,91.8206,442.449,91.8206 C443.165,90.4554,444.06,89.2089,445.134,88.0811 C446.208,86.9533,447.394,85.9739,448.692,85.1429 C449.99,84.3119,451.362,83.6664,452.81,83.2063 C454.257,82.7463,455.726,82.5163,457.218,82.5163 C458.561,82.5163,459.881,82.6944,461.179,83.0505 C462.477,83.4067,463.693,83.9706,464.826,84.7422 C464.826,84.7422,461.962,92.3548,461.962,92.3548 C461.365,91.7019,460.739,91.1751,460.082,90.7744 C459.426,90.3737,458.755,90.0621,458.068,89.8395 C457.382,89.6169,456.681,89.476,455.965,89.4166 C455.249,89.3572,454.533,89.3276,453.817,89.3276 C452.683,89.3276,451.571,89.4908,450.482,89.8173 C449.393,90.1437,448.356,90.626,447.372,91.2641 C446.387,91.9022,445.477,92.7184,444.642,93.7126 C443.806,94.7068,443.075,95.8717,442.449,97.2073 C442.449,97.2073,442.449,128.949,442.449,128.949 C442.449,128.949,433.363,128.949,433.363,128.949 C433.363,128.949,433.363,85.0093,433.363,85.0093 C433.363,85.0093,439.853,82.5163,439.853,82.5163 z"/>
      </g>
      <g id="Text-6">
        <path style="fill:#000000;fill-opacity:1;fill-rule:nonzero;opacity:1;stroke:none;" d="M523.188,124.541 C522.143,125.372,521.01,126.122,519.786,126.79 C518.563,127.457,517.287,128.021,515.96,128.481 C514.632,128.941,513.297,129.297,511.954,129.55 C510.611,129.802,509.299,129.928,508.016,129.928 C505.33,129.928,502.816,129.305,500.474,128.058 C498.132,126.812,496.088,125.135,494.343,123.028 C492.597,120.921,491.217,118.465,490.203,115.66 C489.188,112.855,488.681,109.895,488.681,106.779 C488.681,103.692,489.315,100.695,490.583,97.786 C491.851,94.8775,493.574,92.288,495.753,90.0176 C497.931,87.7472,500.474,85.9294,503.383,84.5641 C506.292,83.1989,509.403,82.5163,512.715,82.5163 C514.953,82.5163,516.9,82.9021,518.555,83.6738 C520.211,84.4454,521.755,85.4693,523.188,86.7455 C523.188,86.7455,523.188,62.7058,523.188,62.7058 C523.188,62.7058,529.588,60.1237,529.588,60.1237 C529.588,60.1237,532.228,60.1237,532.228,60.1237 C532.228,60.1237,532.228,128.949,532.228,128.949 C532.228,128.949,523.188,128.949,523.188,128.949 C523.188,128.949,523.188,124.541,523.188,124.541 z M523.188,97.875 C523.188,96.0943,522.852,94.4694,522.181,93.0003 C521.509,91.5312,520.637,90.2699,519.562,89.2163 C518.488,88.1627,517.272,87.3465,515.915,86.7678 C514.557,86.189,513.192,85.8997,511.82,85.8997 C510,85.8997,508.299,86.3449,506.718,87.2352 C505.136,88.1256,503.756,89.3795,502.578,90.997 C501.399,92.6145,500.467,94.5436,499.781,96.7843 C499.094,99.0251,498.751,101.496,498.751,104.197 C498.751,107.105,499.124,109.821,499.87,112.343 C500.616,114.866,501.638,117.07,502.936,118.954 C504.234,120.839,505.755,122.323,507.501,123.406 C509.246,124.489,511.119,125.031,513.118,125.031 C514.072,125.031,515.035,124.905,516.004,124.653 C516.974,124.4,517.892,124.059,518.757,123.629 C519.622,123.198,520.435,122.701,521.196,122.137 C521.957,121.573,522.621,120.98,523.188,120.357 C523.188,120.357,523.188,97.875,523.188,97.875 z"/>
      </g>
      <g id="Text-7">
        <path style="fill:#000000;fill-opacity:1;fill-rule:nonzero;opacity:1;stroke:none;" d="M557.381,83.3622 C557.381,83.3622,557.381,115.816,557.381,115.816 C557.381,116.944,557.642,118.012,558.164,119.021 C558.686,120.03,559.41,120.906,560.335,121.648 C561.26,122.39,562.326,122.976,563.535,123.406 C564.743,123.836,566.049,124.052,567.451,124.052 C568.346,124.052,569.308,123.859,570.338,123.473 C571.367,123.087,572.374,122.56,573.359,121.893 C574.343,121.225,575.261,120.438,576.111,119.533 C576.961,118.628,577.685,117.671,578.282,116.662 C578.282,116.662,578.282,83.3622,578.282,83.3622 C578.282,83.3622,587.322,83.3622,587.322,83.3622 C587.322,83.3622,587.322,128.949,587.322,128.949 C587.322,128.949,578.282,128.949,578.282,128.949 C578.282,128.949,578.282,120.401,578.282,120.401 C577.476,121.707,576.469,122.939,575.261,124.096 C574.052,125.254,572.747,126.263,571.345,127.123 C569.942,127.984,568.495,128.667,567.003,129.171 C565.511,129.676,564.094,129.928,562.752,129.928 C560.753,129.928,558.873,129.557,557.112,128.815 C555.352,128.073,553.815,127.064,552.503,125.788 C551.19,124.512,550.153,123.013,549.392,121.292 C548.631,119.57,548.251,117.745,548.251,115.816 C548.251,115.816,548.251,83.3622,548.251,83.3622 C548.251,83.3622,557.381,83.3622,557.381,83.3622 z"/>
      </g>
      <g id="Text-8">
        <path style="fill:#000000;fill-opacity:1;fill-rule:nonzero;opacity:1;stroke:none;" d="M609.969,82.5163 C609.969,82.5163,612.565,82.5163,612.565,82.5163 C612.565,82.5163,612.565,92.7555,612.565,92.7555 C613.489,91.598,614.511,90.4108,615.63,89.194 C616.749,87.9772,617.987,86.8717,619.345,85.8774 C620.703,84.8832,622.202,84.0744,623.843,83.4512 C625.484,82.8279,627.274,82.5163,629.214,82.5163 C631.929,82.5163,634.39,83.0802,636.598,84.208 C638.806,85.3358,640.693,86.8642,642.26,88.7934 C643.826,90.7225,645.035,92.9855,645.885,95.5824 C646.735,98.1792,647.161,100.947,647.161,103.885 C647.161,107.654,646.638,111.134,645.594,114.324 C644.55,117.515,643.058,120.268,641.119,122.583 C639.179,124.897,636.822,126.7,634.047,127.991 C631.272,129.283,628.169,129.928,624.738,129.928 C623.485,129.928,622.314,129.861,621.225,129.728 C620.136,129.594,619.106,129.394,618.137,129.127 C617.167,128.86,616.227,128.518,615.317,128.103 C614.407,127.687,613.489,127.183,612.565,126.589 C612.565,126.589,612.565,148.136,612.565,148.136 C612.565,148.136,603.434,148.136,603.434,148.136 C603.434,148.136,603.434,85.0538,603.434,85.0538 C603.434,85.0538,609.969,82.5163,609.969,82.5163 z M612.565,116.662 C612.565,118.027,612.863,119.31,613.46,120.512 C614.056,121.714,614.892,122.768,615.966,123.673 C617.04,124.578,618.323,125.291,619.815,125.81 C621.307,126.329,622.948,126.589,624.738,126.589 C626.439,126.589,628.042,126.159,629.549,125.298 C631.056,124.437,632.369,123.213,633.488,121.625 C634.607,120.038,635.487,118.146,636.128,115.949 C636.77,113.753,637.091,111.319,637.091,108.648 C637.091,105.295,636.792,102.364,636.195,99.8561 C635.599,97.3482,634.771,95.2633,633.711,93.6013 C632.652,91.9393,631.399,90.6928,629.952,89.8618 C628.505,89.0308,626.916,88.6153,625.186,88.6153 C623.873,88.6153,622.612,88.8156,621.404,89.2163 C620.195,89.6169,619.054,90.1586,617.98,90.8412 C616.906,91.5238,615.914,92.3103,615.004,93.2006 C614.094,94.091,613.281,95.0259,612.565,96.0053 C612.565,96.0053,612.565,116.662,612.565,116.662 z"/>
      </g>
      <g id="Text-9">
        <path style="fill:#000000;fill-opacity:1;fill-rule:nonzero;opacity:1;stroke:none;" d="M679.564,129.928 C676.461,129.928,673.544,129.349,670.814,128.192 C668.084,127.034,665.704,125.461,663.675,123.473 C661.646,121.484,660.043,119.147,658.864,116.461 C657.686,113.775,657.096,110.919,657.096,107.892 C657.096,104.241,657.633,100.865,658.708,97.7637 C659.782,94.6623,661.303,91.9838,663.273,89.7282 C665.242,87.4726,667.606,85.7068,670.366,84.4306 C673.126,83.1544,676.207,82.5163,679.608,82.5163 C682.592,82.5163,685.337,83.0431,687.843,84.0967 C690.35,85.1503,692.505,86.56,694.311,88.3259 C696.116,90.0918,697.518,92.1322,698.518,94.4471 C699.517,96.7621,700.017,99.1809,700.017,101.704 C700.017,101.704,665.868,101.704,665.868,101.704 C665.868,104.76,666.264,107.595,667.054,110.207 C667.845,112.818,668.957,115.074,670.389,116.973 C671.821,118.873,673.522,120.357,675.491,121.425 C677.46,122.494,679.623,123.028,681.98,123.028 C683.95,123.028,685.844,122.709,687.664,122.071 C689.484,121.432,691.133,120.594,692.61,119.555 C694.087,118.517,695.347,117.329,696.392,115.994 C697.436,114.658,698.167,113.278,698.585,111.854 C698.585,111.854,701.225,113.011,701.225,113.011 C700.569,115.356,699.51,117.552,698.048,119.6 C696.586,121.648,694.877,123.436,692.923,124.964 C690.969,126.493,688.843,127.702,686.545,128.592 C684.248,129.483,681.921,129.928,679.564,129.928 z M688.604,98.0531 C688.604,96.3317,688.298,94.7291,687.687,93.2452 C687.075,91.7612,686.232,90.4776,685.158,89.3943 C684.084,88.3111,682.831,87.4578,681.399,86.8346 C679.966,86.2113,678.43,85.8997,676.789,85.8997 C675.416,85.8997,674.103,86.2039,672.85,86.8123 C671.597,87.4207,670.478,88.2666,669.494,89.3498 C668.509,90.4331,667.696,91.7167,667.054,93.2006 C666.413,94.6846,666.032,96.2872,665.913,98.0086 C665.913,98.0086,688.604,98.0531,688.604,98.0531 z"/>
      </g>
      <g id="Text-10">
        <path style="fill:#000000;fill-opacity:1;fill-rule:nonzero;opacity:1;stroke:none;" d="M720.649,82.5163 C720.649,82.5163,722.037,82.5163,722.037,82.5163 C722.037,82.5163,723.245,91.8206,723.245,91.8206 C723.961,90.4554,724.856,89.2089,725.93,88.0811 C727.004,86.9533,728.19,85.9739,729.488,85.1429 C730.786,84.3119,732.159,83.6664,733.606,83.2063 C735.053,82.7463,736.522,82.5163,738.014,82.5163 C739.357,82.5163,740.677,82.6944,741.975,83.0505 C743.273,83.4067,744.489,83.9706,745.623,84.7422 C745.623,84.7422,742.758,92.3548,742.758,92.3548 C742.162,91.7019,741.535,91.1751,740.879,90.7744 C740.222,90.3737,739.551,90.0621,738.865,89.8395 C738.178,89.6169,737.477,89.476,736.761,89.4166 C736.045,89.3572,735.329,89.3276,734.613,89.3276 C733.479,89.3276,732.368,89.4908,731.279,89.8173 C730.19,90.1437,729.153,90.626,728.168,91.2641 C727.184,91.9022,726.273,92.7184,725.438,93.7126 C724.603,94.7068,723.872,95.8717,723.245,97.2073 C723.245,97.2073,723.245,128.949,723.245,128.949 C723.245,128.949,714.16,128.949,714.16,128.949 C714.16,128.949,714.16,85.0093,714.16,85.0093 C714.16,85.0093,720.649,82.5163,720.649,82.5163 z"/>
      </g>
    </g>
    <g id="Text-11">
      <g id="Text-12">
        <path style="fill:#8cc63f;fill-opacity:1;fill-rule:nonzero;opacity:1;stroke:none;" d="M71.9412,131.292 C73.6375,131.292,75.3166,131.06,76.9783,130.597 C78.6401,130.134,80.1287,129.448,81.4443,128.539 C82.7598,127.629,83.8157,126.514,84.612,125.193 C85.4082,123.873,85.8063,122.337,85.8063,120.587 C85.8063,118.495,85.2611,116.633,84.1706,115.004 C83.08,113.374,81.652,111.882,79.8864,110.526 C78.1208,109.171,76.1042,107.893,73.8366,106.692 C71.569,105.491,69.2582,104.291,66.904,103.09 C64.5499,101.889,62.239,100.628,59.9715,99.3073 C57.7039,97.9864,55.6873,96.5111,53.9217,94.8814 C52.1561,93.2517,50.728,91.4333,49.6375,89.4262 C48.547,87.4192,48.0017,85.1119,48.0017,82.5044 C48.0017,79.8969,48.4951,77.4781,49.4817,75.248 C50.4684,73.0179,51.9137,71.088,53.8178,69.4583 C55.7219,67.8286,58.0674,66.5506,60.8543,65.6243 C63.6411,64.6979,66.8348,64.2348,70.4352,64.2348 C73.6895,64.2348,76.5975,64.5779,79.1594,65.264 C81.7212,65.9502,83.9715,66.9623,85.9102,68.3004 C87.8489,69.6384,89.4933,71.2853,90.8435,73.2409 C92.1936,75.1965,93.2842,77.4609,94.115,80.0341 C94.115,80.0341,88.1951,82.7102,88.1951,82.7102 C87.5027,80.6174,86.6199,78.7046,85.5467,76.972 C84.4735,75.2394,83.1926,73.7555,81.7039,72.5204 C80.2153,71.2853,78.4929,70.3332,76.5369,69.6642 C74.5809,68.9951,72.3739,68.6606,69.9159,68.6606 C67.7349,68.6606,65.8308,68.9608,64.2037,69.5612 C62.5766,70.1617,61.2178,70.9508,60.1272,71.9286 C59.0367,72.9064,58.2232,74.0043,57.6866,75.2223 C57.15,76.4402,56.8817,77.6839,56.8817,78.9534 C56.8817,80.7374,57.4356,82.3757,58.5434,83.8682 C59.6512,85.3606,61.1226,86.7673,62.9574,88.0882 C64.7922,89.4091,66.8781,90.6871,69.2149,91.9222 C71.5517,93.1573,73.9318,94.4096,76.3552,95.6791 C78.7785,96.9485,81.1586,98.2694,83.4955,99.6418 C85.8323,101.014,87.9181,102.515,89.753,104.145 C91.5878,105.775,93.0591,107.559,94.167,109.497 C95.2748,111.436,95.8287,113.606,95.8287,116.007 C95.8287,118.718,95.3094,121.265,94.2708,123.65 C93.2322,126.034,91.6744,128.11,89.5972,129.877 C87.52,131.644,84.9408,133.042,81.8597,134.071 C78.7785,135.1,75.1954,135.615,71.1103,135.615 C67.7868,135.615,64.8269,135.255,62.2304,134.534 C59.6339,133.814,57.3404,132.767,55.3497,131.395 C53.3591,130.023,51.6541,128.35,50.2347,126.377 C48.8153,124.404,47.6555,122.149,46.7554,119.61 C46.7554,119.61,52.935,117.088,52.935,117.088 C53.662,119.318,54.64,121.308,55.869,123.058 C57.098,124.808,58.5261,126.291,60.1532,127.509 C61.7803,128.727,63.5892,129.662,65.5798,130.314 C67.5705,130.966,69.6909,131.292,71.9412,131.292 z"/>
      </g>
      <g id="Text-13">
        <path style="fill:#8cc63f;fill-opacity:1;fill-rule:nonzero;opacity:1;stroke:none;" d="M111.927,65.7787 C111.927,65.7787,134.88,65.7787,134.88,65.7787 C141.942,65.7787,148.018,66.4305,153.107,67.7343 C158.196,69.038,162.437,71.1309,165.83,74.0129 C169.707,77.3065,172.624,81.0805,174.58,85.3349 C176.536,89.5892,177.514,94.2381,177.514,99.2815 C177.514,104.085,176.64,108.596,174.891,112.816 C173.143,117.036,170.581,120.716,167.206,123.855 C163.83,126.995,159.659,129.474,154.691,131.292 C149.723,133.11,144.036,134.02,137.632,134.02 C137.632,134.02,111.927,134.02,111.927,134.02 C111.927,134.02,111.927,65.7787,111.927,65.7787 z M123.507,129.028 C123.507,129.028,135.814,129.028,135.814,129.028 C139.692,129.028,143.344,128.393,146.771,127.123 C150.199,125.854,153.185,123.967,155.729,121.462 C158.274,118.958,160.282,115.879,161.753,112.225 C163.224,108.571,163.96,104.342,163.96,99.5388 C163.96,95.3188,163.268,91.4505,161.883,87.9338 C160.498,84.4171,158.559,81.3893,156.067,78.8504 C153.574,76.3116,150.606,74.3388,147.161,72.9321 C143.716,71.5254,139.951,70.8221,135.866,70.8221 C135.866,70.8221,123.507,70.8221,123.507,70.8221 C123.507,70.8221,123.507,129.028,123.507,129.028 z"/>
      </g>
    </g>
  </g>
</svg>
