<?xml version="1.0" encoding="utf-8"?>
<svg x="0px" y="0px" width="800px" height="800px" viewBox="0 0 800 800" xmlns="http://www.w3.org/2000/svg" xmlns:xlink="http://www.w3.org/1999/xlink">
  <!--Generated by AMDN-->
  <g id="Layer_1">
    <g id="Text">
      <g id="Text-1">
        <path style="fill:#000000;fill-opacity:1;fill-rule:nonzero;opacity:1;stroke:none;" d="M147.024,581.917 C148.248,581.917,149.381,581.731,150.426,581.36 C151.47,580.989,152.373,580.492,153.133,579.869 C153.894,579.246,154.484,578.526,154.901,577.71 C155.319,576.893,155.528,576.055,155.528,575.194 C155.528,573.799,155.177,572.583,154.476,571.544 C153.775,570.505,152.85,569.578,151.701,568.762 C150.553,567.945,149.247,567.196,147.785,566.513 C146.323,565.831,144.831,565.126,143.31,564.399 C141.788,563.672,140.296,562.9,138.834,562.084 C137.372,561.268,136.067,560.31,134.918,559.212 C133.769,558.114,132.844,556.846,132.143,555.406 C131.442,553.967,131.091,552.282,131.091,550.353 C131.091,548.543,131.479,546.859,132.255,545.301 C133.031,543.742,134.112,542.399,135.5,541.272 C136.887,540.144,138.536,539.261,140.445,538.623 C142.355,537.985,144.443,537.666,146.711,537.666 C148.233,537.666,149.65,537.77,150.963,537.977 C152.276,538.185,153.566,538.586,154.834,539.179 C156.102,539.773,157.363,540.626,158.616,541.739 C159.869,542.852,161.197,544.299,162.599,546.08 C162.599,546.08,159.243,549.062,159.243,549.062 C157.512,546.243,155.58,544.143,153.447,542.763 C151.313,541.383,149.038,540.693,146.621,540.693 C145.309,540.693,144.115,540.849,143.041,541.16 C141.967,541.472,141.049,541.902,140.289,542.451 C139.528,543,138.931,543.646,138.498,544.388 C138.066,545.13,137.849,545.916,137.849,546.747 C137.849,548.113,138.23,549.3,138.991,550.309 C139.752,551.318,140.759,552.23,142.012,553.047 C143.265,553.863,144.69,554.612,146.286,555.295 C147.882,555.977,149.508,556.675,151.164,557.387 C152.82,558.099,154.446,558.871,156.043,559.702 C157.639,560.533,159.064,561.49,160.317,562.573 C161.57,563.657,162.577,564.911,163.338,566.335 C164.099,567.76,164.479,569.422,164.479,571.321 C164.479,573.25,164.121,575.053,163.405,576.73 C162.689,578.407,161.607,579.861,160.16,581.093 C158.713,582.325,156.9,583.297,154.722,584.009 C152.544,584.721,149.978,585.077,147.024,585.077 C145.682,585.077,144.302,584.974,142.884,584.766 C141.467,584.558,140.042,584.15,138.61,583.542 C137.178,582.933,135.746,582.08,134.314,580.982 C132.882,579.884,131.479,578.444,130.107,576.663 C130.107,576.663,133.821,573.325,133.821,573.325 C134.925,574.868,135.985,576.181,136.999,577.264 C138.014,578.348,139.05,579.238,140.11,579.936 C141.169,580.633,142.258,581.138,143.377,581.449 C144.496,581.761,145.711,581.917,147.024,581.917 z"/>
      </g>
      <g id="Text-2">
        <path style="fill:#000000;fill-opacity:1;fill-rule:nonzero;opacity:1;stroke:none;" d="M186.499,538.511 C186.499,538.511,186.499,570.965,186.499,570.965 C186.499,572.093,186.76,573.161,187.282,574.17 C187.804,575.18,188.528,576.055,189.453,576.797 C190.378,577.539,191.444,578.125,192.653,578.555 C193.861,578.986,195.166,579.201,196.569,579.201 C197.464,579.201,198.426,579.008,199.455,578.622 C200.485,578.236,201.492,577.71,202.476,577.042 C203.461,576.374,204.379,575.588,205.229,574.682 C206.079,573.777,206.803,572.82,207.4,571.811 C207.4,571.811,207.4,538.511,207.4,538.511 C207.4,538.511,216.44,538.511,216.44,538.511 C216.44,538.511,216.44,584.098,216.44,584.098 C216.44,584.098,207.4,584.098,207.4,584.098 C207.4,584.098,207.4,575.551,207.4,575.551 C206.594,576.856,205.587,578.088,204.379,579.245 C203.17,580.403,201.865,581.412,200.462,582.273 C199.06,583.133,197.613,583.816,196.121,584.321 C194.629,584.825,193.212,585.077,191.869,585.077 C189.87,585.077,187.991,584.706,186.23,583.964 C184.47,583.222,182.933,582.213,181.62,580.937 C180.308,579.661,179.271,578.162,178.51,576.441 C177.749,574.72,177.369,572.894,177.369,570.965 C177.369,570.965,177.369,538.511,177.369,538.511 C177.369,538.511,186.499,538.511,186.499,538.511 z"/>
      </g>
      <g id="Text-3">
        <path style="fill:#000000;fill-opacity:1;fill-rule:nonzero;opacity:1;stroke:none;" d="M239.086,537.666 C239.086,537.666,241.682,537.666,241.682,537.666 C241.682,537.666,241.682,547.905,241.682,547.905 C242.607,546.747,243.629,545.56,244.748,544.343 C245.867,543.127,247.105,542.021,248.463,541.027 C249.82,540.033,251.32,539.224,252.961,538.601 C254.602,537.977,256.392,537.666,258.331,537.666 C261.047,537.666,263.508,538.23,265.716,539.357 C267.924,540.485,269.811,542.014,271.378,543.943 C272.944,545.872,274.152,548.135,275.003,550.732 C275.853,553.329,276.278,556.096,276.278,559.034 C276.278,562.804,275.756,566.283,274.712,569.474 C273.668,572.664,272.176,575.417,270.236,577.732 C268.297,580.047,265.94,581.85,263.165,583.141 C260.39,584.432,257.287,585.077,253.856,585.077 C252.603,585.077,251.432,585.011,250.342,584.877 C249.253,584.743,248.224,584.543,247.254,584.276 C246.285,584.009,245.345,583.668,244.435,583.252 C243.525,582.837,242.607,582.332,241.682,581.739 C241.682,581.739,241.682,603.285,241.682,603.285 C241.682,603.285,232.552,603.285,232.552,603.285 C232.552,603.285,232.552,540.203,232.552,540.203 C232.552,540.203,239.086,537.666,239.086,537.666 z M241.682,571.811 C241.682,573.176,241.981,574.46,242.577,575.662 C243.174,576.864,244.01,577.917,245.084,578.823 C246.158,579.728,247.441,580.44,248.933,580.959 C250.425,581.479,252.066,581.739,253.856,581.739 C255.557,581.739,257.16,581.308,258.667,580.448 C260.174,579.587,261.487,578.363,262.606,576.775 C263.724,575.187,264.605,573.295,265.246,571.099 C265.888,568.902,266.208,566.469,266.208,563.798 C266.208,560.444,265.91,557.513,265.313,555.005 C264.716,552.498,263.889,550.413,262.829,548.751 C261.77,547.089,260.517,545.842,259.07,545.011 C257.623,544.18,256.034,543.765,254.303,543.765 C252.991,543.765,251.73,543.965,250.522,544.366 C249.313,544.766,248.172,545.308,247.098,545.991 C246.024,546.673,245.032,547.46,244.121,548.35 C243.211,549.24,242.398,550.175,241.682,551.155 C241.682,551.155,241.682,571.811,241.682,571.811 z"/>
      </g>
      <g id="Text-4">
        <path style="fill:#000000;fill-opacity:1;fill-rule:nonzero;opacity:1;stroke:none;" d="M308.681,585.077 C305.578,585.077,302.662,584.499,299.932,583.341 C297.202,582.184,294.822,580.611,292.793,578.622 C290.764,576.634,289.16,574.297,287.982,571.611 C286.803,568.925,286.214,566.068,286.214,563.041 C286.214,559.39,286.751,556.015,287.825,552.913 C288.899,549.812,290.421,547.133,292.39,544.878 C294.36,542.622,296.724,540.856,299.484,539.58 C302.244,538.304,305.325,537.666,308.726,537.666 C311.71,537.666,314.455,538.192,316.961,539.246 C319.467,540.3,321.623,541.709,323.428,543.475 C325.233,545.241,326.636,547.282,327.635,549.596 C328.635,551.911,329.135,554.33,329.135,556.853 C329.135,556.853,294.986,556.853,294.986,556.853 C294.986,559.91,295.382,562.744,296.172,565.356 C296.963,567.968,298.074,570.223,299.507,572.123 C300.939,574.022,302.639,575.506,304.609,576.574 C306.578,577.643,308.741,578.177,311.098,578.177 C313.067,578.177,314.962,577.858,316.782,577.22 C318.602,576.582,320.251,575.743,321.728,574.705 C323.205,573.666,324.465,572.479,325.509,571.143 C326.554,569.808,327.285,568.428,327.702,567.003 C327.702,567.003,330.343,568.161,330.343,568.161 C329.687,570.505,328.627,572.701,327.165,574.749 C325.703,576.797,323.995,578.585,322.041,580.114 C320.087,581.642,317.961,582.852,315.663,583.742 C313.366,584.632,311.039,585.077,308.681,585.077 z M317.722,553.202 C317.722,551.481,317.416,549.878,316.805,548.395 C316.193,546.911,315.35,545.627,314.276,544.544 C313.202,543.46,311.949,542.607,310.516,541.984 C309.084,541.361,307.548,541.049,305.907,541.049 C304.534,541.049,303.221,541.353,301.968,541.962 C300.715,542.57,299.596,543.416,298.611,544.499 C297.627,545.582,296.814,546.866,296.172,548.35 C295.531,549.834,295.15,551.437,295.031,553.158 C295.031,553.158,317.722,553.202,317.722,553.202 z"/>
      </g>
      <g id="Text-5">
        <path style="fill:#000000;fill-opacity:1;fill-rule:nonzero;opacity:1;stroke:none;" d="M349.767,537.666 C349.767,537.666,351.154,537.666,351.154,537.666 C351.154,537.666,352.363,546.97,352.363,546.97 C353.079,545.605,353.974,544.358,355.048,543.23 C356.122,542.103,357.308,541.123,358.606,540.292 C359.904,539.461,361.277,538.816,362.724,538.356 C364.171,537.896,365.64,537.666,367.132,537.666 C368.475,537.666,369.795,537.844,371.093,538.2 C372.391,538.556,373.607,539.12,374.741,539.892 C374.741,539.892,371.876,547.504,371.876,547.504 C371.28,546.851,370.653,546.324,369.996,545.924 C369.34,545.523,368.669,545.211,367.983,544.989 C367.296,544.766,366.595,544.625,365.879,544.566 C365.163,544.507,364.447,544.477,363.731,544.477 C362.597,544.477,361.486,544.64,360.396,544.967 C359.307,545.293,358.271,545.775,357.286,546.413 C356.301,547.052,355.391,547.868,354.556,548.862 C353.72,549.856,352.989,551.021,352.363,552.357 C352.363,552.357,352.363,584.098,352.363,584.098 C352.363,584.098,343.277,584.098,343.277,584.098 C343.277,584.098,343.277,540.159,343.277,540.159 C343.277,540.159,349.767,537.666,349.767,537.666 z"/>
      </g>
      <g id="Text-6">
        <path style="fill:#000000;fill-opacity:1;fill-rule:nonzero;opacity:1;stroke:none;" d="M433.102,579.691 C432.058,580.522,430.924,581.271,429.7,581.939 C428.477,582.607,427.202,583.171,425.874,583.631 C424.546,584.091,423.211,584.447,421.868,584.699 C420.526,584.951,419.213,585.077,417.93,585.077 C415.244,585.077,412.731,584.454,410.388,583.208 C408.046,581.961,406.002,580.284,404.257,578.177 C402.511,576.07,401.131,573.614,400.117,570.809 C399.103,568.005,398.595,565.044,398.595,561.928 C398.595,558.841,399.229,555.844,400.497,552.935 C401.766,550.027,403.489,547.437,405.667,545.167 C407.845,542.897,410.388,541.079,413.297,539.714 C416.207,538.348,419.317,537.666,422.629,537.666 C424.867,537.666,426.814,538.052,428.47,538.823 C430.126,539.595,431.67,540.619,433.102,541.895 C433.102,541.895,433.102,517.855,433.102,517.855 C433.102,517.855,439.502,515.273,439.502,515.273 C439.502,515.273,442.142,515.273,442.142,515.273 C442.142,515.273,442.142,584.098,442.142,584.098 C442.142,584.098,433.102,584.098,433.102,584.098 C433.102,584.098,433.102,579.691,433.102,579.691 z M433.102,553.024 C433.102,551.244,432.766,549.619,432.095,548.15 C431.424,546.681,430.551,545.419,429.477,544.366 C428.403,543.312,427.187,542.496,425.829,541.917 C424.471,541.338,423.106,541.049,421.734,541.049 C419.914,541.049,418.213,541.494,416.632,542.385 C415.05,543.275,413.67,544.529,412.492,546.146 C411.313,547.764,410.381,549.693,409.695,551.934 C409.008,554.174,408.665,556.645,408.665,559.346 C408.665,562.254,409.038,564.97,409.784,567.493 C410.53,570.015,411.552,572.219,412.85,574.104 C414.148,575.988,415.67,577.472,417.415,578.555 C419.16,579.639,421.033,580.18,423.032,580.18 C423.987,580.18,424.949,580.054,425.919,579.802 C426.888,579.55,427.806,579.208,428.671,578.778 C429.536,578.348,430.349,577.851,431.11,577.287 C431.871,576.723,432.535,576.129,433.102,575.506 C433.102,575.506,433.102,553.024,433.102,553.024 z"/>
      </g>
      <g id="Text-7">
        <path style="fill:#000000;fill-opacity:1;fill-rule:nonzero;opacity:1;stroke:none;" d="M467.295,538.511 C467.295,538.511,467.295,570.965,467.295,570.965 C467.295,572.093,467.556,573.161,468.078,574.17 C468.6,575.18,469.324,576.055,470.249,576.797 C471.174,577.539,472.241,578.125,473.449,578.555 C474.657,578.986,475.963,579.201,477.365,579.201 C478.26,579.201,479.222,579.008,480.252,578.622 C481.281,578.236,482.288,577.71,483.273,577.042 C484.257,576.374,485.175,575.588,486.025,574.682 C486.876,573.777,487.599,572.82,488.196,571.811 C488.196,571.811,488.196,538.511,488.196,538.511 C488.196,538.511,497.237,538.511,497.237,538.511 C497.237,538.511,497.237,584.098,497.237,584.098 C497.237,584.098,488.196,584.098,488.196,584.098 C488.196,584.098,488.196,575.551,488.196,575.551 C487.39,576.856,486.383,578.088,485.175,579.245 C483.967,580.403,482.661,581.412,481.259,582.273 C479.857,583.133,478.409,583.816,476.918,584.321 C475.426,584.825,474.008,585.077,472.666,585.077 C470.667,585.077,468.787,584.706,467.027,583.964 C465.266,583.222,463.73,582.213,462.417,580.937 C461.104,579.661,460.067,578.162,459.306,576.441 C458.545,574.72,458.165,572.894,458.165,570.965 C458.165,570.965,458.165,538.511,458.165,538.511 C458.165,538.511,467.295,538.511,467.295,538.511 z"/>
      </g>
      <g id="Text-8">
        <path style="fill:#000000;fill-opacity:1;fill-rule:nonzero;opacity:1;stroke:none;" d="M519.883,537.666 C519.883,537.666,522.479,537.666,522.479,537.666 C522.479,537.666,522.479,547.905,522.479,547.905 C523.404,546.747,524.426,545.56,525.544,544.343 C526.663,543.127,527.902,542.021,529.259,541.027 C530.617,540.033,532.116,539.224,533.757,538.601 C535.398,537.977,537.188,537.666,539.128,537.666 C541.843,537.666,544.305,538.23,546.512,539.357 C548.72,540.485,550.608,542.014,552.174,543.943 C553.74,545.872,554.949,548.135,555.799,550.732 C556.65,553.329,557.075,556.096,557.075,559.034 C557.075,562.804,556.553,566.283,555.508,569.474 C554.464,572.664,552.972,575.417,551.033,577.732 C549.093,580.047,546.736,581.85,543.961,583.141 C541.187,584.432,538.083,585.077,534.652,585.077 C533.399,585.077,532.228,585.011,531.139,584.877 C530.05,584.743,529.02,584.543,528.051,584.276 C527.081,584.009,526.141,583.668,525.231,583.252 C524.321,582.837,523.404,582.332,522.479,581.739 C522.479,581.739,522.479,603.285,522.479,603.285 C522.479,603.285,513.349,603.285,513.349,603.285 C513.349,603.285,513.349,540.203,513.349,540.203 C513.349,540.203,519.883,537.666,519.883,537.666 z M522.479,571.811 C522.479,573.176,522.777,574.46,523.374,575.662 C523.971,576.864,524.806,577.917,525.88,578.823 C526.954,579.728,528.237,580.44,529.729,580.959 C531.221,581.479,532.862,581.739,534.652,581.739 C536.353,581.739,537.957,581.308,539.463,580.448 C540.97,579.587,542.283,578.363,543.402,576.775 C544.521,575.187,545.401,573.295,546.042,571.099 C546.684,568.902,547.005,566.469,547.005,563.798 C547.005,560.444,546.706,557.513,546.11,555.005 C545.513,552.498,544.685,550.413,543.626,548.751 C542.566,547.089,541.313,545.842,539.866,545.011 C538.419,544.18,536.83,543.765,535.1,543.765 C533.787,543.765,532.526,543.965,531.318,544.366 C530.11,544.766,528.968,545.308,527.894,545.991 C526.82,546.673,525.828,547.46,524.918,548.35 C524.008,549.24,523.195,550.175,522.479,551.155 C522.479,551.155,522.479,571.811,522.479,571.811 z"/>
      </g>
      <g id="Text-9">
        <path style="fill:#000000;fill-opacity:1;fill-rule:nonzero;opacity:1;stroke:none;" d="M589.478,585.077 C586.375,585.077,583.458,584.499,580.728,583.341 C577.998,582.184,575.618,580.611,573.59,578.622 C571.561,576.634,569.957,574.297,568.778,571.611 C567.6,568.925,567.01,566.068,567.01,563.041 C567.01,559.39,567.548,556.015,568.622,552.913 C569.696,549.812,571.218,547.133,573.187,544.878 C575.156,542.622,577.521,540.856,580.281,539.58 C583.04,538.304,586.121,537.666,589.523,537.666 C592.506,537.666,595.251,538.192,597.758,539.246 C600.264,540.3,602.42,541.709,604.225,543.475 C606.03,545.241,607.432,547.282,608.432,549.596 C609.431,551.911,609.931,554.33,609.931,556.853 C609.931,556.853,575.783,556.853,575.783,556.853 C575.783,559.91,576.178,562.744,576.969,565.356 C577.759,567.968,578.871,570.223,580.303,572.123 C581.735,574.022,583.436,575.506,585.405,576.574 C587.374,577.643,589.537,578.177,591.895,578.177 C593.864,578.177,595.758,577.858,597.579,577.22 C599.399,576.582,601.047,575.743,602.524,574.705 C604.001,573.666,605.262,572.479,606.306,571.143 C607.35,569.808,608.081,568.428,608.499,567.003 C608.499,567.003,611.139,568.161,611.139,568.161 C610.483,570.505,609.424,572.701,607.962,574.749 C606.5,576.797,604.792,578.585,602.837,580.114 C600.883,581.642,598.757,582.852,596.46,583.742 C594.162,584.632,591.835,585.077,589.478,585.077 z M598.518,553.202 C598.518,551.481,598.213,549.878,597.601,548.395 C596.989,546.911,596.146,545.627,595.072,544.544 C593.998,543.46,592.745,542.607,591.313,541.984 C589.881,541.361,588.344,541.049,586.703,541.049 C585.33,541.049,584.018,541.353,582.764,541.962 C581.511,542.57,580.392,543.416,579.408,544.499 C578.423,545.582,577.61,546.866,576.969,548.35 C576.327,549.834,575.947,551.437,575.827,553.158 C575.827,553.158,598.518,553.202,598.518,553.202 z"/>
      </g>
      <g id="Text-10">
        <path style="fill:#000000;fill-opacity:1;fill-rule:nonzero;opacity:1;stroke:none;" d="M630.563,537.666 C630.563,537.666,631.951,537.666,631.951,537.666 C631.951,537.666,633.159,546.97,633.159,546.97 C633.875,545.605,634.77,544.358,635.845,543.23 C636.919,542.103,638.105,541.123,639.403,540.292 C640.701,539.461,642.073,538.816,643.52,538.356 C644.967,537.896,646.437,537.666,647.929,537.666 C649.271,537.666,650.592,537.844,651.889,538.2 C653.187,538.556,654.403,539.12,655.537,539.892 C655.537,539.892,652.673,547.504,652.673,547.504 C652.076,546.851,651.449,546.324,650.793,545.924 C650.136,545.523,649.465,545.211,648.779,544.989 C648.093,544.766,647.391,544.625,646.675,544.566 C645.959,544.507,645.243,544.477,644.527,544.477 C643.393,544.477,642.282,544.64,641.193,544.967 C640.104,545.293,639.067,545.775,638.082,546.413 C637.098,547.052,636.188,547.868,635.352,548.862 C634.517,549.856,633.786,551.021,633.159,552.357 C633.159,552.357,633.159,584.098,633.159,584.098 C633.159,584.098,624.074,584.098,624.074,584.098 C624.074,584.098,624.074,540.159,624.074,540.159 C624.074,540.159,630.563,537.666,630.563,537.666 z"/>
      </g>
    </g>
    <path id="Path" style="fill:#ed247b;fill-opacity:1;fill-rule:evenodd;opacity:1;stroke:none;" d="M383.532,201.69 C464.894,201.69,530.851,267.647,530.851,349.008 C530.851,430.37,464.894,496.327,383.532,496.327 C302.171,496.327,236.214,430.37,236.214,349.008 C236.214,267.647,302.171,201.69,383.532,201.69 z"/>
    <g id="Text-11">
      <g id="Text-12">
        <path style="fill:#8cc63f;fill-opacity:1;fill-rule:nonzero;opacity:1;stroke:none;" d="M312.829,406.983 C315.813,406.983,318.767,406.575,321.69,405.761 C324.613,404.946,327.231,403.739,329.546,402.139 C331.86,400.54,333.717,398.579,335.118,396.255 C336.518,393.931,337.219,391.231,337.219,388.153 C337.219,384.471,336.26,381.197,334.341,378.33 C332.423,375.464,329.911,372.838,326.805,370.454 C323.699,368.07,320.152,365.822,316.163,363.71 C312.174,361.598,308.109,359.485,303.968,357.373 C299.827,355.26,295.762,353.043,291.773,350.719 C287.784,348.395,284.237,345.8,281.131,342.933 C278.025,340.067,275.513,336.868,273.595,333.337 C271.677,329.807,270.717,325.748,270.717,321.161 C270.717,316.574,271.585,312.32,273.321,308.397 C275.056,304.474,277.599,301.079,280.948,298.212 C284.298,295.345,288.424,293.097,293.326,291.468 C298.228,289.838,303.846,289.023,310.18,289.023 C315.904,289.023,321.02,289.627,325.526,290.834 C330.033,292.041,333.991,293.822,337.402,296.175 C340.812,298.529,343.705,301.426,346.08,304.866 C348.455,308.306,350.373,312.289,351.835,316.816 C351.835,316.816,341.421,321.523,341.421,321.523 C340.203,317.842,338.65,314.477,336.762,311.429 C334.874,308.382,332.621,305.771,330.002,303.599 C327.384,301.426,324.354,299.751,320.913,298.574 C317.472,297.397,313.59,296.809,309.266,296.809 C305.43,296.809,302.08,297.337,299.218,298.393 C296.356,299.449,293.965,300.838,292.047,302.558 C290.129,304.278,288.698,306.209,287.754,308.351 C286.81,310.494,286.338,312.682,286.338,314.915 C286.338,318.053,287.312,320.935,289.261,323.56 C291.21,326.186,293.798,328.66,297.026,330.984 C300.253,333.307,303.922,335.555,308.033,337.728 C312.144,339.901,316.331,342.104,320.593,344.337 C324.856,346.57,329.043,348.893,333.154,351.307 C337.265,353.721,340.934,356.362,344.161,359.229 C347.389,362.095,349.977,365.234,351.926,368.644 C353.875,372.054,354.849,375.871,354.849,380.096 C354.849,384.863,353.936,389.345,352.109,393.539 C350.282,397.734,347.541,401.385,343.887,404.493 C340.233,407.601,335.696,410.061,330.276,411.871 C324.856,413.682,318.553,414.587,311.367,414.587 C305.521,414.587,300.314,413.953,295.747,412.686 C291.179,411.419,287.145,409.578,283.643,407.164 C280.141,404.75,277.142,401.807,274.645,398.337 C272.148,394.867,270.108,390.899,268.525,386.433 C268.525,386.433,279.395,381.997,279.395,381.997 C280.674,385.92,282.395,389.42,284.557,392.498 C286.719,395.576,289.231,398.186,292.093,400.329 C294.955,402.471,298.137,404.116,301.639,405.263 C305.14,406.409,308.87,406.983,312.829,406.983 z"/>
      </g>
      <g id="Text-13">
        <path style="fill:#8cc63f;fill-opacity:1;fill-rule:nonzero;opacity:1;stroke:none;" d="M383.167,291.739 C383.167,291.739,423.543,291.739,423.543,291.739 C435.966,291.739,446.654,292.886,455.606,295.179 C464.558,297.473,472.018,301.154,477.986,306.224 C484.807,312.018,489.938,318.657,493.379,326.14 C496.819,333.624,498.54,341.802,498.54,350.674 C498.54,359.123,497.002,367.059,493.927,374.483 C490.851,381.906,486.345,388.379,480.407,393.901 C474.469,399.424,467.131,403.784,458.392,406.983 C449.653,410.181,439.651,411.781,428.384,411.781 C428.384,411.781,383.167,411.781,383.167,411.781 C383.167,411.781,383.167,291.739,383.167,291.739 z M403.538,402.999 C403.538,402.999,425.187,402.999,425.187,402.999 C432.008,402.999,438.433,401.883,444.462,399.65 C450.491,397.417,455.743,394.097,460.219,389.692 C464.695,385.286,468.227,379.869,470.816,373.442 C473.404,367.014,474.698,359.576,474.698,351.126 C474.698,343.703,473.48,336.898,471.044,330.712 C468.608,324.526,465.198,319.2,460.813,314.734 C456.428,310.268,451.206,306.797,445.147,304.323 C439.087,301.848,432.465,300.611,425.278,300.611 C425.278,300.611,403.538,300.611,403.538,300.611 C403.538,300.611,403.538,402.999,403.538,402.999 z"/>
      </g>
    </g>
  </g>
</svg>
