<?xml version="1.0" encoding="utf-8" standalone="no"?>
<!DOCTYPE svg PUBLIC "-//W3C//DTD SVG 1.1//EN"
  "http://www.w3.org/Graphics/SVG/1.1/DTD/svg11.dtd">
<svg xmlns:xlink="http://www.w3.org/1999/xlink" width="404.923125pt" height="324.466687pt" viewBox="0 0 404.923125 324.466687" xmlns="http://www.w3.org/2000/svg" version="1.1">
 <metadata>
  <rdf:RDF xmlns:dc="http://purl.org/dc/elements/1.1/" xmlns:cc="http://creativecommons.org/ns#" xmlns:rdf="http://www.w3.org/1999/02/22-rdf-syntax-ns#">
   <cc:Work>
    <dc:type rdf:resource="http://purl.org/dc/dcmitype/StillImage"/>
    <dc:date>2026-03-20T13:44:09.784451</dc:date>
    <dc:format>image/svg+xml</dc:format>
    <dc:creator>
     <cc:Agent>
      <dc:title>Matplotlib v3.10.8, https://matplotlib.org/</dc:title>
     </cc:Agent>
    </dc:creator>
   </cc:Work>
  </rdf:RDF>
 </metadata>
 <defs>
  <style type="text/css">*{stroke-linejoin: round; stroke-linecap: butt}</style>
 </defs>
 <g id="figure_1">
  <g id="patch_1">
   <path d="M 0 324.466687 
L 404.923125 324.466687 
L 404.923125 0 
L 0 0 
z
" style="fill: #ffffff"/>
  </g>
  <g id="axes_1">
   <g id="patch_2">
    <path d="M 40.603125 286.910437 
L 397.723125 286.910437 
L 397.723125 20.798437 
L 40.603125 20.798437 
z
" style="fill: #ffffff"/>
   </g>
   <g id="patch_3">
    <path d="M 56.835852 286.910437 
L 56.835852 286.507013 
L 63.328943 286.507013 
L 63.328943 286.910437 
L 69.822034 286.910437 
L 69.822034 286.910437 
L 76.315125 286.910437 
L 76.315125 286.322468 
L 82.808216 286.322468 
L 82.808216 285.767736 
L 89.301307 285.767736 
L 89.301307 286.910437 
L 95.794398 286.910437 
L 95.794398 285.823699 
L 102.287489 285.823699 
L 102.287489 282.991033 
L 108.78058 282.991033 
L 108.78058 280.474887 
L 115.27367 280.474887 
L 115.27367 279.86081 
L 121.766761 279.86081 
L 121.766761 274.839475 
L 128.259852 274.839475 
L 128.259852 264.534588 
L 134.752943 264.534588 
L 134.752943 262.572663 
L 141.246034 262.572663 
L 141.246034 245.659837 
L 147.739125 245.659837 
L 147.739125 241.458944 
L 154.232216 241.458944 
L 154.232216 196.988377 
L 160.725307 196.988377 
L 160.725307 214.847969 
L 167.218398 214.847969 
L 167.218398 164.128163 
L 173.711489 164.128163 
L 173.711489 191.384899 
L 180.20458 191.384899 
L 180.20458 153.640307 
L 186.69767 153.640307 
L 186.69767 112.973182 
L 193.190761 112.973182 
L 193.190761 87.754552 
L 199.683852 87.754552 
L 199.683852 104.804946 
L 206.176943 104.804946 
L 206.176943 75.654705 
L 212.670034 75.654705 
L 212.670034 112.417883 
L 219.163125 112.417883 
L 219.163125 71.241345 
L 225.656216 71.241345 
L 225.656216 78.042159 
L 232.149307 78.042159 
L 232.149307 89.306936 
L 238.642398 89.306936 
L 238.642398 88.784399 
L 245.135489 88.784399 
L 245.135489 99.142063 
L 251.62858 99.142063 
L 251.62858 184.56006 
L 258.12167 184.56006 
L 258.12167 176.642489 
L 264.614761 176.642489 
L 264.614761 212.140846 
L 271.107852 212.140846 
L 271.107852 226.108389 
L 277.600943 226.108389 
L 277.600943 209.564209 
L 284.094034 209.564209 
L 284.094034 231.205973 
L 290.587125 231.205973 
L 290.587125 263.955833 
L 297.080216 263.955833 
L 297.080216 249.530777 
L 303.573307 249.530777 
L 303.573307 268.445498 
L 310.066398 268.445498 
L 310.066398 280.741109 
L 316.559489 280.741109 
L 316.559489 278.536317 
L 323.05258 278.536317 
L 323.05258 282.200867 
L 329.54567 282.200867 
L 329.54567 283.895493 
L 336.038761 283.895493 
L 336.038761 283.476721 
L 342.531852 283.476721 
L 342.531852 286.910437 
L 349.024943 286.910437 
L 349.024943 285.388129 
L 355.518034 285.388129 
L 355.518034 286.244197 
L 362.011125 286.244197 
L 362.011125 286.362948 
L 368.504216 286.362948 
L 368.504216 286.910437 
L 374.997307 286.910437 
L 374.997307 286.739903 
L 381.490398 286.739903 
L 381.490398 286.910437 
" clip-path="url(#pc9f33ff36a)" style="fill: none; stroke: #1f77b4; stroke-width: 1.5; stroke-linejoin: miter"/>
   </g>
   <g id="patch_4">
    <path d="M 56.835852 286.910437 
L 56.835852 286.910437 
L 63.328943 286.910437 
L 63.328943 286.376905 
L 69.822034 286.376905 
L 69.822034 286.910437 
L 76.315125 286.910437 
L 76.315125 285.390576 
L 82.808216 285.390576 
L 82.808216 285.504305 
L 89.301307 285.504305 
L 89.301307 286.910437 
L 95.794398 286.910437 
L 95.794398 285.042318 
L 102.287489 285.042318 
L 102.287489 282.210733 
L 108.78058 282.210733 
L 108.78058 284.179769 
L 115.27367 284.179769 
L 115.27367 276.950999 
L 121.766761 276.950999 
L 121.766761 274.457966 
L 128.259852 274.457966 
L 128.259852 266.552146 
L 134.752943 266.552146 
L 134.752943 261.498424 
L 141.246034 261.498424 
L 141.246034 269.407596 
L 147.739125 269.407596 
L 147.739125 244.809137 
L 154.232216 244.809137 
L 154.232216 221.494156 
L 160.725307 221.494156 
L 160.725307 221.610303 
L 167.218398 221.610303 
L 167.218398 195.18222 
L 173.711489 195.18222 
L 173.711489 194.358765 
L 180.20458 194.358765 
L 180.20458 144.892571 
L 186.69767 144.892571 
L 186.69767 139.248589 
L 193.190761 139.248589 
L 193.190761 56.640387 
L 199.683852 56.640387 
L 199.683852 112.044913 
L 206.176943 112.044913 
L 206.176943 75.695912 
L 212.670034 75.695912 
L 212.670034 63.355896 
L 219.163125 63.355896 
L 219.163125 33.470437 
L 225.656216 33.470437 
L 225.656216 69.657895 
L 232.149307 69.657895 
L 232.149307 89.963162 
L 238.642398 89.963162 
L 238.642398 153.808326 
L 245.135489 153.808326 
L 245.135489 90.981087 
L 251.62858 90.981087 
L 251.62858 162.521039 
L 258.12167 162.521039 
L 258.12167 191.411084 
L 264.614761 191.411084 
L 264.614761 209.254835 
L 271.107852 209.254835 
L 271.107852 197.0308 
L 277.600943 197.0308 
L 277.600943 217.444069 
L 284.094034 217.444069 
L 284.094034 249.948473 
L 290.587125 249.948473 
L 290.587125 245.356618 
L 297.080216 245.356618 
L 297.080216 244.324236 
L 303.573307 244.324236 
L 303.573307 272.337304 
L 310.066398 272.337304 
L 310.066398 278.026405 
L 316.559489 278.026405 
L 316.559489 274.710141 
L 323.05258 274.710141 
L 323.05258 279.27644 
L 329.54567 279.27644 
L 329.54567 280.053796 
L 336.038761 280.053796 
L 336.038761 284.669722 
L 342.531852 284.669722 
L 342.531852 286.116678 
L 349.024943 286.116678 
L 349.024943 283.943987 
L 355.518034 283.943987 
L 355.518034 285.543237 
L 362.011125 285.543237 
L 362.011125 286.910437 
L 368.504216 286.910437 
L 368.504216 286.910437 
L 374.997307 286.910437 
L 374.997307 286.910437 
L 381.490398 286.910437 
L 381.490398 286.910437 
" clip-path="url(#pc9f33ff36a)" style="fill: none; stroke-dasharray: 5.55,2.4; stroke-dashoffset: 0; stroke: #ff7f0e; stroke-width: 1.5; stroke-linejoin: miter"/>
   </g>
   <g id="matplotlib.axis_1">
    <g id="xtick_1">
     <g id="line2d_1">
      <path d="M 89.301307 286.910437 
L 89.301307 20.798437 
" clip-path="url(#pc9f33ff36a)" style="fill: none; stroke: #b0b0b0; stroke-opacity: 0.3; stroke-width: 0.8; stroke-linecap: square"/>
     </g>
     <g id="line2d_2">
      <defs>
       <path id="m239137cdd0" d="M 0 0 
L 0 3.5 
" style="stroke: #000000; stroke-width: 0.8"/>
      </defs>
      <g>
       <use xlink:href="#m239137cdd0" x="89.301307" y="286.910437" style="stroke: #000000; stroke-width: 0.8"/>
      </g>
     </g>
     <g id="text_1">
      <!-- −4 -->
      <g transform="translate(81.930213 301.508875) scale(0.1 -0.1)">
       <defs>
        <path id="DejaVuSans-2212" d="M 678 2272 
L 4684 2272 
L 4684 1741 
L 678 1741 
L 678 2272 
z
" transform="scale(0.015625)"/>
        <path id="DejaVuSans-34" d="M 2419 4116 
L 825 1625 
L 2419 1625 
L 2419 4116 
z
M 2253 4666 
L 3047 4666 
L 3047 1625 
L 3713 1625 
L 3713 1100 
L 3047 1100 
L 3047 0 
L 2419 0 
L 2419 1100 
L 313 1100 
L 313 1709 
L 2253 4666 
z
" transform="scale(0.015625)"/>
       </defs>
       <use xlink:href="#DejaVuSans-2212"/>
       <use xlink:href="#DejaVuSans-34" transform="translate(83.789062 0)"/>
      </g>
     </g>
    </g>
    <g id="xtick_2">
     <g id="line2d_3">
      <path d="M 154.232216 286.910437 
L 154.232216 20.798437 
" clip-path="url(#pc9f33ff36a)" style="fill: none; stroke: #b0b0b0; stroke-opacity: 0.3; stroke-width: 0.8; stroke-linecap: square"/>
     </g>
     <g id="line2d_4">
      <g>
       <use xlink:href="#m239137cdd0" x="154.232216" y="286.910437" style="stroke: #000000; stroke-width: 0.8"/>
      </g>
     </g>
     <g id="text_2">
      <!-- −2 -->
      <g transform="translate(146.861122 301.508875) scale(0.1 -0.1)">
       <defs>
        <path id="DejaVuSans-32" d="M 1228 531 
L 3431 531 
L 3431 0 
L 469 0 
L 469 531 
Q 828 903 1448 1529 
Q 2069 2156 2228 2338 
Q 2531 2678 2651 2914 
Q 2772 3150 2772 3378 
Q 2772 3750 2511 3984 
Q 2250 4219 1831 4219 
Q 1534 4219 1204 4116 
Q 875 4013 500 3803 
L 500 4441 
Q 881 4594 1212 4672 
Q 1544 4750 1819 4750 
Q 2544 4750 2975 4387 
Q 3406 4025 3406 3419 
Q 3406 3131 3298 2873 
Q 3191 2616 2906 2266 
Q 2828 2175 2409 1742 
Q 1991 1309 1228 531 
z
" transform="scale(0.015625)"/>
       </defs>
       <use xlink:href="#DejaVuSans-2212"/>
       <use xlink:href="#DejaVuSans-32" transform="translate(83.789062 0)"/>
      </g>
     </g>
    </g>
    <g id="xtick_3">
     <g id="line2d_5">
      <path d="M 219.163125 286.910437 
L 219.163125 20.798437 
" clip-path="url(#pc9f33ff36a)" style="fill: none; stroke: #b0b0b0; stroke-opacity: 0.3; stroke-width: 0.8; stroke-linecap: square"/>
     </g>
     <g id="line2d_6">
      <g>
       <use xlink:href="#m239137cdd0" x="219.163125" y="286.910437" style="stroke: #000000; stroke-width: 0.8"/>
      </g>
     </g>
     <g id="text_3">
      <!-- 0 -->
      <g transform="translate(215.981875 301.508875) scale(0.1 -0.1)">
       <defs>
        <path id="DejaVuSans-30" d="M 2034 4250 
Q 1547 4250 1301 3770 
Q 1056 3291 1056 2328 
Q 1056 1369 1301 889 
Q 1547 409 2034 409 
Q 2525 409 2770 889 
Q 3016 1369 3016 2328 
Q 3016 3291 2770 3770 
Q 2525 4250 2034 4250 
z
M 2034 4750 
Q 2819 4750 3233 4129 
Q 3647 3509 3647 2328 
Q 3647 1150 3233 529 
Q 2819 -91 2034 -91 
Q 1250 -91 836 529 
Q 422 1150 422 2328 
Q 422 3509 836 4129 
Q 1250 4750 2034 4750 
z
" transform="scale(0.015625)"/>
       </defs>
       <use xlink:href="#DejaVuSans-30"/>
      </g>
     </g>
    </g>
    <g id="xtick_4">
     <g id="line2d_7">
      <path d="M 284.094034 286.910437 
L 284.094034 20.798437 
" clip-path="url(#pc9f33ff36a)" style="fill: none; stroke: #b0b0b0; stroke-opacity: 0.3; stroke-width: 0.8; stroke-linecap: square"/>
     </g>
     <g id="line2d_8">
      <g>
       <use xlink:href="#m239137cdd0" x="284.094034" y="286.910437" style="stroke: #000000; stroke-width: 0.8"/>
      </g>
     </g>
     <g id="text_4">
      <!-- 2 -->
      <g transform="translate(280.912784 301.508875) scale(0.1 -0.1)">
       <use xlink:href="#DejaVuSans-32"/>
      </g>
     </g>
    </g>
    <g id="xtick_5">
     <g id="line2d_9">
      <path d="M 349.024943 286.910437 
L 349.024943 20.798437 
" clip-path="url(#pc9f33ff36a)" style="fill: none; stroke: #b0b0b0; stroke-opacity: 0.3; stroke-width: 0.8; stroke-linecap: square"/>
     </g>
     <g id="line2d_10">
      <g>
       <use xlink:href="#m239137cdd0" x="349.024943" y="286.910437" style="stroke: #000000; stroke-width: 0.8"/>
      </g>
     </g>
     <g id="text_5">
      <!-- 4 -->
      <g transform="translate(345.843693 301.508875) scale(0.1 -0.1)">
       <use xlink:href="#DejaVuSans-34"/>
      </g>
     </g>
    </g>
    <g id="text_6">
     <!-- x or y -->
     <g transform="translate(204.951406 315.187) scale(0.1 -0.1)">
      <defs>
       <path id="DejaVuSans-78" d="M 3513 3500 
L 2247 1797 
L 3578 0 
L 2900 0 
L 1881 1375 
L 863 0 
L 184 0 
L 1544 1831 
L 300 3500 
L 978 3500 
L 1906 2253 
L 2834 3500 
L 3513 3500 
z
" transform="scale(0.015625)"/>
       <path id="DejaVuSans-20" transform="scale(0.015625)"/>
       <path id="DejaVuSans-6f" d="M 1959 3097 
Q 1497 3097 1228 2736 
Q 959 2375 959 1747 
Q 959 1119 1226 758 
Q 1494 397 1959 397 
Q 2419 397 2687 759 
Q 2956 1122 2956 1747 
Q 2956 2369 2687 2733 
Q 2419 3097 1959 3097 
z
M 1959 3584 
Q 2709 3584 3137 3096 
Q 3566 2609 3566 1747 
Q 3566 888 3137 398 
Q 2709 -91 1959 -91 
Q 1206 -91 779 398 
Q 353 888 353 1747 
Q 353 2609 779 3096 
Q 1206 3584 1959 3584 
z
" transform="scale(0.015625)"/>
       <path id="DejaVuSans-72" d="M 2631 2963 
Q 2534 3019 2420 3045 
Q 2306 3072 2169 3072 
Q 1681 3072 1420 2755 
Q 1159 2438 1159 1844 
L 1159 0 
L 581 0 
L 581 3500 
L 1159 3500 
L 1159 2956 
Q 1341 3275 1631 3429 
Q 1922 3584 2338 3584 
Q 2397 3584 2469 3576 
Q 2541 3569 2628 3553 
L 2631 2963 
z
" transform="scale(0.015625)"/>
       <path id="DejaVuSans-79" d="M 2059 -325 
Q 1816 -950 1584 -1140 
Q 1353 -1331 966 -1331 
L 506 -1331 
L 506 -850 
L 844 -850 
Q 1081 -850 1212 -737 
Q 1344 -625 1503 -206 
L 1606 56 
L 191 3500 
L 800 3500 
L 1894 763 
L 2988 3500 
L 3597 3500 
L 2059 -325 
z
" transform="scale(0.015625)"/>
      </defs>
      <use xlink:href="#DejaVuSans-78"/>
      <use xlink:href="#DejaVuSans-20" transform="translate(59.179688 0)"/>
      <use xlink:href="#DejaVuSans-6f" transform="translate(90.966797 0)"/>
      <use xlink:href="#DejaVuSans-72" transform="translate(152.148438 0)"/>
      <use xlink:href="#DejaVuSans-20" transform="translate(193.261719 0)"/>
      <use xlink:href="#DejaVuSans-79" transform="translate(225.048828 0)"/>
     </g>
    </g>
   </g>
   <g id="matplotlib.axis_2">
    <g id="ytick_1">
     <g id="line2d_11">
      <path d="M 40.603125 286.910437 
L 397.723125 286.910437 
" clip-path="url(#pc9f33ff36a)" style="fill: none; stroke: #b0b0b0; stroke-opacity: 0.3; stroke-width: 0.8; stroke-linecap: square"/>
     </g>
     <g id="line2d_12">
      <defs>
       <path id="m603c7bfad5" d="M 0 0 
L -3.5 0 
" style="stroke: #000000; stroke-width: 0.8"/>
      </defs>
      <g>
       <use xlink:href="#m603c7bfad5" x="40.603125" y="286.910437" style="stroke: #000000; stroke-width: 0.8"/>
      </g>
     </g>
     <g id="text_7">
      <!-- 0 -->
      <g transform="translate(27.240625 290.709656) scale(0.1 -0.1)">
       <use xlink:href="#DejaVuSans-30"/>
      </g>
     </g>
    </g>
    <g id="ytick_2">
     <g id="line2d_13">
      <path d="M 40.603125 240.846355 
L 397.723125 240.846355 
" clip-path="url(#pc9f33ff36a)" style="fill: none; stroke: #b0b0b0; stroke-opacity: 0.3; stroke-width: 0.8; stroke-linecap: square"/>
     </g>
     <g id="line2d_14">
      <g>
       <use xlink:href="#m603c7bfad5" x="40.603125" y="240.846355" style="stroke: #000000; stroke-width: 0.8"/>
      </g>
     </g>
     <g id="text_8">
      <!-- 10 -->
      <g transform="translate(20.878125 244.645574) scale(0.1 -0.1)">
       <defs>
        <path id="DejaVuSans-31" d="M 794 531 
L 1825 531 
L 1825 4091 
L 703 3866 
L 703 4441 
L 1819 4666 
L 2450 4666 
L 2450 531 
L 3481 531 
L 3481 0 
L 794 0 
L 794 531 
z
" transform="scale(0.015625)"/>
       </defs>
       <use xlink:href="#DejaVuSans-31"/>
       <use xlink:href="#DejaVuSans-30" transform="translate(63.623047 0)"/>
      </g>
     </g>
    </g>
    <g id="ytick_3">
     <g id="line2d_15">
      <path d="M 40.603125 194.782273 
L 397.723125 194.782273 
" clip-path="url(#pc9f33ff36a)" style="fill: none; stroke: #b0b0b0; stroke-opacity: 0.3; stroke-width: 0.8; stroke-linecap: square"/>
     </g>
     <g id="line2d_16">
      <g>
       <use xlink:href="#m603c7bfad5" x="40.603125" y="194.782273" style="stroke: #000000; stroke-width: 0.8"/>
      </g>
     </g>
     <g id="text_9">
      <!-- 20 -->
      <g transform="translate(20.878125 198.581491) scale(0.1 -0.1)">
       <use xlink:href="#DejaVuSans-32"/>
       <use xlink:href="#DejaVuSans-30" transform="translate(63.623047 0)"/>
      </g>
     </g>
    </g>
    <g id="ytick_4">
     <g id="line2d_17">
      <path d="M 40.603125 148.71819 
L 397.723125 148.71819 
" clip-path="url(#pc9f33ff36a)" style="fill: none; stroke: #b0b0b0; stroke-opacity: 0.3; stroke-width: 0.8; stroke-linecap: square"/>
     </g>
     <g id="line2d_18">
      <g>
       <use xlink:href="#m603c7bfad5" x="40.603125" y="148.71819" style="stroke: #000000; stroke-width: 0.8"/>
      </g>
     </g>
     <g id="text_10">
      <!-- 30 -->
      <g transform="translate(20.878125 152.517409) scale(0.1 -0.1)">
       <defs>
        <path id="DejaVuSans-33" d="M 2597 2516 
Q 3050 2419 3304 2112 
Q 3559 1806 3559 1356 
Q 3559 666 3084 287 
Q 2609 -91 1734 -91 
Q 1441 -91 1130 -33 
Q 819 25 488 141 
L 488 750 
Q 750 597 1062 519 
Q 1375 441 1716 441 
Q 2309 441 2620 675 
Q 2931 909 2931 1356 
Q 2931 1769 2642 2001 
Q 2353 2234 1838 2234 
L 1294 2234 
L 1294 2753 
L 1863 2753 
Q 2328 2753 2575 2939 
Q 2822 3125 2822 3475 
Q 2822 3834 2567 4026 
Q 2313 4219 1838 4219 
Q 1578 4219 1281 4162 
Q 984 4106 628 3988 
L 628 4550 
Q 988 4650 1302 4700 
Q 1616 4750 1894 4750 
Q 2613 4750 3031 4423 
Q 3450 4097 3450 3541 
Q 3450 3153 3228 2886 
Q 3006 2619 2597 2516 
z
" transform="scale(0.015625)"/>
       </defs>
       <use xlink:href="#DejaVuSans-33"/>
       <use xlink:href="#DejaVuSans-30" transform="translate(63.623047 0)"/>
      </g>
     </g>
    </g>
    <g id="ytick_5">
     <g id="line2d_19">
      <path d="M 40.603125 102.654108 
L 397.723125 102.654108 
" clip-path="url(#pc9f33ff36a)" style="fill: none; stroke: #b0b0b0; stroke-opacity: 0.3; stroke-width: 0.8; stroke-linecap: square"/>
     </g>
     <g id="line2d_20">
      <g>
       <use xlink:href="#m603c7bfad5" x="40.603125" y="102.654108" style="stroke: #000000; stroke-width: 0.8"/>
      </g>
     </g>
     <g id="text_11">
      <!-- 40 -->
      <g transform="translate(20.878125 106.453327) scale(0.1 -0.1)">
       <use xlink:href="#DejaVuSans-34"/>
       <use xlink:href="#DejaVuSans-30" transform="translate(63.623047 0)"/>
      </g>
     </g>
    </g>
    <g id="ytick_6">
     <g id="line2d_21">
      <path d="M 40.603125 56.590025 
L 397.723125 56.590025 
" clip-path="url(#pc9f33ff36a)" style="fill: none; stroke: #b0b0b0; stroke-opacity: 0.3; stroke-width: 0.8; stroke-linecap: square"/>
     </g>
     <g id="line2d_22">
      <g>
       <use xlink:href="#m603c7bfad5" x="40.603125" y="56.590025" style="stroke: #000000; stroke-width: 0.8"/>
      </g>
     </g>
     <g id="text_12">
      <!-- 50 -->
      <g transform="translate(20.878125 60.389244) scale(0.1 -0.1)">
       <defs>
        <path id="DejaVuSans-35" d="M 691 4666 
L 3169 4666 
L 3169 4134 
L 1269 4134 
L 1269 2991 
Q 1406 3038 1543 3061 
Q 1681 3084 1819 3084 
Q 2600 3084 3056 2656 
Q 3513 2228 3513 1497 
Q 3513 744 3044 326 
Q 2575 -91 1722 -91 
Q 1428 -91 1123 -41 
Q 819 9 494 109 
L 494 744 
Q 775 591 1075 516 
Q 1375 441 1709 441 
Q 2250 441 2565 725 
Q 2881 1009 2881 1497 
Q 2881 1984 2565 2268 
Q 2250 2553 1709 2553 
Q 1456 2553 1204 2497 
Q 953 2441 691 2322 
L 691 4666 
z
" transform="scale(0.015625)"/>
       </defs>
       <use xlink:href="#DejaVuSans-35"/>
       <use xlink:href="#DejaVuSans-30" transform="translate(63.623047 0)"/>
      </g>
     </g>
    </g>
    <g id="text_13">
     <!-- Entries -->
     <g transform="translate(14.798438 171.2685) rotate(-90) scale(0.1 -0.1)">
      <defs>
       <path id="DejaVuSans-45" d="M 628 4666 
L 3578 4666 
L 3578 4134 
L 1259 4134 
L 1259 2753 
L 3481 2753 
L 3481 2222 
L 1259 2222 
L 1259 531 
L 3634 531 
L 3634 0 
L 628 0 
L 628 4666 
z
" transform="scale(0.015625)"/>
       <path id="DejaVuSans-6e" d="M 3513 2113 
L 3513 0 
L 2938 0 
L 2938 2094 
Q 2938 2591 2744 2837 
Q 2550 3084 2163 3084 
Q 1697 3084 1428 2787 
Q 1159 2491 1159 1978 
L 1159 0 
L 581 0 
L 581 3500 
L 1159 3500 
L 1159 2956 
Q 1366 3272 1645 3428 
Q 1925 3584 2291 3584 
Q 2894 3584 3203 3211 
Q 3513 2838 3513 2113 
z
" transform="scale(0.015625)"/>
       <path id="DejaVuSans-74" d="M 1172 4494 
L 1172 3500 
L 2356 3500 
L 2356 3053 
L 1172 3053 
L 1172 1153 
Q 1172 725 1289 603 
Q 1406 481 1766 481 
L 2356 481 
L 2356 0 
L 1766 0 
Q 1100 0 847 248 
Q 594 497 594 1153 
L 594 3053 
L 172 3053 
L 172 3500 
L 594 3500 
L 594 4494 
L 1172 4494 
z
" transform="scale(0.015625)"/>
       <path id="DejaVuSans-69" d="M 603 3500 
L 1178 3500 
L 1178 0 
L 603 0 
L 603 3500 
z
M 603 4863 
L 1178 4863 
L 1178 4134 
L 603 4134 
L 603 4863 
z
" transform="scale(0.015625)"/>
       <path id="DejaVuSans-65" d="M 3597 1894 
L 3597 1613 
L 953 1613 
Q 991 1019 1311 708 
Q 1631 397 2203 397 
Q 2534 397 2845 478 
Q 3156 559 3463 722 
L 3463 178 
Q 3153 47 2828 -22 
Q 2503 -91 2169 -91 
Q 1331 -91 842 396 
Q 353 884 353 1716 
Q 353 2575 817 3079 
Q 1281 3584 2069 3584 
Q 2775 3584 3186 3129 
Q 3597 2675 3597 1894 
z
M 3022 2063 
Q 3016 2534 2758 2815 
Q 2500 3097 2075 3097 
Q 1594 3097 1305 2825 
Q 1016 2553 972 2059 
L 3022 2063 
z
" transform="scale(0.015625)"/>
       <path id="DejaVuSans-73" d="M 2834 3397 
L 2834 2853 
Q 2591 2978 2328 3040 
Q 2066 3103 1784 3103 
Q 1356 3103 1142 2972 
Q 928 2841 928 2578 
Q 928 2378 1081 2264 
Q 1234 2150 1697 2047 
L 1894 2003 
Q 2506 1872 2764 1633 
Q 3022 1394 3022 966 
Q 3022 478 2636 193 
Q 2250 -91 1575 -91 
Q 1294 -91 989 -36 
Q 684 19 347 128 
L 347 722 
Q 666 556 975 473 
Q 1284 391 1588 391 
Q 1994 391 2212 530 
Q 2431 669 2431 922 
Q 2431 1156 2273 1281 
Q 2116 1406 1581 1522 
L 1381 1569 
Q 847 1681 609 1914 
Q 372 2147 372 2553 
Q 372 3047 722 3315 
Q 1072 3584 1716 3584 
Q 2034 3584 2315 3537 
Q 2597 3491 2834 3397 
z
" transform="scale(0.015625)"/>
      </defs>
      <use xlink:href="#DejaVuSans-45"/>
      <use xlink:href="#DejaVuSans-6e" transform="translate(63.183594 0)"/>
      <use xlink:href="#DejaVuSans-74" transform="translate(126.5625 0)"/>
      <use xlink:href="#DejaVuSans-72" transform="translate(165.771484 0)"/>
      <use xlink:href="#DejaVuSans-69" transform="translate(206.884766 0)"/>
      <use xlink:href="#DejaVuSans-65" transform="translate(234.667969 0)"/>
      <use xlink:href="#DejaVuSans-73" transform="translate(296.191406 0)"/>
     </g>
    </g>
   </g>
   <g id="patch_5">
    <path d="M 40.603125 286.910437 
L 40.603125 20.798437 
" style="fill: none; stroke: #000000; stroke-width: 0.8; stroke-linejoin: miter; stroke-linecap: square"/>
   </g>
   <g id="patch_6">
    <path d="M 397.723125 286.910437 
L 397.723125 20.798437 
" style="fill: none; stroke: #000000; stroke-width: 0.8; stroke-linejoin: miter; stroke-linecap: square"/>
   </g>
   <g id="patch_7">
    <path d="M 40.603125 286.910437 
L 397.723125 286.910437 
" style="fill: none; stroke: #000000; stroke-width: 0.8; stroke-linejoin: miter; stroke-linecap: square"/>
   </g>
   <g id="patch_8">
    <path d="M 40.603125 20.798437 
L 397.723125 20.798437 
" style="fill: none; stroke: #000000; stroke-width: 0.8; stroke-linejoin: miter; stroke-linecap: square"/>
   </g>
   <g id="text_14">
    <!-- X/Y distributions -->
    <g transform="translate(178.313125 14.798437) scale(0.1 -0.1)">
     <defs>
      <path id="DejaVuSans-58" d="M 403 4666 
L 1081 4666 
L 2241 2931 
L 3406 4666 
L 4084 4666 
L 2584 2425 
L 4184 0 
L 3506 0 
L 2194 1984 
L 872 0 
L 191 0 
L 1856 2491 
L 403 4666 
z
" transform="scale(0.015625)"/>
      <path id="DejaVuSans-2f" d="M 1625 4666 
L 2156 4666 
L 531 -594 
L 0 -594 
L 1625 4666 
z
" transform="scale(0.015625)"/>
      <path id="DejaVuSans-59" d="M -13 4666 
L 666 4666 
L 1959 2747 
L 3244 4666 
L 3922 4666 
L 2272 2222 
L 2272 0 
L 1638 0 
L 1638 2222 
L -13 4666 
z
" transform="scale(0.015625)"/>
      <path id="DejaVuSans-64" d="M 2906 2969 
L 2906 4863 
L 3481 4863 
L 3481 0 
L 2906 0 
L 2906 525 
Q 2725 213 2448 61 
Q 2172 -91 1784 -91 
Q 1150 -91 751 415 
Q 353 922 353 1747 
Q 353 2572 751 3078 
Q 1150 3584 1784 3584 
Q 2172 3584 2448 3432 
Q 2725 3281 2906 2969 
z
M 947 1747 
Q 947 1113 1208 752 
Q 1469 391 1925 391 
Q 2381 391 2643 752 
Q 2906 1113 2906 1747 
Q 2906 2381 2643 2742 
Q 2381 3103 1925 3103 
Q 1469 3103 1208 2742 
Q 947 2381 947 1747 
z
" transform="scale(0.015625)"/>
      <path id="DejaVuSans-62" d="M 3116 1747 
Q 3116 2381 2855 2742 
Q 2594 3103 2138 3103 
Q 1681 3103 1420 2742 
Q 1159 2381 1159 1747 
Q 1159 1113 1420 752 
Q 1681 391 2138 391 
Q 2594 391 2855 752 
Q 3116 1113 3116 1747 
z
M 1159 2969 
Q 1341 3281 1617 3432 
Q 1894 3584 2278 3584 
Q 2916 3584 3314 3078 
Q 3713 2572 3713 1747 
Q 3713 922 3314 415 
Q 2916 -91 2278 -91 
Q 1894 -91 1617 61 
Q 1341 213 1159 525 
L 1159 0 
L 581 0 
L 581 4863 
L 1159 4863 
L 1159 2969 
z
" transform="scale(0.015625)"/>
      <path id="DejaVuSans-75" d="M 544 1381 
L 544 3500 
L 1119 3500 
L 1119 1403 
Q 1119 906 1312 657 
Q 1506 409 1894 409 
Q 2359 409 2629 706 
Q 2900 1003 2900 1516 
L 2900 3500 
L 3475 3500 
L 3475 0 
L 2900 0 
L 2900 538 
Q 2691 219 2414 64 
Q 2138 -91 1772 -91 
Q 1169 -91 856 284 
Q 544 659 544 1381 
z
M 1991 3584 
L 1991 3584 
z
" transform="scale(0.015625)"/>
     </defs>
     <use xlink:href="#DejaVuSans-58"/>
     <use xlink:href="#DejaVuSans-2f" transform="translate(68.505859 0)"/>
     <use xlink:href="#DejaVuSans-59" transform="translate(102.197266 0)"/>
     <use xlink:href="#DejaVuSans-20" transform="translate(163.28125 0)"/>
     <use xlink:href="#DejaVuSans-64" transform="translate(195.068359 0)"/>
     <use xlink:href="#DejaVuSans-69" transform="translate(258.544922 0)"/>
     <use xlink:href="#DejaVuSans-73" transform="translate(286.328125 0)"/>
     <use xlink:href="#DejaVuSans-74" transform="translate(338.427734 0)"/>
     <use xlink:href="#DejaVuSans-72" transform="translate(377.636719 0)"/>
     <use xlink:href="#DejaVuSans-69" transform="translate(418.75 0)"/>
     <use xlink:href="#DejaVuSans-62" transform="translate(446.533203 0)"/>
     <use xlink:href="#DejaVuSans-75" transform="translate(510.009766 0)"/>
     <use xlink:href="#DejaVuSans-74" transform="translate(573.388672 0)"/>
     <use xlink:href="#DejaVuSans-69" transform="translate(612.597656 0)"/>
     <use xlink:href="#DejaVuSans-6f" transform="translate(640.380859 0)"/>
     <use xlink:href="#DejaVuSans-6e" transform="translate(701.5625 0)"/>
     <use xlink:href="#DejaVuSans-73" transform="translate(764.941406 0)"/>
    </g>
   </g>
   <g id="legend_1">
    <g id="patch_9">
     <path d="M 346.466875 58.154687 
L 390.723125 58.154687 
Q 392.723125 58.154687 392.723125 56.154687 
L 392.723125 27.798437 
Q 392.723125 25.798437 390.723125 25.798437 
L 346.466875 25.798437 
Q 344.466875 25.798437 344.466875 27.798437 
L 344.466875 56.154687 
Q 344.466875 58.154687 346.466875 58.154687 
z
" style="fill: #ffffff; opacity: 0.8; stroke: #cccccc; stroke-linejoin: miter"/>
    </g>
    <g id="line2d_23">
     <path d="M 348.466875 33.896875 
L 368.466875 33.896875 
" style="fill: none; stroke: #1f77b4; stroke-width: 1.5; stroke-linecap: square"/>
    </g>
    <g id="text_15">
     <!-- hx -->
     <g transform="translate(376.466875 37.396875) scale(0.1 -0.1)">
      <defs>
       <path id="DejaVuSans-68" d="M 3513 2113 
L 3513 0 
L 2938 0 
L 2938 2094 
Q 2938 2591 2744 2837 
Q 2550 3084 2163 3084 
Q 1697 3084 1428 2787 
Q 1159 2491 1159 1978 
L 1159 0 
L 581 0 
L 581 4863 
L 1159 4863 
L 1159 2956 
Q 1366 3272 1645 3428 
Q 1925 3584 2291 3584 
Q 2894 3584 3203 3211 
Q 3513 2838 3513 2113 
z
" transform="scale(0.015625)"/>
      </defs>
      <use xlink:href="#DejaVuSans-68"/>
      <use xlink:href="#DejaVuSans-78" transform="translate(63.378906 0)"/>
     </g>
    </g>
    <g id="line2d_24">
     <path d="M 348.466875 48.575 
L 368.466875 48.575 
" style="fill: none; stroke-dasharray: 5.55,2.4; stroke-dashoffset: 0; stroke: #ff7f0e; stroke-width: 1.5"/>
    </g>
    <g id="text_16">
     <!-- hy -->
     <g transform="translate(376.466875 52.075) scale(0.1 -0.1)">
      <use xlink:href="#DejaVuSans-68"/>
      <use xlink:href="#DejaVuSans-79" transform="translate(63.378906 0)"/>
     </g>
    </g>
   </g>
  </g>
 </g>
 <defs>
  <clipPath id="pc9f33ff36a">
   <rect x="40.603125" y="20.798437" width="357.12" height="266.112"/>
  </clipPath>
 </defs>
</svg>
