<?xml version="1.0" encoding="utf-8" standalone="no"?>
<!DOCTYPE svg PUBLIC "-//W3C//DTD SVG 1.1//EN"
  "http://www.w3.org/Graphics/SVG/1.1/DTD/svg11.dtd">
<svg xmlns:xlink="http://www.w3.org/1999/xlink" width="408.10125pt" height="310.788563pt" viewBox="0 0 408.10125 310.788563" xmlns="http://www.w3.org/2000/svg" version="1.1">
 <metadata>
  <rdf:RDF xmlns:dc="http://purl.org/dc/elements/1.1/" xmlns:cc="http://creativecommons.org/ns#" xmlns:rdf="http://www.w3.org/1999/02/22-rdf-syntax-ns#">
   <cc:Work>
    <dc:type rdf:resource="http://purl.org/dc/dcmitype/StillImage"/>
    <dc:date>2026-03-27T06:04:43.838286</dc:date>
    <dc:format>image/svg+xml</dc:format>
    <dc:creator>
     <cc:Agent>
      <dc:title>Matplotlib v3.10.8, https://matplotlib.org/</dc:title>
     </cc:Agent>
    </dc:creator>
   </cc:Work>
  </rdf:RDF>
 </metadata>
 <defs>
  <style type="text/css">*{stroke-linejoin: round; stroke-linecap: butt}</style>
 </defs>
 <g id="figure_1">
  <g id="patch_1">
   <path d="M 0 310.788563 
L 408.10125 310.788563 
L 408.10125 0 
L 0 0 
z
" style="fill: #ffffff"/>
  </g>
  <g id="axes_1">
   <g id="patch_2">
    <path d="M 43.78125 215.514535 
L 400.90125 215.514535 
L 400.90125 20.798437 
L 43.78125 20.798437 
z
" style="fill: #ffffff"/>
   </g>
   <g id="FillBetweenPolyCollection_1">
    <defs>
     <path id="m774e8668a8" d="M 63.260523 -95.797043 
L 63.260523 -95.274027 
L 69.753614 -95.274027 
L 76.246705 -95.274027 
L 82.739795 -95.274027 
L 89.232886 -95.474932 
L 95.725977 -95.274027 
L 102.219068 -95.480347 
L 108.712159 -96.334874 
L 115.20525 -97.525458 
L 121.698341 -97.74725 
L 128.191432 -100.014925 
L 134.684523 -105.484117 
L 141.177614 -106.39921 
L 147.670705 -115.57041 
L 154.163795 -117.880893 
L 160.656886 -143.101819 
L 167.149977 -132.440076 
L 173.643068 -161.599629 
L 180.136159 -145.297721 
L 186.62925 -167.339631 
L 193.122341 -191.50791 
L 199.615432 -206.484461 
L 206.108523 -196.283413 
L 212.601614 -213.302157 
L 219.094705 -191.192538 
L 225.587795 -215.798261 
L 232.080886 -211.628527 
L 238.573977 -205.13252 
L 245.067068 -205.37837 
L 251.560159 -199.376839 
L 258.05325 -149.427025 
L 264.546341 -153.997529 
L 271.039432 -133.790711 
L 277.532523 -125.576307 
L 284.025614 -135.708938 
L 290.518705 -123.408202 
L 297.011795 -105.307414 
L 303.504886 -113.76386 
L 309.997977 -103.496067 
L 316.491068 -97.27013 
L 322.984159 -98.376834 
L 329.47725 -96.701263 
L 335.970341 -96.022505 
L 342.463432 -96.203236 
L 348.956523 -95.274027 
L 355.449614 -95.549803 
L 361.942705 -95.274027 
L 368.435795 -95.274027 
L 374.928886 -95.274027 
L 381.421977 -95.274027 
L 381.421977 -95.495115 
L 381.421977 -95.495115 
L 374.928886 -95.274027 
L 368.435795 -95.983815 
L 361.942705 -96.137769 
L 355.449614 -96.971835 
L 348.956523 -95.274027 
L 342.463432 -98.79643 
L 335.970341 -98.434247 
L 329.47725 -99.952473 
L 322.984159 -103.027774 
L 316.491068 -101.276096 
L 309.997977 -110.990693 
L 303.504886 -125.244721 
L 297.011795 -114.999933 
L 290.518705 -139.357407 
L 284.025614 -155.113943 
L 277.532523 -143.79802 
L 271.039432 -153.691711 
L 264.546341 -179.506421 
L 258.05325 -173.812262 
L 251.560159 -234.601845 
L 245.067068 -242.028415 
L 238.573977 -241.596826 
L 232.080886 -249.70494 
L 225.587795 -254.35206 
L 219.094705 -225.574828 
L 212.601614 -251.126502 
L 206.108523 -230.353677 
L 199.615432 -242.257461 
L 193.122341 -224.539544 
L 186.62925 -195.985293 
L 180.136159 -169.093564 
L 173.643068 -188.128408 
L 167.149977 -151.532722 
L 160.656886 -164.024888 
L 154.163795 -131.592344 
L 147.670705 -128.456617 
L 141.177614 -115.701336 
L 134.684523 -114.072908 
L 128.191432 -106.182422 
L 121.698341 -101.940231 
L 115.20525 -101.365908 
L 108.712159 -99.294458 
L 102.219068 -96.4766 
L 95.725977 -95.274027 
L 89.232886 -96.554568 
L 82.739795 -96.036295 
L 76.246705 -95.274027 
L 69.753614 -95.274027 
L 63.260523 -95.797043 
z
" style="stroke: #1f77b4; stroke-opacity: 0.35"/>
    </defs>
    <g clip-path="url(#p96b15475e3)">
     <use xlink:href="#m774e8668a8" x="0" y="310.788563" style="fill: #1f77b4; fill-opacity: 0.35; stroke: #1f77b4; stroke-opacity: 0.35"/>
    </g>
   </g>
   <g id="FillBetweenPolyCollection_2">
    <defs>
     <path id="m9a96790325" d="M 63.260523 -95.274027 
L 63.260523 -95.274027 
L 69.753614 -95.274027 
L 76.246705 -95.274027 
L 82.739795 -95.56227 
L 89.232886 -95.538444 
L 95.725977 -95.274027 
L 102.219068 -95.595063 
L 108.712159 -96.786918 
L 115.20525 -95.776573 
L 121.698341 -99.225688 
L 128.191432 -100.437405 
L 134.684523 -104.364444 
L 141.177614 -106.934683 
L 147.670705 -102.655142 
L 154.163795 -115.632728 
L 160.656886 -128.8858 
L 167.149977 -128.626579 
L 173.643068 -143.667899 
L 180.136159 -143.960715 
L 186.62925 -172.766082 
L 193.122341 -175.932707 
L 199.615432 -225.004816 
L 206.108523 -191.590948 
L 212.601614 -213.3745 
L 219.094705 -220.743621 
L 225.587795 -238.400146 
L 232.080886 -216.996812 
L 238.573977 -204.705863 
L 245.067068 -166.723273 
L 251.560159 -204.261203 
L 258.05325 -162.110189 
L 264.546341 -145.635557 
L 271.039432 -135.394824 
L 277.532523 -142.720459 
L 284.025614 -130.956802 
L 290.518705 -112.702543 
L 297.011795 -115.690528 
L 303.504886 -116.55687 
L 309.997977 -101.261968 
L 316.491068 -98.541358 
L 322.984159 -100.312653 
L 329.47725 -98.308402 
L 335.970341 -97.880864 
L 342.463432 -95.669783 
L 348.956523 -95.274027 
L 355.449614 -96.233521 
L 361.942705 -95.53358 
L 368.435795 -95.274027 
L 374.928886 -95.274027 
L 381.421977 -95.274027 
L 381.421977 -95.274027 
L 381.421977 -95.274027 
L 374.928886 -95.274027 
L 368.435795 -95.274027 
L 361.942705 -96.78697 
L 355.449614 -98.160363 
L 348.956523 -96.30309 
L 342.463432 -97.783227 
L 335.970341 -101.556423 
L 329.47725 -102.136681 
L 322.984159 -106.052367 
L 316.491068 -103.524321 
L 309.997977 -108.179295 
L 303.504886 -129.201685 
L 297.011795 -128.729605 
L 290.518705 -125.764519 
L 284.025614 -149.650305 
L 277.532523 -164.351248 
L 271.039432 -155.829142 
L 264.546341 -168.721781 
L 258.05325 -189.701389 
L 251.560159 -240.297706 
L 245.067068 -196.383824 
L 238.573977 -241.172725 
L 232.080886 -255.206358 
L 225.587795 -280.71793 
L 219.094705 -259.62972 
L 212.601614 -251.000736 
L 206.108523 -225.659952 
L 199.615432 -264.074785 
L 193.122341 -206.05023 
L 186.62925 -201.899766 
L 180.136159 -166.575128 
L 173.643068 -165.800383 
L 167.149977 -146.57925 
L 160.656886 -146.470608 
L 154.163795 -129.49718 
L 147.670705 -110.584316 
L 141.177614 -116.55855 
L 134.684523 -112.576937 
L 128.191432 -106.254545 
L 121.698341 -104.234192 
L 115.20525 -98.311632 
L 108.712159 -99.854027 
L 102.219068 -97.374898 
L 95.725977 -95.274027 
L 89.232886 -96.832578 
L 82.739795 -96.956196 
L 76.246705 -95.274027 
L 69.753614 -95.965721 
L 63.260523 -95.274027 
z
" style="stroke: #ff7f0e; stroke-opacity: 0.35"/>
    </defs>
    <g clip-path="url(#p96b15475e3)">
     <use xlink:href="#m9a96790325" x="0" y="310.788563" style="fill: #ff7f0e; fill-opacity: 0.35; stroke: #ff7f0e; stroke-opacity: 0.35"/>
    </g>
   </g>
   <g id="patch_3">
    <path d="M 60.013977 215.514535 
L 60.013977 215.253027 
L 66.507068 215.253027 
L 66.507068 215.514535 
L 73.000159 215.514535 
L 73.000159 215.514535 
L 79.49325 215.514535 
L 79.49325 215.133401 
L 85.986341 215.133401 
L 85.986341 214.773813 
L 92.479432 214.773813 
L 92.479432 215.514535 
L 98.972523 215.514535 
L 98.972523 214.810089 
L 105.465614 214.810089 
L 105.465614 212.973897 
L 111.958705 212.973897 
L 111.958705 211.342879 
L 118.451795 211.342879 
L 118.451795 210.944822 
L 124.944886 210.944822 
L 124.944886 207.689889 
L 131.437977 207.689889 
L 131.437977 201.01005 
L 137.931068 201.01005 
L 137.931068 199.73829 
L 144.424159 199.73829 
L 144.424159 188.775049 
L 150.91725 188.775049 
L 150.91725 186.051944 
L 157.410341 186.051944 
L 157.410341 157.225209 
L 163.903432 157.225209 
L 163.903432 168.802164 
L 170.396523 168.802164 
L 170.396523 135.924544 
L 176.889614 135.924544 
L 176.889614 153.59292 
L 183.382705 153.59292 
L 183.382705 129.126101 
L 189.875795 129.126101 
L 189.875795 102.764835 
L 196.368886 102.764835 
L 196.368886 86.417602 
L 202.861977 86.417602 
L 202.861977 97.470018 
L 209.355068 97.470018 
L 209.355068 78.574233 
L 215.848159 78.574233 
L 215.848159 102.40488 
L 222.34125 102.40488 
L 222.34125 75.713402 
L 228.834341 75.713402 
L 228.834341 80.121829 
L 235.327432 80.121829 
L 235.327432 87.423889 
L 241.820523 87.423889 
L 241.820523 87.08517 
L 248.313614 87.08517 
L 248.313614 93.79922 
L 254.806705 93.79922 
L 254.806705 149.168919 
L 261.299795 149.168919 
L 261.299795 144.036587 
L 267.792886 144.036587 
L 267.792886 167.047351 
L 274.285977 167.047351 
L 274.285977 176.101399 
L 280.779068 176.101399 
L 280.779068 165.377122 
L 287.272159 165.377122 
L 287.272159 179.405758 
L 293.76525 179.405758 
L 293.76525 200.634889 
L 300.258341 200.634889 
L 300.258341 191.284272 
L 306.751432 191.284272 
L 306.751432 203.545182 
L 313.244523 203.545182 
L 313.244523 211.51545 
L 319.737614 211.51545 
L 319.737614 210.086258 
L 326.230705 210.086258 
L 326.230705 212.461695 
L 332.723795 212.461695 
L 332.723795 213.560186 
L 339.216886 213.560186 
L 339.216886 213.288729 
L 345.709977 213.288729 
L 345.709977 215.514535 
L 352.203068 215.514535 
L 352.203068 214.527743 
L 358.696159 214.527743 
L 358.696159 215.082664 
L 365.18925 215.082664 
L 365.18925 215.159641 
L 371.682341 215.159641 
L 371.682341 215.514535 
L 378.175432 215.514535 
L 378.175432 215.403991 
L 384.668523 215.403991 
L 384.668523 215.514535 
" clip-path="url(#p96b15475e3)" style="fill: none; stroke: #1f77b4; stroke-width: 1.5; stroke-linejoin: miter"/>
   </g>
   <g id="patch_4">
    <path d="M 60.013977 215.514535 
L 60.013977 215.514535 
L 66.507068 215.514535 
L 66.507068 215.168688 
L 73.000159 215.168688 
L 73.000159 215.514535 
L 79.49325 215.514535 
L 79.49325 214.52933 
L 85.986341 214.52933 
L 85.986341 214.603051 
L 92.479432 214.603051 
L 92.479432 215.514535 
L 98.972523 215.514535 
L 98.972523 214.303582 
L 105.465614 214.303582 
L 105.465614 212.46809 
L 111.958705 212.46809 
L 111.958705 213.74446 
L 118.451795 213.74446 
L 118.451795 209.058623 
L 124.944886 209.058623 
L 124.944886 207.442587 
L 131.437977 207.442587 
L 131.437977 202.317872 
L 137.931068 202.317872 
L 137.931068 199.041946 
L 144.424159 199.041946 
L 144.424159 204.168834 
L 150.91725 204.168834 
L 150.91725 188.223608 
L 157.410341 188.223608 
L 157.410341 173.110358 
L 163.903432 173.110358 
L 163.903432 173.185648 
L 170.396523 173.185648 
L 170.396523 156.054422 
L 176.889614 156.054422 
L 176.889614 155.520641 
L 183.382705 155.520641 
L 183.382705 123.455638 
L 189.875795 123.455638 
L 189.875795 119.797094 
L 196.368886 119.797094 
L 196.368886 66.248762 
L 202.861977 66.248762 
L 202.861977 102.163112 
L 209.355068 102.163112 
L 209.355068 78.600944 
L 215.848159 78.600944 
L 215.848159 70.601892 
L 222.34125 70.601892 
L 222.34125 51.229525 
L 228.834341 51.229525 
L 228.834341 74.686977 
L 235.327432 74.686977 
L 235.327432 87.849268 
L 241.820523 87.849268 
L 241.820523 129.235014 
L 248.313614 129.235014 
L 248.313614 88.509108 
L 254.806705 88.509108 
L 254.806705 134.882773 
L 261.299795 134.882773 
L 261.299795 153.609894 
L 267.792886 153.609894 
L 267.792886 165.17658 
L 274.285977 165.17658 
L 274.285977 157.252709 
L 280.779068 157.252709 
L 280.779068 170.485009 
L 287.272159 170.485009 
L 287.272159 191.555031 
L 293.76525 191.555031 
L 293.76525 188.578496 
L 300.258341 188.578496 
L 300.258341 187.909285 
L 306.751432 187.909285 
L 306.751432 206.067931 
L 313.244523 206.067931 
L 313.244523 209.755723 
L 319.737614 209.755723 
L 319.737614 207.606052 
L 326.230705 207.606052 
L 326.230705 210.566021 
L 332.723795 210.566021 
L 332.723795 211.069919 
L 339.216886 211.069919 
L 339.216886 214.062057 
L 345.709977 214.062057 
L 345.709977 215.000004 
L 352.203068 215.000004 
L 352.203068 213.591621 
L 358.696159 213.591621 
L 358.696159 214.628287 
L 365.18925 214.628287 
L 365.18925 215.514535 
L 371.682341 215.514535 
L 371.682341 215.514535 
L 378.175432 215.514535 
L 378.175432 215.514535 
L 384.668523 215.514535 
L 384.668523 215.514535 
" clip-path="url(#p96b15475e3)" style="fill: none; stroke-dasharray: 5.55,2.4; stroke-dashoffset: 0; stroke: #ff7f0e; stroke-width: 1.5; stroke-linejoin: miter"/>
   </g>
   <g id="matplotlib.axis_1">
    <g id="xtick_1">
     <g id="line2d_1">
      <path d="M 92.479432 215.514535 
L 92.479432 20.798437 
" clip-path="url(#p96b15475e3)" style="fill: none; stroke: #b0b0b0; stroke-opacity: 0.3; stroke-width: 0.8; stroke-linecap: square"/>
     </g>
     <g id="line2d_2">
      <defs>
       <path id="m83aaf5ec9e" d="M 0 0 
L 0 3.5 
" style="stroke: #000000; stroke-width: 0.8"/>
      </defs>
      <g>
       <use xlink:href="#m83aaf5ec9e" x="92.479432" y="215.514535" style="stroke: #000000; stroke-width: 0.8"/>
      </g>
     </g>
    </g>
    <g id="xtick_2">
     <g id="line2d_3">
      <path d="M 157.410341 215.514535 
L 157.410341 20.798437 
" clip-path="url(#p96b15475e3)" style="fill: none; stroke: #b0b0b0; stroke-opacity: 0.3; stroke-width: 0.8; stroke-linecap: square"/>
     </g>
     <g id="line2d_4">
      <g>
       <use xlink:href="#m83aaf5ec9e" x="157.410341" y="215.514535" style="stroke: #000000; stroke-width: 0.8"/>
      </g>
     </g>
    </g>
    <g id="xtick_3">
     <g id="line2d_5">
      <path d="M 222.34125 215.514535 
L 222.34125 20.798437 
" clip-path="url(#p96b15475e3)" style="fill: none; stroke: #b0b0b0; stroke-opacity: 0.3; stroke-width: 0.8; stroke-linecap: square"/>
     </g>
     <g id="line2d_6">
      <g>
       <use xlink:href="#m83aaf5ec9e" x="222.34125" y="215.514535" style="stroke: #000000; stroke-width: 0.8"/>
      </g>
     </g>
    </g>
    <g id="xtick_4">
     <g id="line2d_7">
      <path d="M 287.272159 215.514535 
L 287.272159 20.798437 
" clip-path="url(#p96b15475e3)" style="fill: none; stroke: #b0b0b0; stroke-opacity: 0.3; stroke-width: 0.8; stroke-linecap: square"/>
     </g>
     <g id="line2d_8">
      <g>
       <use xlink:href="#m83aaf5ec9e" x="287.272159" y="215.514535" style="stroke: #000000; stroke-width: 0.8"/>
      </g>
     </g>
    </g>
    <g id="xtick_5">
     <g id="line2d_9">
      <path d="M 352.203068 215.514535 
L 352.203068 20.798437 
" clip-path="url(#p96b15475e3)" style="fill: none; stroke: #b0b0b0; stroke-opacity: 0.3; stroke-width: 0.8; stroke-linecap: square"/>
     </g>
     <g id="line2d_10">
      <g>
       <use xlink:href="#m83aaf5ec9e" x="352.203068" y="215.514535" style="stroke: #000000; stroke-width: 0.8"/>
      </g>
     </g>
    </g>
   </g>
   <g id="matplotlib.axis_2">
    <g id="ytick_1">
     <g id="line2d_11">
      <path d="M 43.78125 215.514535 
L 400.90125 215.514535 
" clip-path="url(#p96b15475e3)" style="fill: none; stroke: #b0b0b0; stroke-opacity: 0.3; stroke-width: 0.8; stroke-linecap: square"/>
     </g>
     <g id="line2d_12">
      <defs>
       <path id="m55b9053ab7" d="M 0 0 
L -3.5 0 
" style="stroke: #000000; stroke-width: 0.8"/>
      </defs>
      <g>
       <use xlink:href="#m55b9053ab7" x="43.78125" y="215.514535" style="stroke: #000000; stroke-width: 0.8"/>
      </g>
     </g>
     <g id="text_1">
      <!-- 0 -->
      <g transform="translate(30.41875 219.313754) scale(0.1 -0.1)">
       <defs>
        <path id="DejaVuSans-30" d="M 2034 4250 
Q 1547 4250 1301 3770 
Q 1056 3291 1056 2328 
Q 1056 1369 1301 889 
Q 1547 409 2034 409 
Q 2525 409 2770 889 
Q 3016 1369 3016 2328 
Q 3016 3291 2770 3770 
Q 2525 4250 2034 4250 
z
M 2034 4750 
Q 2819 4750 3233 4129 
Q 3647 3509 3647 2328 
Q 3647 1150 3233 529 
Q 2819 -91 2034 -91 
Q 1250 -91 836 529 
Q 422 1150 422 2328 
Q 422 3509 836 4129 
Q 1250 4750 2034 4750 
z
" transform="scale(0.015625)"/>
       </defs>
       <use xlink:href="#DejaVuSans-30"/>
      </g>
     </g>
    </g>
    <g id="ytick_2">
     <g id="line2d_13">
      <path d="M 43.78125 185.654851 
L 400.90125 185.654851 
" clip-path="url(#p96b15475e3)" style="fill: none; stroke: #b0b0b0; stroke-opacity: 0.3; stroke-width: 0.8; stroke-linecap: square"/>
     </g>
     <g id="line2d_14">
      <g>
       <use xlink:href="#m55b9053ab7" x="43.78125" y="185.654851" style="stroke: #000000; stroke-width: 0.8"/>
      </g>
     </g>
     <g id="text_2">
      <!-- 10 -->
      <g transform="translate(24.05625 189.45407) scale(0.1 -0.1)">
       <defs>
        <path id="DejaVuSans-31" d="M 794 531 
L 1825 531 
L 1825 4091 
L 703 3866 
L 703 4441 
L 1819 4666 
L 2450 4666 
L 2450 531 
L 3481 531 
L 3481 0 
L 794 0 
L 794 531 
z
" transform="scale(0.015625)"/>
       </defs>
       <use xlink:href="#DejaVuSans-31"/>
       <use xlink:href="#DejaVuSans-30" transform="translate(63.623047 0)"/>
      </g>
     </g>
    </g>
    <g id="ytick_3">
     <g id="line2d_15">
      <path d="M 43.78125 155.795167 
L 400.90125 155.795167 
" clip-path="url(#p96b15475e3)" style="fill: none; stroke: #b0b0b0; stroke-opacity: 0.3; stroke-width: 0.8; stroke-linecap: square"/>
     </g>
     <g id="line2d_16">
      <g>
       <use xlink:href="#m55b9053ab7" x="43.78125" y="155.795167" style="stroke: #000000; stroke-width: 0.8"/>
      </g>
     </g>
     <g id="text_3">
      <!-- 20 -->
      <g transform="translate(24.05625 159.594386) scale(0.1 -0.1)">
       <defs>
        <path id="DejaVuSans-32" d="M 1228 531 
L 3431 531 
L 3431 0 
L 469 0 
L 469 531 
Q 828 903 1448 1529 
Q 2069 2156 2228 2338 
Q 2531 2678 2651 2914 
Q 2772 3150 2772 3378 
Q 2772 3750 2511 3984 
Q 2250 4219 1831 4219 
Q 1534 4219 1204 4116 
Q 875 4013 500 3803 
L 500 4441 
Q 881 4594 1212 4672 
Q 1544 4750 1819 4750 
Q 2544 4750 2975 4387 
Q 3406 4025 3406 3419 
Q 3406 3131 3298 2873 
Q 3191 2616 2906 2266 
Q 2828 2175 2409 1742 
Q 1991 1309 1228 531 
z
" transform="scale(0.015625)"/>
       </defs>
       <use xlink:href="#DejaVuSans-32"/>
       <use xlink:href="#DejaVuSans-30" transform="translate(63.623047 0)"/>
      </g>
     </g>
    </g>
    <g id="ytick_4">
     <g id="line2d_17">
      <path d="M 43.78125 125.935484 
L 400.90125 125.935484 
" clip-path="url(#p96b15475e3)" style="fill: none; stroke: #b0b0b0; stroke-opacity: 0.3; stroke-width: 0.8; stroke-linecap: square"/>
     </g>
     <g id="line2d_18">
      <g>
       <use xlink:href="#m55b9053ab7" x="43.78125" y="125.935484" style="stroke: #000000; stroke-width: 0.8"/>
      </g>
     </g>
     <g id="text_4">
      <!-- 30 -->
      <g transform="translate(24.05625 129.734702) scale(0.1 -0.1)">
       <defs>
        <path id="DejaVuSans-33" d="M 2597 2516 
Q 3050 2419 3304 2112 
Q 3559 1806 3559 1356 
Q 3559 666 3084 287 
Q 2609 -91 1734 -91 
Q 1441 -91 1130 -33 
Q 819 25 488 141 
L 488 750 
Q 750 597 1062 519 
Q 1375 441 1716 441 
Q 2309 441 2620 675 
Q 2931 909 2931 1356 
Q 2931 1769 2642 2001 
Q 2353 2234 1838 2234 
L 1294 2234 
L 1294 2753 
L 1863 2753 
Q 2328 2753 2575 2939 
Q 2822 3125 2822 3475 
Q 2822 3834 2567 4026 
Q 2313 4219 1838 4219 
Q 1578 4219 1281 4162 
Q 984 4106 628 3988 
L 628 4550 
Q 988 4650 1302 4700 
Q 1616 4750 1894 4750 
Q 2613 4750 3031 4423 
Q 3450 4097 3450 3541 
Q 3450 3153 3228 2886 
Q 3006 2619 2597 2516 
z
" transform="scale(0.015625)"/>
       </defs>
       <use xlink:href="#DejaVuSans-33"/>
       <use xlink:href="#DejaVuSans-30" transform="translate(63.623047 0)"/>
      </g>
     </g>
    </g>
    <g id="ytick_5">
     <g id="line2d_19">
      <path d="M 43.78125 96.0758 
L 400.90125 96.0758 
" clip-path="url(#p96b15475e3)" style="fill: none; stroke: #b0b0b0; stroke-opacity: 0.3; stroke-width: 0.8; stroke-linecap: square"/>
     </g>
     <g id="line2d_20">
      <g>
       <use xlink:href="#m55b9053ab7" x="43.78125" y="96.0758" style="stroke: #000000; stroke-width: 0.8"/>
      </g>
     </g>
     <g id="text_5">
      <!-- 40 -->
      <g transform="translate(24.05625 99.875019) scale(0.1 -0.1)">
       <defs>
        <path id="DejaVuSans-34" d="M 2419 4116 
L 825 1625 
L 2419 1625 
L 2419 4116 
z
M 2253 4666 
L 3047 4666 
L 3047 1625 
L 3713 1625 
L 3713 1100 
L 3047 1100 
L 3047 0 
L 2419 0 
L 2419 1100 
L 313 1100 
L 313 1709 
L 2253 4666 
z
" transform="scale(0.015625)"/>
       </defs>
       <use xlink:href="#DejaVuSans-34"/>
       <use xlink:href="#DejaVuSans-30" transform="translate(63.623047 0)"/>
      </g>
     </g>
    </g>
    <g id="ytick_6">
     <g id="line2d_21">
      <path d="M 43.78125 66.216116 
L 400.90125 66.216116 
" clip-path="url(#p96b15475e3)" style="fill: none; stroke: #b0b0b0; stroke-opacity: 0.3; stroke-width: 0.8; stroke-linecap: square"/>
     </g>
     <g id="line2d_22">
      <g>
       <use xlink:href="#m55b9053ab7" x="43.78125" y="66.216116" style="stroke: #000000; stroke-width: 0.8"/>
      </g>
     </g>
     <g id="text_6">
      <!-- 50 -->
      <g transform="translate(24.05625 70.015335) scale(0.1 -0.1)">
       <defs>
        <path id="DejaVuSans-35" d="M 691 4666 
L 3169 4666 
L 3169 4134 
L 1269 4134 
L 1269 2991 
Q 1406 3038 1543 3061 
Q 1681 3084 1819 3084 
Q 2600 3084 3056 2656 
Q 3513 2228 3513 1497 
Q 3513 744 3044 326 
Q 2575 -91 1722 -91 
Q 1428 -91 1123 -41 
Q 819 9 494 109 
L 494 744 
Q 775 591 1075 516 
Q 1375 441 1709 441 
Q 2250 441 2565 725 
Q 2881 1009 2881 1497 
Q 2881 1984 2565 2268 
Q 2250 2553 1709 2553 
Q 1456 2553 1204 2497 
Q 953 2441 691 2322 
L 691 4666 
z
" transform="scale(0.015625)"/>
       </defs>
       <use xlink:href="#DejaVuSans-35"/>
       <use xlink:href="#DejaVuSans-30" transform="translate(63.623047 0)"/>
      </g>
     </g>
    </g>
    <g id="ytick_7">
     <g id="line2d_23">
      <path d="M 43.78125 36.356432 
L 400.90125 36.356432 
" clip-path="url(#p96b15475e3)" style="fill: none; stroke: #b0b0b0; stroke-opacity: 0.3; stroke-width: 0.8; stroke-linecap: square"/>
     </g>
     <g id="line2d_24">
      <g>
       <use xlink:href="#m55b9053ab7" x="43.78125" y="36.356432" style="stroke: #000000; stroke-width: 0.8"/>
      </g>
     </g>
     <g id="text_7">
      <!-- 60 -->
      <g transform="translate(24.05625 40.155651) scale(0.1 -0.1)">
       <defs>
        <path id="DejaVuSans-36" d="M 2113 2584 
Q 1688 2584 1439 2293 
Q 1191 2003 1191 1497 
Q 1191 994 1439 701 
Q 1688 409 2113 409 
Q 2538 409 2786 701 
Q 3034 994 3034 1497 
Q 3034 2003 2786 2293 
Q 2538 2584 2113 2584 
z
M 3366 4563 
L 3366 3988 
Q 3128 4100 2886 4159 
Q 2644 4219 2406 4219 
Q 1781 4219 1451 3797 
Q 1122 3375 1075 2522 
Q 1259 2794 1537 2939 
Q 1816 3084 2150 3084 
Q 2853 3084 3261 2657 
Q 3669 2231 3669 1497 
Q 3669 778 3244 343 
Q 2819 -91 2113 -91 
Q 1303 -91 875 529 
Q 447 1150 447 2328 
Q 447 3434 972 4092 
Q 1497 4750 2381 4750 
Q 2619 4750 2861 4703 
Q 3103 4656 3366 4563 
z
" transform="scale(0.015625)"/>
       </defs>
       <use xlink:href="#DejaVuSans-36"/>
       <use xlink:href="#DejaVuSans-30" transform="translate(63.623047 0)"/>
      </g>
     </g>
    </g>
    <g id="text_8">
     <!-- Entries -->
     <g transform="translate(17.976563 135.570549) rotate(-90) scale(0.1 -0.1)">
      <defs>
       <path id="DejaVuSans-45" d="M 628 4666 
L 3578 4666 
L 3578 4134 
L 1259 4134 
L 1259 2753 
L 3481 2753 
L 3481 2222 
L 1259 2222 
L 1259 531 
L 3634 531 
L 3634 0 
L 628 0 
L 628 4666 
z
" transform="scale(0.015625)"/>
       <path id="DejaVuSans-6e" d="M 3513 2113 
L 3513 0 
L 2938 0 
L 2938 2094 
Q 2938 2591 2744 2837 
Q 2550 3084 2163 3084 
Q 1697 3084 1428 2787 
Q 1159 2491 1159 1978 
L 1159 0 
L 581 0 
L 581 3500 
L 1159 3500 
L 1159 2956 
Q 1366 3272 1645 3428 
Q 1925 3584 2291 3584 
Q 2894 3584 3203 3211 
Q 3513 2838 3513 2113 
z
" transform="scale(0.015625)"/>
       <path id="DejaVuSans-74" d="M 1172 4494 
L 1172 3500 
L 2356 3500 
L 2356 3053 
L 1172 3053 
L 1172 1153 
Q 1172 725 1289 603 
Q 1406 481 1766 481 
L 2356 481 
L 2356 0 
L 1766 0 
Q 1100 0 847 248 
Q 594 497 594 1153 
L 594 3053 
L 172 3053 
L 172 3500 
L 594 3500 
L 594 4494 
L 1172 4494 
z
" transform="scale(0.015625)"/>
       <path id="DejaVuSans-72" d="M 2631 2963 
Q 2534 3019 2420 3045 
Q 2306 3072 2169 3072 
Q 1681 3072 1420 2755 
Q 1159 2438 1159 1844 
L 1159 0 
L 581 0 
L 581 3500 
L 1159 3500 
L 1159 2956 
Q 1341 3275 1631 3429 
Q 1922 3584 2338 3584 
Q 2397 3584 2469 3576 
Q 2541 3569 2628 3553 
L 2631 2963 
z
" transform="scale(0.015625)"/>
       <path id="DejaVuSans-69" d="M 603 3500 
L 1178 3500 
L 1178 0 
L 603 0 
L 603 3500 
z
M 603 4863 
L 1178 4863 
L 1178 4134 
L 603 4134 
L 603 4863 
z
" transform="scale(0.015625)"/>
       <path id="DejaVuSans-65" d="M 3597 1894 
L 3597 1613 
L 953 1613 
Q 991 1019 1311 708 
Q 1631 397 2203 397 
Q 2534 397 2845 478 
Q 3156 559 3463 722 
L 3463 178 
Q 3153 47 2828 -22 
Q 2503 -91 2169 -91 
Q 1331 -91 842 396 
Q 353 884 353 1716 
Q 353 2575 817 3079 
Q 1281 3584 2069 3584 
Q 2775 3584 3186 3129 
Q 3597 2675 3597 1894 
z
M 3022 2063 
Q 3016 2534 2758 2815 
Q 2500 3097 2075 3097 
Q 1594 3097 1305 2825 
Q 1016 2553 972 2059 
L 3022 2063 
z
" transform="scale(0.015625)"/>
       <path id="DejaVuSans-73" d="M 2834 3397 
L 2834 2853 
Q 2591 2978 2328 3040 
Q 2066 3103 1784 3103 
Q 1356 3103 1142 2972 
Q 928 2841 928 2578 
Q 928 2378 1081 2264 
Q 1234 2150 1697 2047 
L 1894 2003 
Q 2506 1872 2764 1633 
Q 3022 1394 3022 966 
Q 3022 478 2636 193 
Q 2250 -91 1575 -91 
Q 1294 -91 989 -36 
Q 684 19 347 128 
L 347 722 
Q 666 556 975 473 
Q 1284 391 1588 391 
Q 1994 391 2212 530 
Q 2431 669 2431 922 
Q 2431 1156 2273 1281 
Q 2116 1406 1581 1522 
L 1381 1569 
Q 847 1681 609 1914 
Q 372 2147 372 2553 
Q 372 3047 722 3315 
Q 1072 3584 1716 3584 
Q 2034 3584 2315 3537 
Q 2597 3491 2834 3397 
z
" transform="scale(0.015625)"/>
      </defs>
      <use xlink:href="#DejaVuSans-45"/>
      <use xlink:href="#DejaVuSans-6e" transform="translate(63.183594 0)"/>
      <use xlink:href="#DejaVuSans-74" transform="translate(126.5625 0)"/>
      <use xlink:href="#DejaVuSans-72" transform="translate(165.771484 0)"/>
      <use xlink:href="#DejaVuSans-69" transform="translate(206.884766 0)"/>
      <use xlink:href="#DejaVuSans-65" transform="translate(234.667969 0)"/>
      <use xlink:href="#DejaVuSans-73" transform="translate(296.191406 0)"/>
     </g>
    </g>
   </g>
   <g id="patch_5">
    <path d="M 43.78125 215.514535 
L 43.78125 20.798437 
" style="fill: none; stroke: #000000; stroke-width: 0.8; stroke-linejoin: miter; stroke-linecap: square"/>
   </g>
   <g id="patch_6">
    <path d="M 400.90125 215.514535 
L 400.90125 20.798437 
" style="fill: none; stroke: #000000; stroke-width: 0.8; stroke-linejoin: miter; stroke-linecap: square"/>
   </g>
   <g id="patch_7">
    <path d="M 43.78125 215.514535 
L 400.90125 215.514535 
" style="fill: none; stroke: #000000; stroke-width: 0.8; stroke-linejoin: miter; stroke-linecap: square"/>
   </g>
   <g id="patch_8">
    <path d="M 43.78125 20.798437 
L 400.90125 20.798437 
" style="fill: none; stroke: #000000; stroke-width: 0.8; stroke-linejoin: miter; stroke-linecap: square"/>
   </g>
   <g id="text_9">
    <!-- hist1d overlay -->
    <g transform="translate(186.710781 14.798437) scale(0.1 -0.1)">
     <defs>
      <path id="DejaVuSans-68" d="M 3513 2113 
L 3513 0 
L 2938 0 
L 2938 2094 
Q 2938 2591 2744 2837 
Q 2550 3084 2163 3084 
Q 1697 3084 1428 2787 
Q 1159 2491 1159 1978 
L 1159 0 
L 581 0 
L 581 4863 
L 1159 4863 
L 1159 2956 
Q 1366 3272 1645 3428 
Q 1925 3584 2291 3584 
Q 2894 3584 3203 3211 
Q 3513 2838 3513 2113 
z
" transform="scale(0.015625)"/>
      <path id="DejaVuSans-64" d="M 2906 2969 
L 2906 4863 
L 3481 4863 
L 3481 0 
L 2906 0 
L 2906 525 
Q 2725 213 2448 61 
Q 2172 -91 1784 -91 
Q 1150 -91 751 415 
Q 353 922 353 1747 
Q 353 2572 751 3078 
Q 1150 3584 1784 3584 
Q 2172 3584 2448 3432 
Q 2725 3281 2906 2969 
z
M 947 1747 
Q 947 1113 1208 752 
Q 1469 391 1925 391 
Q 2381 391 2643 752 
Q 2906 1113 2906 1747 
Q 2906 2381 2643 2742 
Q 2381 3103 1925 3103 
Q 1469 3103 1208 2742 
Q 947 2381 947 1747 
z
" transform="scale(0.015625)"/>
      <path id="DejaVuSans-20" transform="scale(0.015625)"/>
      <path id="DejaVuSans-6f" d="M 1959 3097 
Q 1497 3097 1228 2736 
Q 959 2375 959 1747 
Q 959 1119 1226 758 
Q 1494 397 1959 397 
Q 2419 397 2687 759 
Q 2956 1122 2956 1747 
Q 2956 2369 2687 2733 
Q 2419 3097 1959 3097 
z
M 1959 3584 
Q 2709 3584 3137 3096 
Q 3566 2609 3566 1747 
Q 3566 888 3137 398 
Q 2709 -91 1959 -91 
Q 1206 -91 779 398 
Q 353 888 353 1747 
Q 353 2609 779 3096 
Q 1206 3584 1959 3584 
z
" transform="scale(0.015625)"/>
      <path id="DejaVuSans-76" d="M 191 3500 
L 800 3500 
L 1894 563 
L 2988 3500 
L 3597 3500 
L 2284 0 
L 1503 0 
L 191 3500 
z
" transform="scale(0.015625)"/>
      <path id="DejaVuSans-6c" d="M 603 4863 
L 1178 4863 
L 1178 0 
L 603 0 
L 603 4863 
z
" transform="scale(0.015625)"/>
      <path id="DejaVuSans-61" d="M 2194 1759 
Q 1497 1759 1228 1600 
Q 959 1441 959 1056 
Q 959 750 1161 570 
Q 1363 391 1709 391 
Q 2188 391 2477 730 
Q 2766 1069 2766 1631 
L 2766 1759 
L 2194 1759 
z
M 3341 1997 
L 3341 0 
L 2766 0 
L 2766 531 
Q 2569 213 2275 61 
Q 1981 -91 1556 -91 
Q 1019 -91 701 211 
Q 384 513 384 1019 
Q 384 1609 779 1909 
Q 1175 2209 1959 2209 
L 2766 2209 
L 2766 2266 
Q 2766 2663 2505 2880 
Q 2244 3097 1772 3097 
Q 1472 3097 1187 3025 
Q 903 2953 641 2809 
L 641 3341 
Q 956 3463 1253 3523 
Q 1550 3584 1831 3584 
Q 2591 3584 2966 3190 
Q 3341 2797 3341 1997 
z
" transform="scale(0.015625)"/>
      <path id="DejaVuSans-79" d="M 2059 -325 
Q 1816 -950 1584 -1140 
Q 1353 -1331 966 -1331 
L 506 -1331 
L 506 -850 
L 844 -850 
Q 1081 -850 1212 -737 
Q 1344 -625 1503 -206 
L 1606 56 
L 191 3500 
L 800 3500 
L 1894 763 
L 2988 3500 
L 3597 3500 
L 2059 -325 
z
" transform="scale(0.015625)"/>
     </defs>
     <use xlink:href="#DejaVuSans-68"/>
     <use xlink:href="#DejaVuSans-69" transform="translate(63.378906 0)"/>
     <use xlink:href="#DejaVuSans-73" transform="translate(91.162109 0)"/>
     <use xlink:href="#DejaVuSans-74" transform="translate(143.261719 0)"/>
     <use xlink:href="#DejaVuSans-31" transform="translate(182.470703 0)"/>
     <use xlink:href="#DejaVuSans-64" transform="translate(246.09375 0)"/>
     <use xlink:href="#DejaVuSans-20" transform="translate(309.570312 0)"/>
     <use xlink:href="#DejaVuSans-6f" transform="translate(341.357422 0)"/>
     <use xlink:href="#DejaVuSans-76" transform="translate(402.539062 0)"/>
     <use xlink:href="#DejaVuSans-65" transform="translate(461.71875 0)"/>
     <use xlink:href="#DejaVuSans-72" transform="translate(523.242188 0)"/>
     <use xlink:href="#DejaVuSans-6c" transform="translate(564.355469 0)"/>
     <use xlink:href="#DejaVuSans-61" transform="translate(592.138672 0)"/>
     <use xlink:href="#DejaVuSans-79" transform="translate(653.417969 0)"/>
    </g>
   </g>
   <g id="legend_1">
    <g id="patch_9">
     <path d="M 349.645 58.154687 
L 393.90125 58.154687 
Q 395.90125 58.154687 395.90125 56.154687 
L 395.90125 27.798437 
Q 395.90125 25.798437 393.90125 25.798437 
L 349.645 25.798437 
Q 347.645 25.798437 347.645 27.798437 
L 347.645 56.154687 
Q 347.645 58.154687 349.645 58.154687 
z
" style="fill: #ffffff; opacity: 0.8; stroke: #cccccc; stroke-linejoin: miter"/>
    </g>
    <g id="line2d_25">
     <path d="M 351.645 33.896875 
L 371.645 33.896875 
" style="fill: none; stroke: #1f77b4; stroke-width: 1.5; stroke-linecap: square"/>
    </g>
    <g id="text_10">
     <!-- hx -->
     <g transform="translate(379.645 37.396875) scale(0.1 -0.1)">
      <defs>
       <path id="DejaVuSans-78" d="M 3513 3500 
L 2247 1797 
L 3578 0 
L 2900 0 
L 1881 1375 
L 863 0 
L 184 0 
L 1544 1831 
L 300 3500 
L 978 3500 
L 1906 2253 
L 2834 3500 
L 3513 3500 
z
" transform="scale(0.015625)"/>
      </defs>
      <use xlink:href="#DejaVuSans-68"/>
      <use xlink:href="#DejaVuSans-78" transform="translate(63.378906 0)"/>
     </g>
    </g>
    <g id="line2d_26">
     <path d="M 351.645 48.575 
L 371.645 48.575 
" style="fill: none; stroke-dasharray: 5.55,2.4; stroke-dashoffset: 0; stroke: #ff7f0e; stroke-width: 1.5"/>
    </g>
    <g id="text_11">
     <!-- hy -->
     <g transform="translate(379.645 52.075) scale(0.1 -0.1)">
      <use xlink:href="#DejaVuSans-68"/>
      <use xlink:href="#DejaVuSans-79" transform="translate(63.378906 0)"/>
     </g>
    </g>
   </g>
  </g>
  <g id="axes_2">
   <g id="patch_10">
    <path d="M 43.78125 286.910438 
L 400.90125 286.910438 
L 400.90125 222.005072 
L 43.78125 222.005072 
z
" style="fill: #ffffff"/>
   </g>
   <g id="matplotlib.axis_3">
    <g id="xtick_6">
     <g id="line2d_27">
      <path d="M 92.479432 286.910438 
L 92.479432 222.005072 
" clip-path="url(#pdd346bf012)" style="fill: none; stroke: #b0b0b0; stroke-opacity: 0.3; stroke-width: 0.8; stroke-linecap: square"/>
     </g>
     <g id="line2d_28">
      <g>
       <use xlink:href="#m83aaf5ec9e" x="92.479432" y="286.910438" style="stroke: #000000; stroke-width: 0.8"/>
      </g>
     </g>
     <g id="text_12">
      <!-- −4 -->
      <g transform="translate(85.108338 301.508875) scale(0.1 -0.1)">
       <defs>
        <path id="DejaVuSans-2212" d="M 678 2272 
L 4684 2272 
L 4684 1741 
L 678 1741 
L 678 2272 
z
" transform="scale(0.015625)"/>
       </defs>
       <use xlink:href="#DejaVuSans-2212"/>
       <use xlink:href="#DejaVuSans-34" transform="translate(83.789062 0)"/>
      </g>
     </g>
    </g>
    <g id="xtick_7">
     <g id="line2d_29">
      <path d="M 157.410341 286.910438 
L 157.410341 222.005072 
" clip-path="url(#pdd346bf012)" style="fill: none; stroke: #b0b0b0; stroke-opacity: 0.3; stroke-width: 0.8; stroke-linecap: square"/>
     </g>
     <g id="line2d_30">
      <g>
       <use xlink:href="#m83aaf5ec9e" x="157.410341" y="286.910438" style="stroke: #000000; stroke-width: 0.8"/>
      </g>
     </g>
     <g id="text_13">
      <!-- −2 -->
      <g transform="translate(150.039247 301.508875) scale(0.1 -0.1)">
       <use xlink:href="#DejaVuSans-2212"/>
       <use xlink:href="#DejaVuSans-32" transform="translate(83.789062 0)"/>
      </g>
     </g>
    </g>
    <g id="xtick_8">
     <g id="line2d_31">
      <path d="M 222.34125 286.910438 
L 222.34125 222.005072 
" clip-path="url(#pdd346bf012)" style="fill: none; stroke: #b0b0b0; stroke-opacity: 0.3; stroke-width: 0.8; stroke-linecap: square"/>
     </g>
     <g id="line2d_32">
      <g>
       <use xlink:href="#m83aaf5ec9e" x="222.34125" y="286.910438" style="stroke: #000000; stroke-width: 0.8"/>
      </g>
     </g>
     <g id="text_14">
      <!-- 0 -->
      <g transform="translate(219.16 301.508875) scale(0.1 -0.1)">
       <use xlink:href="#DejaVuSans-30"/>
      </g>
     </g>
    </g>
    <g id="xtick_9">
     <g id="line2d_33">
      <path d="M 287.272159 286.910438 
L 287.272159 222.005072 
" clip-path="url(#pdd346bf012)" style="fill: none; stroke: #b0b0b0; stroke-opacity: 0.3; stroke-width: 0.8; stroke-linecap: square"/>
     </g>
     <g id="line2d_34">
      <g>
       <use xlink:href="#m83aaf5ec9e" x="287.272159" y="286.910438" style="stroke: #000000; stroke-width: 0.8"/>
      </g>
     </g>
     <g id="text_15">
      <!-- 2 -->
      <g transform="translate(284.090909 301.508875) scale(0.1 -0.1)">
       <use xlink:href="#DejaVuSans-32"/>
      </g>
     </g>
    </g>
    <g id="xtick_10">
     <g id="line2d_35">
      <path d="M 352.203068 286.910438 
L 352.203068 222.005072 
" clip-path="url(#pdd346bf012)" style="fill: none; stroke: #b0b0b0; stroke-opacity: 0.3; stroke-width: 0.8; stroke-linecap: square"/>
     </g>
     <g id="line2d_36">
      <g>
       <use xlink:href="#m83aaf5ec9e" x="352.203068" y="286.910438" style="stroke: #000000; stroke-width: 0.8"/>
      </g>
     </g>
     <g id="text_16">
      <!-- 4 -->
      <g transform="translate(349.021818 301.508875) scale(0.1 -0.1)">
       <use xlink:href="#DejaVuSans-34"/>
      </g>
     </g>
    </g>
   </g>
   <g id="matplotlib.axis_4">
    <g id="ytick_8">
     <g id="line2d_37">
      <path d="M 43.78125 278.542731 
L 400.90125 278.542731 
" clip-path="url(#pdd346bf012)" style="fill: none; stroke: #b0b0b0; stroke-opacity: 0.3; stroke-width: 0.8; stroke-linecap: square"/>
     </g>
     <g id="line2d_38">
      <g>
       <use xlink:href="#m55b9053ab7" x="43.78125" y="278.542731" style="stroke: #000000; stroke-width: 0.8"/>
      </g>
     </g>
     <g id="text_17">
      <!-- 0.0 -->
      <g transform="translate(20.878125 282.34195) scale(0.1 -0.1)">
       <defs>
        <path id="DejaVuSans-2e" d="M 684 794 
L 1344 794 
L 1344 0 
L 684 0 
L 684 794 
z
" transform="scale(0.015625)"/>
       </defs>
       <use xlink:href="#DejaVuSans-30"/>
       <use xlink:href="#DejaVuSans-2e" transform="translate(63.623047 0)"/>
       <use xlink:href="#DejaVuSans-30" transform="translate(95.410156 0)"/>
      </g>
     </g>
    </g>
    <g id="ytick_9">
     <g id="line2d_39">
      <path d="M 43.78125 255.249105 
L 400.90125 255.249105 
" clip-path="url(#pdd346bf012)" style="fill: none; stroke: #b0b0b0; stroke-opacity: 0.3; stroke-width: 0.8; stroke-linecap: square"/>
     </g>
     <g id="line2d_40">
      <g>
       <use xlink:href="#m55b9053ab7" x="43.78125" y="255.249105" style="stroke: #000000; stroke-width: 0.8"/>
      </g>
     </g>
     <g id="text_18">
      <!-- 2.5 -->
      <g transform="translate(20.878125 259.048324) scale(0.1 -0.1)">
       <use xlink:href="#DejaVuSans-32"/>
       <use xlink:href="#DejaVuSans-2e" transform="translate(63.623047 0)"/>
       <use xlink:href="#DejaVuSans-35" transform="translate(95.410156 0)"/>
      </g>
     </g>
    </g>
    <g id="ytick_10">
     <g id="line2d_41">
      <path d="M 43.78125 231.955479 
L 400.90125 231.955479 
" clip-path="url(#pdd346bf012)" style="fill: none; stroke: #b0b0b0; stroke-opacity: 0.3; stroke-width: 0.8; stroke-linecap: square"/>
     </g>
     <g id="line2d_42">
      <g>
       <use xlink:href="#m55b9053ab7" x="43.78125" y="231.955479" style="stroke: #000000; stroke-width: 0.8"/>
      </g>
     </g>
     <g id="text_19">
      <!-- 5.0 -->
      <g transform="translate(20.878125 235.754697) scale(0.1 -0.1)">
       <use xlink:href="#DejaVuSans-35"/>
       <use xlink:href="#DejaVuSans-2e" transform="translate(63.623047 0)"/>
       <use xlink:href="#DejaVuSans-30" transform="translate(95.410156 0)"/>
      </g>
     </g>
    </g>
    <g id="text_20">
     <!-- Ratio -->
     <g transform="translate(14.798438 267.29213) rotate(-90) scale(0.1 -0.1)">
      <defs>
       <path id="DejaVuSans-52" d="M 2841 2188 
Q 3044 2119 3236 1894 
Q 3428 1669 3622 1275 
L 4263 0 
L 3584 0 
L 2988 1197 
Q 2756 1666 2539 1819 
Q 2322 1972 1947 1972 
L 1259 1972 
L 1259 0 
L 628 0 
L 628 4666 
L 2053 4666 
Q 2853 4666 3247 4331 
Q 3641 3997 3641 3322 
Q 3641 2881 3436 2590 
Q 3231 2300 2841 2188 
z
M 1259 4147 
L 1259 2491 
L 2053 2491 
Q 2509 2491 2742 2702 
Q 2975 2913 2975 3322 
Q 2975 3731 2742 3939 
Q 2509 4147 2053 4147 
L 1259 4147 
z
" transform="scale(0.015625)"/>
      </defs>
      <use xlink:href="#DejaVuSans-52"/>
      <use xlink:href="#DejaVuSans-61" transform="translate(67.232422 0)"/>
      <use xlink:href="#DejaVuSans-74" transform="translate(128.511719 0)"/>
      <use xlink:href="#DejaVuSans-69" transform="translate(167.720703 0)"/>
      <use xlink:href="#DejaVuSans-6f" transform="translate(195.503906 0)"/>
     </g>
    </g>
   </g>
   <g id="LineCollection_1">
    <path d="M 63.260523 278.542731 
L 63.260523 278.542731 
" clip-path="url(#pdd346bf012)" style="fill: none; stroke: #ff7f0e; stroke-width: 1.5"/>
    <path clip-path="url(#pdd346bf012)" style="fill: none; stroke: #ff7f0e; stroke-width: 1.5"/>
    <path clip-path="url(#pdd346bf012)" style="fill: none; stroke: #ff7f0e; stroke-width: 1.5"/>
    <path d="M 82.739795 283.960194 
L 82.739795 224.955316 
" clip-path="url(#pdd346bf012)" style="fill: none; stroke: #ff7f0e; stroke-width: 1.5"/>
    <path d="M 89.232886 278.742063 
L 89.232886 255.412535 
" clip-path="url(#pdd346bf012)" style="fill: none; stroke: #ff7f0e; stroke-width: 1.5"/>
    <path clip-path="url(#pdd346bf012)" style="fill: none; stroke: #ff7f0e; stroke-width: 1.5"/>
    <path d="M 102.219068 278.860542 
L 102.219068 246.19127 
" clip-path="url(#pdd346bf012)" style="fill: none; stroke: #ff7f0e; stroke-width: 1.5"/>
    <path d="M 108.712159 275.971257 
L 108.712159 258.769349 
" clip-path="url(#pdd346bf012)" style="fill: none; stroke: #ff7f0e; stroke-width: 1.5"/>
    <path d="M 115.20525 277.954729 
L 115.20525 271.223759 
" clip-path="url(#pdd346bf012)" style="fill: none; stroke: #ff7f0e; stroke-width: 1.5"/>
    <path d="M 121.698341 273.287763 
L 121.698341 257.47104 
" clip-path="url(#pdd346bf012)" style="fill: none; stroke: #ff7f0e; stroke-width: 1.5"/>
    <path d="M 128.191432 274.063594 
L 128.191432 263.798003 
" clip-path="url(#pdd346bf012)" style="fill: none; stroke: #ff7f0e; stroke-width: 1.5"/>
    <path d="M 134.684523 273.706502 
L 134.684523 266.424308 
" clip-path="url(#pdd346bf012)" style="fill: none; stroke: #ff7f0e; stroke-width: 1.5"/>
    <path d="M 141.177614 272.851707 
L 141.177614 264.776333 
" clip-path="url(#pdd346bf012)" style="fill: none; stroke: #ff7f0e; stroke-width: 1.5"/>
    <path d="M 147.670705 276.267365 
L 147.670705 272.911213 
" clip-path="url(#pdd346bf012)" style="fill: none; stroke: #ff7f0e; stroke-width: 1.5"/>
    <path d="M 154.163795 272.885174 
L 154.163795 266.938951 
" clip-path="url(#pdd346bf012)" style="fill: none; stroke: #ff7f0e; stroke-width: 1.5"/>
    <path d="M 160.656886 273.623323 
L 160.656886 269.905668 
" clip-path="url(#pdd346bf012)" style="fill: none; stroke: #ff7f0e; stroke-width: 1.5"/>
    <path d="M 167.149977 272.586188 
L 167.149977 267.613071 
" clip-path="url(#pdd346bf012)" style="fill: none; stroke: #ff7f0e; stroke-width: 1.5"/>
    <path d="M 173.643068 273.320856 
L 173.643068 269.84284 
" clip-path="url(#pdd346bf012)" style="fill: none; stroke: #ff7f0e; stroke-width: 1.5"/>
    <path d="M 180.136159 271.945066 
L 180.136159 267.085631 
" clip-path="url(#pdd346bf012)" style="fill: none; stroke: #ff7f0e; stroke-width: 1.5"/>
    <path d="M 186.62925 270.889288 
L 186.62925 266.338095 
" clip-path="url(#pdd346bf012)" style="fill: none; stroke: #ff7f0e; stroke-width: 1.5"/>
    <path d="M 193.122341 272.333126 
L 193.122341 268.932472 
" clip-path="url(#pdd346bf012)" style="fill: none; stroke: #ff7f0e; stroke-width: 1.5"/>
    <path d="M 199.615432 269.822856 
L 199.615432 265.716372 
" clip-path="url(#pdd346bf012)" style="fill: none; stroke: #ff7f0e; stroke-width: 1.5"/>
    <path d="M 206.108523 271.459829 
L 206.108523 267.7316 
" clip-path="url(#pdd346bf012)" style="fill: none; stroke: #ff7f0e; stroke-width: 1.5"/>
    <path d="M 212.601614 271.041955 
L 212.601614 267.412242 
" clip-path="url(#pdd346bf012)" style="fill: none; stroke: #ff7f0e; stroke-width: 1.5"/>
    <path d="M 219.094705 269.0256 
L 219.094705 264.185396 
" clip-path="url(#pdd346bf012)" style="fill: none; stroke: #ff7f0e; stroke-width: 1.5"/>
    <path d="M 225.587795 269.65941 
L 225.587795 265.527554 
" clip-path="url(#pdd346bf012)" style="fill: none; stroke: #ff7f0e; stroke-width: 1.5"/>
    <path d="M 232.080886 270.744858 
L 232.080886 266.957673 
" clip-path="url(#pdd346bf012)" style="fill: none; stroke: #ff7f0e; stroke-width: 1.5"/>
    <path d="M 238.573977 271.128745 
L 238.573977 267.383702 
" clip-path="url(#pdd346bf012)" style="fill: none; stroke: #ff7f0e; stroke-width: 1.5"/>
    <path d="M 245.067068 273.681546 
L 245.067068 270.884893 
" clip-path="url(#pdd346bf012)" style="fill: none; stroke: #ff7f0e; stroke-width: 1.5"/>
    <path d="M 251.560159 270.790536 
L 251.560159 266.850097 
" clip-path="url(#pdd346bf012)" style="fill: none; stroke: #ff7f0e; stroke-width: 1.5"/>
    <path d="M 258.05325 270.062245 
L 258.05325 264.375679 
" clip-path="url(#pdd346bf012)" style="fill: none; stroke: #ff7f0e; stroke-width: 1.5"/>
    <path d="M 264.546341 272.55586 
L 264.546341 268.390543 
" clip-path="url(#pdd346bf012)" style="fill: none; stroke: #ff7f0e; stroke-width: 1.5"/>
    <path d="M 271.039432 271.659404 
L 271.039432 266.071874 
" clip-path="url(#pdd346bf012)" style="fill: none; stroke: #ff7f0e; stroke-width: 1.5"/>
    <path d="M 277.532523 268.852798 
L 277.532523 260.685926 
" clip-path="url(#pdd346bf012)" style="fill: none; stroke: #ff7f0e; stroke-width: 1.5"/>
    <path d="M 284.025614 272.549301 
L 284.025614 267.799743 
" clip-path="url(#pdd346bf012)" style="fill: none; stroke: #ff7f0e; stroke-width: 1.5"/>
    <path d="M 290.518705 274.529213 
L 290.518705 270.191307 
" clip-path="url(#pdd346bf012)" style="fill: none; stroke: #ff7f0e; stroke-width: 1.5"/>
    <path d="M 297.011795 268.520087 
L 297.011795 254.831345 
" clip-path="url(#pdd346bf012)" style="fill: none; stroke: #ff7f0e; stroke-width: 1.5"/>
    <path d="M 303.504886 271.42538 
L 303.504886 264.429562 
" clip-path="url(#pdd346bf012)" style="fill: none; stroke: #ff7f0e; stroke-width: 1.5"/>
    <path d="M 309.997977 274.731578 
L 309.997977 267.646612 
" clip-path="url(#pdd346bf012)" style="fill: none; stroke: #ff7f0e; stroke-width: 1.5"/>
    <path d="M 316.491068 274.00554 
L 316.491068 256.245064 
" clip-path="url(#pdd346bf012)" style="fill: none; stroke: #ff7f0e; stroke-width: 1.5"/>
    <path d="M 322.984159 272.589382 
L 322.984159 257.346803 
" clip-path="url(#pdd346bf012)" style="fill: none; stroke: #ff7f0e; stroke-width: 1.5"/>
    <path d="M 329.47725 273.379789 
L 329.47725 253.499355 
" clip-path="url(#pdd346bf012)" style="fill: none; stroke: #ff7f0e; stroke-width: 1.5"/>
    <path d="M 335.970341 273.091691 
L 335.970341 241.613942 
" clip-path="url(#pdd346bf012)" style="fill: none; stroke: #ff7f0e; stroke-width: 1.5"/>
    <path d="M 342.463432 278.129332 
L 342.463432 266.79569 
" clip-path="url(#pdd346bf012)" style="fill: none; stroke: #ff7f0e; stroke-width: 1.5"/>
    <path clip-path="url(#pdd346bf012)" style="fill: none; stroke: #ff7f0e; stroke-width: 1.5"/>
    <path d="M 355.449614 276.320468 
L 355.449614 244.452048 
" clip-path="url(#pdd346bf012)" style="fill: none; stroke: #ff7f0e; stroke-width: 1.5"/>
    <path d="M 361.942705 282.840241 
L 361.942705 236.004315 
" clip-path="url(#pdd346bf012)" style="fill: none; stroke: #ff7f0e; stroke-width: 1.5"/>
    <path d="M 368.435795 278.542731 
L 368.435795 278.542731 
" clip-path="url(#pdd346bf012)" style="fill: none; stroke: #ff7f0e; stroke-width: 1.5"/>
    <path clip-path="url(#pdd346bf012)" style="fill: none; stroke: #ff7f0e; stroke-width: 1.5"/>
    <path d="M 381.421977 278.542731 
L 381.421977 278.542731 
" clip-path="url(#pdd346bf012)" style="fill: none; stroke: #ff7f0e; stroke-width: 1.5"/>
   </g>
   <g id="line2d_43">
    <path d="M 43.78125 269.225281 
L 400.90125 269.225281 
" clip-path="url(#pdd346bf012)" style="fill: none; stroke-dasharray: 3.7,1.6; stroke-dashoffset: 0; stroke: #000000; stroke-opacity: 0.8"/>
   </g>
   <g id="line2d_44">
    <path d="M 63.260523 278.542731 
M 82.739795 254.457755 
L 89.232886 267.077299 
M 102.219068 262.525906 
L 108.712159 267.370303 
L 115.20525 274.589244 
L 121.698341 265.379402 
L 128.191432 268.930798 
L 134.684523 270.065405 
L 141.177614 268.81402 
L 147.670705 274.589289 
L 154.163795 269.912063 
L 160.656886 271.764495 
L 167.149977 270.099629 
L 173.643068 271.581848 
L 180.136159 269.515348 
L 186.62925 268.613691 
L 193.122341 270.632799 
L 199.615432 267.769614 
L 206.108523 269.595715 
L 212.601614 269.227098 
L 219.094705 266.605498 
L 225.587795 267.593482 
L 232.080886 268.851265 
L 238.573977 269.256223 
L 245.067068 272.283219 
L 251.560159 268.820317 
L 258.05325 267.218962 
L 264.546341 270.473202 
L 271.039432 268.865639 
L 277.532523 264.769362 
L 284.025614 270.174522 
L 290.518705 272.36026 
L 297.011795 261.675716 
L 303.504886 267.927471 
L 309.997977 271.189095 
L 316.491068 265.125302 
L 322.984159 264.968093 
L 329.47725 263.439572 
L 335.970341 257.352817 
L 342.463432 272.462511 
M 355.449614 260.386258 
L 361.942705 259.422278 
L 368.435795 278.542731 
M 381.421977 278.542731 
" clip-path="url(#pdd346bf012)" style="fill: none; stroke-dasharray: 5.55,2.4; stroke-dashoffset: 0; stroke: #ff7f0e; stroke-width: 1.5"/>
    <defs>
     <path id="md874a3e18a" d="M 0 1.25 
C 0.331504 1.25 0.649475 1.118292 0.883883 0.883883 
C 1.118292 0.649475 1.25 0.331504 1.25 0 
C 1.25 -0.331504 1.118292 -0.649475 0.883883 -0.883883 
C 0.649475 -1.118292 0.331504 -1.25 0 -1.25 
C -0.331504 -1.25 -0.649475 -1.118292 -0.883883 -0.883883 
C -1.118292 -0.649475 -1.25 -0.331504 -1.25 0 
C -1.25 0.331504 -1.118292 0.649475 -0.883883 0.883883 
C -0.649475 1.118292 -0.331504 1.25 0 1.25 
z
" style="stroke: #ff7f0e"/>
    </defs>
    <g clip-path="url(#pdd346bf012)">
     <use xlink:href="#md874a3e18a" x="63.260523" y="278.542731" style="fill: #ff7f0e; stroke: #ff7f0e"/>
     <use xlink:href="#md874a3e18a" x="82.739795" y="254.457755" style="fill: #ff7f0e; stroke: #ff7f0e"/>
     <use xlink:href="#md874a3e18a" x="89.232886" y="267.077299" style="fill: #ff7f0e; stroke: #ff7f0e"/>
     <use xlink:href="#md874a3e18a" x="102.219068" y="262.525906" style="fill: #ff7f0e; stroke: #ff7f0e"/>
     <use xlink:href="#md874a3e18a" x="108.712159" y="267.370303" style="fill: #ff7f0e; stroke: #ff7f0e"/>
     <use xlink:href="#md874a3e18a" x="115.20525" y="274.589244" style="fill: #ff7f0e; stroke: #ff7f0e"/>
     <use xlink:href="#md874a3e18a" x="121.698341" y="265.379402" style="fill: #ff7f0e; stroke: #ff7f0e"/>
     <use xlink:href="#md874a3e18a" x="128.191432" y="268.930798" style="fill: #ff7f0e; stroke: #ff7f0e"/>
     <use xlink:href="#md874a3e18a" x="134.684523" y="270.065405" style="fill: #ff7f0e; stroke: #ff7f0e"/>
     <use xlink:href="#md874a3e18a" x="141.177614" y="268.81402" style="fill: #ff7f0e; stroke: #ff7f0e"/>
     <use xlink:href="#md874a3e18a" x="147.670705" y="274.589289" style="fill: #ff7f0e; stroke: #ff7f0e"/>
     <use xlink:href="#md874a3e18a" x="154.163795" y="269.912063" style="fill: #ff7f0e; stroke: #ff7f0e"/>
     <use xlink:href="#md874a3e18a" x="160.656886" y="271.764495" style="fill: #ff7f0e; stroke: #ff7f0e"/>
     <use xlink:href="#md874a3e18a" x="167.149977" y="270.099629" style="fill: #ff7f0e; stroke: #ff7f0e"/>
     <use xlink:href="#md874a3e18a" x="173.643068" y="271.581848" style="fill: #ff7f0e; stroke: #ff7f0e"/>
     <use xlink:href="#md874a3e18a" x="180.136159" y="269.515348" style="fill: #ff7f0e; stroke: #ff7f0e"/>
     <use xlink:href="#md874a3e18a" x="186.62925" y="268.613691" style="fill: #ff7f0e; stroke: #ff7f0e"/>
     <use xlink:href="#md874a3e18a" x="193.122341" y="270.632799" style="fill: #ff7f0e; stroke: #ff7f0e"/>
     <use xlink:href="#md874a3e18a" x="199.615432" y="267.769614" style="fill: #ff7f0e; stroke: #ff7f0e"/>
     <use xlink:href="#md874a3e18a" x="206.108523" y="269.595715" style="fill: #ff7f0e; stroke: #ff7f0e"/>
     <use xlink:href="#md874a3e18a" x="212.601614" y="269.227098" style="fill: #ff7f0e; stroke: #ff7f0e"/>
     <use xlink:href="#md874a3e18a" x="219.094705" y="266.605498" style="fill: #ff7f0e; stroke: #ff7f0e"/>
     <use xlink:href="#md874a3e18a" x="225.587795" y="267.593482" style="fill: #ff7f0e; stroke: #ff7f0e"/>
     <use xlink:href="#md874a3e18a" x="232.080886" y="268.851265" style="fill: #ff7f0e; stroke: #ff7f0e"/>
     <use xlink:href="#md874a3e18a" x="238.573977" y="269.256223" style="fill: #ff7f0e; stroke: #ff7f0e"/>
     <use xlink:href="#md874a3e18a" x="245.067068" y="272.283219" style="fill: #ff7f0e; stroke: #ff7f0e"/>
     <use xlink:href="#md874a3e18a" x="251.560159" y="268.820317" style="fill: #ff7f0e; stroke: #ff7f0e"/>
     <use xlink:href="#md874a3e18a" x="258.05325" y="267.218962" style="fill: #ff7f0e; stroke: #ff7f0e"/>
     <use xlink:href="#md874a3e18a" x="264.546341" y="270.473202" style="fill: #ff7f0e; stroke: #ff7f0e"/>
     <use xlink:href="#md874a3e18a" x="271.039432" y="268.865639" style="fill: #ff7f0e; stroke: #ff7f0e"/>
     <use xlink:href="#md874a3e18a" x="277.532523" y="264.769362" style="fill: #ff7f0e; stroke: #ff7f0e"/>
     <use xlink:href="#md874a3e18a" x="284.025614" y="270.174522" style="fill: #ff7f0e; stroke: #ff7f0e"/>
     <use xlink:href="#md874a3e18a" x="290.518705" y="272.36026" style="fill: #ff7f0e; stroke: #ff7f0e"/>
     <use xlink:href="#md874a3e18a" x="297.011795" y="261.675716" style="fill: #ff7f0e; stroke: #ff7f0e"/>
     <use xlink:href="#md874a3e18a" x="303.504886" y="267.927471" style="fill: #ff7f0e; stroke: #ff7f0e"/>
     <use xlink:href="#md874a3e18a" x="309.997977" y="271.189095" style="fill: #ff7f0e; stroke: #ff7f0e"/>
     <use xlink:href="#md874a3e18a" x="316.491068" y="265.125302" style="fill: #ff7f0e; stroke: #ff7f0e"/>
     <use xlink:href="#md874a3e18a" x="322.984159" y="264.968093" style="fill: #ff7f0e; stroke: #ff7f0e"/>
     <use xlink:href="#md874a3e18a" x="329.47725" y="263.439572" style="fill: #ff7f0e; stroke: #ff7f0e"/>
     <use xlink:href="#md874a3e18a" x="335.970341" y="257.352817" style="fill: #ff7f0e; stroke: #ff7f0e"/>
     <use xlink:href="#md874a3e18a" x="342.463432" y="272.462511" style="fill: #ff7f0e; stroke: #ff7f0e"/>
     <use xlink:href="#md874a3e18a" x="355.449614" y="260.386258" style="fill: #ff7f0e; stroke: #ff7f0e"/>
     <use xlink:href="#md874a3e18a" x="361.942705" y="259.422278" style="fill: #ff7f0e; stroke: #ff7f0e"/>
     <use xlink:href="#md874a3e18a" x="368.435795" y="278.542731" style="fill: #ff7f0e; stroke: #ff7f0e"/>
     <use xlink:href="#md874a3e18a" x="381.421977" y="278.542731" style="fill: #ff7f0e; stroke: #ff7f0e"/>
    </g>
   </g>
   <g id="patch_11">
    <path d="M 43.78125 286.910438 
L 43.78125 222.005072 
" style="fill: none; stroke: #000000; stroke-width: 0.8; stroke-linejoin: miter; stroke-linecap: square"/>
   </g>
   <g id="patch_12">
    <path d="M 400.90125 286.910438 
L 400.90125 222.005072 
" style="fill: none; stroke: #000000; stroke-width: 0.8; stroke-linejoin: miter; stroke-linecap: square"/>
   </g>
   <g id="patch_13">
    <path d="M 43.78125 286.910438 
L 400.90125 286.910438 
" style="fill: none; stroke: #000000; stroke-width: 0.8; stroke-linejoin: miter; stroke-linecap: square"/>
   </g>
   <g id="patch_14">
    <path d="M 43.78125 222.005072 
L 400.90125 222.005072 
" style="fill: none; stroke: #000000; stroke-width: 0.8; stroke-linejoin: miter; stroke-linecap: square"/>
   </g>
  </g>
 </g>
 <defs>
  <clipPath id="p96b15475e3">
   <rect x="43.78125" y="20.798437" width="357.12" height="194.716098"/>
  </clipPath>
  <clipPath id="pdd346bf012">
   <rect x="43.78125" y="222.005072" width="357.12" height="64.905366"/>
  </clipPath>
 </defs>
</svg>
