<?xml version="1.0" encoding="utf-8" standalone="no"?>
<!DOCTYPE svg PUBLIC "-//W3C//DTD SVG 1.1//EN"
  "http://www.w3.org/Graphics/SVG/1.1/DTD/svg11.dtd">
<svg xmlns:xlink="http://www.w3.org/1999/xlink" width="408.10125pt" height="324.466687pt" viewBox="0 0 408.10125 324.466687" xmlns="http://www.w3.org/2000/svg" version="1.1">
 <metadata>
  <rdf:RDF xmlns:dc="http://purl.org/dc/elements/1.1/" xmlns:cc="http://creativecommons.org/ns#" xmlns:rdf="http://www.w3.org/1999/02/22-rdf-syntax-ns#">
   <cc:Work>
    <dc:type rdf:resource="http://purl.org/dc/dcmitype/StillImage"/>
    <dc:date>2026-03-27T06:04:44.238316</dc:date>
    <dc:format>image/svg+xml</dc:format>
    <dc:creator>
     <cc:Agent>
      <dc:title>Matplotlib v3.10.8, https://matplotlib.org/</dc:title>
     </cc:Agent>
    </dc:creator>
   </cc:Work>
  </rdf:RDF>
 </metadata>
 <defs>
  <style type="text/css">*{stroke-linejoin: round; stroke-linecap: butt}</style>
 </defs>
 <g id="figure_1">
  <g id="patch_1">
   <path d="M 0 324.466687 
L 408.10125 324.466687 
L 408.10125 0 
L 0 0 
z
" style="fill: #ffffff"/>
  </g>
  <g id="axes_1">
   <g id="patch_2">
    <path d="M 43.78125 215.514535 
L 400.90125 215.514535 
L 400.90125 20.798437 
L 43.78125 20.798437 
z
" style="fill: #ffffff"/>
   </g>
   <g id="FillBetweenPolyCollection_1">
    <defs>
     <path id="m6f8378c152" d="M 60.013977 -216.321331 
L 60.013977 -216.321331 
L 66.63958 -209.172224 
L 73.265183 -209.172224 
L 79.890786 -167.522451 
L 86.516389 -209.172224 
L 93.141992 -152.782314 
L 99.767595 -147.904852 
L 106.393198 -183.896548 
L 113.018801 -205.061712 
L 119.644404 -201.057634 
L 126.270007 -196.699155 
L 132.89561 -167.780105 
L 139.521213 -162.281754 
L 146.146816 -148.483799 
L 152.772419 -160.094232 
L 159.398022 -142.178134 
L 166.023625 -151.978483 
L 172.649228 -137.864981 
L 179.274831 -158.529288 
L 185.900434 -129.690939 
L 192.526037 -140.315531 
L 199.15164 -154.122653 
L 205.777243 -124.652537 
L 212.402846 -138.483543 
L 219.028449 -124.811395 
L 225.654051 -148.07917 
L 232.279654 -135.378338 
L 238.905257 -160.611496 
L 245.53086 -127.493101 
L 252.156463 -166.786072 
L 258.782066 -117.802884 
L 265.407669 -154.998779 
L 272.033272 -149.510555 
L 278.658875 -139.503691 
L 285.284478 -158.779299 
L 291.910081 -158.897913 
L 298.535684 -184.054709 
L 305.161287 -135.983946 
L 311.78689 -163.531092 
L 318.412493 -152.070154 
L 325.038096 -176.825579 
L 331.663699 -149.90029 
L 338.289302 -199.151792 
L 344.914905 -162.25586 
L 351.540508 -183.170499 
L 358.166111 -209.172224 
L 364.791714 -188.227321 
L 371.417317 -232.483138 
L 378.04292 -204.698337 
L 384.668523 -146.276135 
L 384.668523 -146.276135 
L 384.668523 -146.276135 
L 378.04292 -204.698337 
L 371.417317 -232.483138 
L 364.791714 -210.92653 
L 358.166111 -209.172224 
L 351.540508 -214.739425 
L 344.914905 -255.596259 
L 338.289302 -199.151792 
L 331.663699 -264.796835 
L 325.038096 -242.04224 
L 318.412493 -257.100585 
L 311.78689 -251.953491 
L 305.161287 -265.655739 
L 298.535684 -275.181019 
L 291.910081 -241.495192 
L 285.284478 -289.900283 
L 278.658875 -258.57974 
L 272.033272 -253.190111 
L 265.407669 -291.949605 
L 258.782066 -276.15753 
L 252.156463 -254.384594 
L 245.53086 -274.550814 
L 238.905257 -293.335935 
L 232.279654 -279.143827 
L 225.654051 -270.275656 
L 219.028449 -270.530123 
L 212.402846 -280.858503 
L 205.777243 -272.045905 
L 199.15164 -290.987557 
L 192.526037 -280.5078 
L 185.900434 -273.273846 
L 179.274831 -294.817518 
L 172.649228 -274.622682 
L 166.023625 -280.133103 
L 159.398022 -280.840382 
L 152.772419 -277.299093 
L 146.146816 -237.155831 
L 139.521213 -260.459311 
L 132.89561 -274.950108 
L 126.270007 -236.204269 
L 119.644404 -270.158506 
L 113.018801 -263.389323 
L 106.393198 -234.198337 
L 99.767595 -147.904852 
L 93.141992 -152.782314 
L 86.516389 -209.172224 
L 79.890786 -241.272307 
L 73.265183 -209.172224 
L 66.63958 -209.172224 
L 60.013977 -216.321331 
z
" style="stroke: #1f77b4; stroke-opacity: 0.35"/>
    </defs>
    <g clip-path="url(#p703a3164bf)">
     <use xlink:href="#m6f8378c152" x="0" y="324.466687" style="fill: #1f77b4; fill-opacity: 0.35; stroke: #1f77b4; stroke-opacity: 0.35"/>
    </g>
   </g>
   <g id="matplotlib.axis_1">
    <g id="xtick_1">
     <g id="line2d_1">
      <path d="M 86.206792 215.514535 
L 86.206792 20.798437 
" clip-path="url(#p703a3164bf)" style="fill: none; stroke: #b0b0b0; stroke-opacity: 0.3; stroke-width: 0.8; stroke-linecap: square"/>
     </g>
     <g id="line2d_2">
      <defs>
       <path id="m26ad92a041" d="M 0 0 
L 0 3.5 
" style="stroke: #000000; stroke-width: 0.8"/>
      </defs>
      <g>
       <use xlink:href="#m26ad92a041" x="86.206792" y="215.514535" style="stroke: #000000; stroke-width: 0.8"/>
      </g>
     </g>
    </g>
    <g id="xtick_2">
     <g id="line2d_3">
      <path d="M 154.565043 215.514535 
L 154.565043 20.798437 
" clip-path="url(#p703a3164bf)" style="fill: none; stroke: #b0b0b0; stroke-opacity: 0.3; stroke-width: 0.8; stroke-linecap: square"/>
     </g>
     <g id="line2d_4">
      <g>
       <use xlink:href="#m26ad92a041" x="154.565043" y="215.514535" style="stroke: #000000; stroke-width: 0.8"/>
      </g>
     </g>
    </g>
    <g id="xtick_3">
     <g id="line2d_5">
      <path d="M 222.923293 215.514535 
L 222.923293 20.798437 
" clip-path="url(#p703a3164bf)" style="fill: none; stroke: #b0b0b0; stroke-opacity: 0.3; stroke-width: 0.8; stroke-linecap: square"/>
     </g>
     <g id="line2d_6">
      <g>
       <use xlink:href="#m26ad92a041" x="222.923293" y="215.514535" style="stroke: #000000; stroke-width: 0.8"/>
      </g>
     </g>
    </g>
    <g id="xtick_4">
     <g id="line2d_7">
      <path d="M 291.281544 215.514535 
L 291.281544 20.798437 
" clip-path="url(#p703a3164bf)" style="fill: none; stroke: #b0b0b0; stroke-opacity: 0.3; stroke-width: 0.8; stroke-linecap: square"/>
     </g>
     <g id="line2d_8">
      <g>
       <use xlink:href="#m26ad92a041" x="291.281544" y="215.514535" style="stroke: #000000; stroke-width: 0.8"/>
      </g>
     </g>
    </g>
    <g id="xtick_5">
     <g id="line2d_9">
      <path d="M 359.639794 215.514535 
L 359.639794 20.798437 
" clip-path="url(#p703a3164bf)" style="fill: none; stroke: #b0b0b0; stroke-opacity: 0.3; stroke-width: 0.8; stroke-linecap: square"/>
     </g>
     <g id="line2d_10">
      <g>
       <use xlink:href="#m26ad92a041" x="359.639794" y="215.514535" style="stroke: #000000; stroke-width: 0.8"/>
      </g>
     </g>
    </g>
   </g>
   <g id="matplotlib.axis_2">
    <g id="ytick_1">
     <g id="line2d_11">
      <path d="M 43.78125 194.561265 
L 400.90125 194.561265 
" clip-path="url(#p703a3164bf)" style="fill: none; stroke: #b0b0b0; stroke-opacity: 0.3; stroke-width: 0.8; stroke-linecap: square"/>
     </g>
     <g id="line2d_12">
      <defs>
       <path id="m804092c2f4" d="M 0 0 
L -3.5 0 
" style="stroke: #000000; stroke-width: 0.8"/>
      </defs>
      <g>
       <use xlink:href="#m804092c2f4" x="43.78125" y="194.561265" style="stroke: #000000; stroke-width: 0.8"/>
      </g>
     </g>
     <g id="text_1">
      <!-- −4 -->
      <g transform="translate(22.039063 198.360484) scale(0.1 -0.1)">
       <defs>
        <path id="DejaVuSans-2212" d="M 678 2272 
L 4684 2272 
L 4684 1741 
L 678 1741 
L 678 2272 
z
" transform="scale(0.015625)"/>
        <path id="DejaVuSans-34" d="M 2419 4116 
L 825 1625 
L 2419 1625 
L 2419 4116 
z
M 2253 4666 
L 3047 4666 
L 3047 1625 
L 3713 1625 
L 3713 1100 
L 3047 1100 
L 3047 0 
L 2419 0 
L 2419 1100 
L 313 1100 
L 313 1709 
L 2253 4666 
z
" transform="scale(0.015625)"/>
       </defs>
       <use xlink:href="#DejaVuSans-2212"/>
       <use xlink:href="#DejaVuSans-34" transform="translate(83.789062 0)"/>
      </g>
     </g>
    </g>
    <g id="ytick_2">
     <g id="line2d_13">
      <path d="M 43.78125 154.927865 
L 400.90125 154.927865 
" clip-path="url(#p703a3164bf)" style="fill: none; stroke: #b0b0b0; stroke-opacity: 0.3; stroke-width: 0.8; stroke-linecap: square"/>
     </g>
     <g id="line2d_14">
      <g>
       <use xlink:href="#m804092c2f4" x="43.78125" y="154.927865" style="stroke: #000000; stroke-width: 0.8"/>
      </g>
     </g>
     <g id="text_2">
      <!-- −2 -->
      <g transform="translate(22.039063 158.727083) scale(0.1 -0.1)">
       <defs>
        <path id="DejaVuSans-32" d="M 1228 531 
L 3431 531 
L 3431 0 
L 469 0 
L 469 531 
Q 828 903 1448 1529 
Q 2069 2156 2228 2338 
Q 2531 2678 2651 2914 
Q 2772 3150 2772 3378 
Q 2772 3750 2511 3984 
Q 2250 4219 1831 4219 
Q 1534 4219 1204 4116 
Q 875 4013 500 3803 
L 500 4441 
Q 881 4594 1212 4672 
Q 1544 4750 1819 4750 
Q 2544 4750 2975 4387 
Q 3406 4025 3406 3419 
Q 3406 3131 3298 2873 
Q 3191 2616 2906 2266 
Q 2828 2175 2409 1742 
Q 1991 1309 1228 531 
z
" transform="scale(0.015625)"/>
       </defs>
       <use xlink:href="#DejaVuSans-2212"/>
       <use xlink:href="#DejaVuSans-32" transform="translate(83.789062 0)"/>
      </g>
     </g>
    </g>
    <g id="ytick_3">
     <g id="line2d_15">
      <path d="M 43.78125 115.294464 
L 400.90125 115.294464 
" clip-path="url(#p703a3164bf)" style="fill: none; stroke: #b0b0b0; stroke-opacity: 0.3; stroke-width: 0.8; stroke-linecap: square"/>
     </g>
     <g id="line2d_16">
      <g>
       <use xlink:href="#m804092c2f4" x="43.78125" y="115.294464" style="stroke: #000000; stroke-width: 0.8"/>
      </g>
     </g>
     <g id="text_3">
      <!-- 0 -->
      <g transform="translate(30.41875 119.093683) scale(0.1 -0.1)">
       <defs>
        <path id="DejaVuSans-30" d="M 2034 4250 
Q 1547 4250 1301 3770 
Q 1056 3291 1056 2328 
Q 1056 1369 1301 889 
Q 1547 409 2034 409 
Q 2525 409 2770 889 
Q 3016 1369 3016 2328 
Q 3016 3291 2770 3770 
Q 2525 4250 2034 4250 
z
M 2034 4750 
Q 2819 4750 3233 4129 
Q 3647 3509 3647 2328 
Q 3647 1150 3233 529 
Q 2819 -91 2034 -91 
Q 1250 -91 836 529 
Q 422 1150 422 2328 
Q 422 3509 836 4129 
Q 1250 4750 2034 4750 
z
" transform="scale(0.015625)"/>
       </defs>
       <use xlink:href="#DejaVuSans-30"/>
      </g>
     </g>
    </g>
    <g id="ytick_4">
     <g id="line2d_17">
      <path d="M 43.78125 75.661063 
L 400.90125 75.661063 
" clip-path="url(#p703a3164bf)" style="fill: none; stroke: #b0b0b0; stroke-opacity: 0.3; stroke-width: 0.8; stroke-linecap: square"/>
     </g>
     <g id="line2d_18">
      <g>
       <use xlink:href="#m804092c2f4" x="43.78125" y="75.661063" style="stroke: #000000; stroke-width: 0.8"/>
      </g>
     </g>
     <g id="text_4">
      <!-- 2 -->
      <g transform="translate(30.41875 79.460282) scale(0.1 -0.1)">
       <use xlink:href="#DejaVuSans-32"/>
      </g>
     </g>
    </g>
    <g id="ytick_5">
     <g id="line2d_19">
      <path d="M 43.78125 36.027662 
L 400.90125 36.027662 
" clip-path="url(#p703a3164bf)" style="fill: none; stroke: #b0b0b0; stroke-opacity: 0.3; stroke-width: 0.8; stroke-linecap: square"/>
     </g>
     <g id="line2d_20">
      <g>
       <use xlink:href="#m804092c2f4" x="43.78125" y="36.027662" style="stroke: #000000; stroke-width: 0.8"/>
      </g>
     </g>
     <g id="text_5">
      <!-- 4 -->
      <g transform="translate(30.41875 39.826881) scale(0.1 -0.1)">
       <use xlink:href="#DejaVuSans-34"/>
      </g>
     </g>
    </g>
    <g id="text_6">
     <!-- y -->
     <g transform="translate(15.959375 121.115861) rotate(-90) scale(0.1 -0.1)">
      <defs>
       <path id="DejaVuSans-79" d="M 2059 -325 
Q 1816 -950 1584 -1140 
Q 1353 -1331 966 -1331 
L 506 -1331 
L 506 -850 
L 844 -850 
Q 1081 -850 1212 -737 
Q 1344 -625 1503 -206 
L 1606 56 
L 191 3500 
L 800 3500 
L 1894 763 
L 2988 3500 
L 3597 3500 
L 2059 -325 
z
" transform="scale(0.015625)"/>
      </defs>
      <use xlink:href="#DejaVuSans-79"/>
     </g>
    </g>
   </g>
   <g id="LineCollection_1">
    <path d="M 60.013977 108.145356 
L 60.013977 108.145356 
" clip-path="url(#p703a3164bf)" style="fill: none; stroke: #1f77b4; stroke-width: 1.5"/>
    <path d="M 66.63958 115.294464 
L 66.63958 115.294464 
" clip-path="url(#p703a3164bf)" style="fill: none; stroke: #1f77b4; stroke-width: 1.5"/>
    <path d="M 73.265183 115.294464 
L 73.265183 115.294464 
" clip-path="url(#p703a3164bf)" style="fill: none; stroke: #1f77b4; stroke-width: 1.5"/>
    <path d="M 79.890786 148.359838 
L 79.890786 110.410987 
" clip-path="url(#p703a3164bf)" style="fill: none; stroke: #1f77b4; stroke-width: 1.5"/>
    <path d="M 86.516389 115.294464 
L 86.516389 115.294464 
" clip-path="url(#p703a3164bf)" style="fill: none; stroke: #1f77b4; stroke-width: 1.5"/>
    <path d="M 93.141992 171.684374 
L 93.141992 171.684374 
" clip-path="url(#p703a3164bf)" style="fill: none; stroke: #1f77b4; stroke-width: 1.5"/>
    <path d="M 99.767595 176.561836 
L 99.767595 176.561836 
" clip-path="url(#p703a3164bf)" style="fill: none; stroke: #1f77b4; stroke-width: 1.5"/>
    <path d="M 106.393198 121.21573 
L 106.393198 103.881356 
" clip-path="url(#p703a3164bf)" style="fill: none; stroke: #1f77b4; stroke-width: 1.5"/>
    <path d="M 113.018801 101.826922 
L 113.018801 83.30118 
" clip-path="url(#p703a3164bf)" style="fill: none; stroke: #1f77b4; stroke-width: 1.5"/>
    <path d="M 119.644404 104.816851 
L 119.644404 81.73116 
" clip-path="url(#p703a3164bf)" style="fill: none; stroke: #1f77b4; stroke-width: 1.5"/>
    <path d="M 126.270007 115.363669 
L 126.270007 107.448111 
" clip-path="url(#p703a3164bf)" style="fill: none; stroke: #1f77b4; stroke-width: 1.5"/>
    <path d="M 132.89561 122.440592 
L 132.89561 103.2356 
" clip-path="url(#p703a3164bf)" style="fill: none; stroke: #1f77b4; stroke-width: 1.5"/>
    <path d="M 139.521213 117.50055 
L 139.521213 102.624987 
" clip-path="url(#p703a3164bf)" style="fill: none; stroke: #1f77b4; stroke-width: 1.5"/>
    <path d="M 146.146816 132.417397 
L 146.146816 120.050629 
" clip-path="url(#p703a3164bf)" style="fill: none; stroke: #1f77b4; stroke-width: 1.5"/>
    <path d="M 152.772419 117.247418 
L 152.772419 104.384978 
" clip-path="url(#p703a3164bf)" style="fill: none; stroke: #1f77b4; stroke-width: 1.5"/>
    <path d="M 159.398022 122.522887 
L 159.398022 112.231192 
" clip-path="url(#p703a3164bf)" style="fill: none; stroke: #1f77b4; stroke-width: 1.5"/>
    <path d="M 166.023625 114.437604 
L 166.023625 104.046656 
" clip-path="url(#p703a3164bf)" style="fill: none; stroke: #1f77b4; stroke-width: 1.5"/>
    <path d="M 172.649228 122.403382 
L 172.649228 111.812815 
" clip-path="url(#p703a3164bf)" style="fill: none; stroke: #1f77b4; stroke-width: 1.5"/>
    <path d="M 179.274831 113.841618 
L 179.274831 101.240451 
" clip-path="url(#p703a3164bf)" style="fill: none; stroke: #1f77b4; stroke-width: 1.5"/>
    <path d="M 185.900434 115.635987 
L 185.900434 106.806636 
" clip-path="url(#p703a3164bf)" style="fill: none; stroke: #1f77b4; stroke-width: 1.5"/>
    <path d="M 192.526037 114.468586 
L 192.526037 105.498871 
" clip-path="url(#p703a3164bf)" style="fill: none; stroke: #1f77b4; stroke-width: 1.5"/>
    <path d="M 199.15164 118.227107 
L 199.15164 110.169503 
" clip-path="url(#p703a3164bf)" style="fill: none; stroke: #1f77b4; stroke-width: 1.5"/>
    <path d="M 205.777243 122.029949 
L 205.777243 113.158585 
" clip-path="url(#p703a3164bf)" style="fill: none; stroke: #1f77b4; stroke-width: 1.5"/>
    <path d="M 212.402846 122.405157 
L 212.402846 113.87308 
" clip-path="url(#p703a3164bf)" style="fill: none; stroke: #1f77b4; stroke-width: 1.5"/>
    <path d="M 219.028449 121.847496 
L 219.028449 112.649517 
" clip-path="url(#p703a3164bf)" style="fill: none; stroke: #1f77b4; stroke-width: 1.5"/>
    <path d="M 225.654051 113.944352 
L 225.654051 106.698539 
" clip-path="url(#p703a3164bf)" style="fill: none; stroke: #1f77b4; stroke-width: 1.5"/>
    <path d="M 232.279654 113.324754 
L 232.279654 105.2549 
" clip-path="url(#p703a3164bf)" style="fill: none; stroke: #1f77b4; stroke-width: 1.5"/>
    <path d="M 238.905257 110.949493 
L 238.905257 103.565238 
" clip-path="url(#p703a3164bf)" style="fill: none; stroke: #1f77b4; stroke-width: 1.5"/>
    <path d="M 245.53086 118.622913 
L 245.53086 110.577867 
" clip-path="url(#p703a3164bf)" style="fill: none; stroke: #1f77b4; stroke-width: 1.5"/>
    <path d="M 252.156463 121.149022 
L 252.156463 114.841836 
" clip-path="url(#p703a3164bf)" style="fill: none; stroke: #1f77b4; stroke-width: 1.5"/>
    <path d="M 258.782066 117.127737 
L 258.782066 106.429714 
" clip-path="url(#p703a3164bf)" style="fill: none; stroke: #1f77b4; stroke-width: 1.5"/>
    <path d="M 265.407669 120.786283 
L 265.407669 109.562805 
" clip-path="url(#p703a3164bf)" style="fill: none; stroke: #1f77b4; stroke-width: 1.5"/>
    <path d="M 272.033272 128.043818 
L 272.033272 119.22878 
" clip-path="url(#p703a3164bf)" style="fill: none; stroke: #1f77b4; stroke-width: 1.5"/>
    <path d="M 278.658875 124.311072 
L 278.658875 108.5112 
" clip-path="url(#p703a3164bf)" style="fill: none; stroke: #1f77b4; stroke-width: 1.5"/>
    <path d="M 285.284478 114.595503 
L 285.284478 104.433349 
" clip-path="url(#p703a3164bf)" style="fill: none; stroke: #1f77b4; stroke-width: 1.5"/>
    <path d="M 291.910081 126.889544 
L 291.910081 117.872845 
" clip-path="url(#p703a3164bf)" style="fill: none; stroke: #1f77b4; stroke-width: 1.5"/>
    <path d="M 298.535684 126.189794 
L 298.535684 108.385317 
" clip-path="url(#p703a3164bf)" style="fill: none; stroke: #1f77b4; stroke-width: 1.5"/>
    <path d="M 305.161287 130.543115 
L 305.161287 115.571233 
" clip-path="url(#p703a3164bf)" style="fill: none; stroke: #1f77b4; stroke-width: 1.5"/>
    <path d="M 311.78689 133.249436 
L 311.78689 119.695727 
" clip-path="url(#p703a3164bf)" style="fill: none; stroke: #1f77b4; stroke-width: 1.5"/>
    <path d="M 318.412493 142.799123 
L 318.412493 115.085498 
" clip-path="url(#p703a3164bf)" style="fill: none; stroke: #1f77b4; stroke-width: 1.5"/>
    <path d="M 325.038096 122.195932 
L 325.038096 101.909759 
" clip-path="url(#p703a3164bf)" style="fill: none; stroke: #1f77b4; stroke-width: 1.5"/>
    <path d="M 331.663699 144.776057 
L 331.663699 114.944833 
" clip-path="url(#p703a3164bf)" style="fill: none; stroke: #1f77b4; stroke-width: 1.5"/>
    <path d="M 338.289302 125.314901 
L 338.289302 125.314889 
" clip-path="url(#p703a3164bf)" style="fill: none; stroke: #1f77b4; stroke-width: 1.5"/>
    <path d="M 344.914905 140.412946 
L 344.914905 96.182144 
" clip-path="url(#p703a3164bf)" style="fill: none; stroke: #1f77b4; stroke-width: 1.5"/>
    <path d="M 351.540508 129.043034 
L 351.540508 112.125049 
" clip-path="url(#p703a3164bf)" style="fill: none; stroke: #1f77b4; stroke-width: 1.5"/>
    <path d="M 358.166111 115.294464 
L 358.166111 115.294464 
" clip-path="url(#p703a3164bf)" style="fill: none; stroke: #1f77b4; stroke-width: 1.5"/>
    <path d="M 364.791714 132.915144 
L 364.791714 116.86438 
" clip-path="url(#p703a3164bf)" style="fill: none; stroke: #1f77b4; stroke-width: 1.5"/>
    <path d="M 371.417317 91.983558 
L 371.417317 91.983541 
" clip-path="url(#p703a3164bf)" style="fill: none; stroke: #1f77b4; stroke-width: 1.5"/>
    <path d="M 378.04292 119.76835 
L 378.04292 119.76835 
" clip-path="url(#p703a3164bf)" style="fill: none; stroke: #1f77b4; stroke-width: 1.5"/>
    <path d="M 384.668523 178.190553 
L 384.668523 178.190553 
" clip-path="url(#p703a3164bf)" style="fill: none; stroke: #1f77b4; stroke-width: 1.5"/>
   </g>
   <g id="line2d_21">
    <path d="M 60.013977 108.145356 
L 66.63958 115.294464 
L 73.265183 115.294464 
L 79.890786 129.385413 
L 86.516389 115.294464 
L 93.141992 171.684374 
L 99.767595 176.561836 
L 106.393198 112.548543 
L 113.018801 92.564051 
L 119.644404 93.274006 
L 126.270007 111.40589 
L 132.89561 112.838096 
L 139.521213 110.062769 
L 146.146816 126.234013 
L 152.772419 110.816198 
L 159.398022 117.377039 
L 166.023625 109.24213 
L 172.649228 117.108099 
L 179.274831 107.541035 
L 185.900434 111.221312 
L 192.526037 109.983729 
L 199.15164 114.198305 
L 205.777243 117.594267 
L 212.402846 118.139118 
L 219.028449 117.248507 
L 225.654051 110.321446 
L 232.279654 109.289827 
L 238.905257 107.257366 
L 245.53086 114.60039 
L 252.156463 117.995429 
L 258.782066 111.778726 
L 265.407669 115.174544 
L 272.033272 123.636299 
L 278.658875 116.411136 
L 285.284478 109.514426 
L 291.910081 122.381195 
L 298.535684 117.287556 
L 305.161287 123.057174 
L 311.78689 126.472581 
L 318.412493 128.942311 
L 325.038096 112.052845 
L 331.663699 129.860445 
L 338.289302 125.314895 
L 344.914905 118.297545 
L 351.540508 120.584042 
L 358.166111 115.294464 
L 364.791714 124.889762 
L 371.417317 91.983549 
L 378.04292 119.76835 
L 384.668523 178.190553 
" clip-path="url(#p703a3164bf)" style="fill: none; stroke: #1f77b4; stroke-width: 1.5; stroke-linecap: square"/>
    <defs>
     <path id="m1ecc669372" d="M 0 1.25 
C 0.331504 1.25 0.649475 1.118292 0.883883 0.883883 
C 1.118292 0.649475 1.25 0.331504 1.25 0 
C 1.25 -0.331504 1.118292 -0.649475 0.883883 -0.883883 
C 0.649475 -1.118292 0.331504 -1.25 0 -1.25 
C -0.331504 -1.25 -0.649475 -1.118292 -0.883883 -0.883883 
C -1.118292 -0.649475 -1.25 -0.331504 -1.25 0 
C -1.25 0.331504 -1.118292 0.649475 -0.883883 0.883883 
C -0.649475 1.118292 -0.331504 1.25 0 1.25 
z
" style="stroke: #1f77b4"/>
    </defs>
    <g clip-path="url(#p703a3164bf)">
     <use xlink:href="#m1ecc669372" x="60.013977" y="108.145356" style="fill: #1f77b4; stroke: #1f77b4"/>
     <use xlink:href="#m1ecc669372" x="66.63958" y="115.294464" style="fill: #1f77b4; stroke: #1f77b4"/>
     <use xlink:href="#m1ecc669372" x="73.265183" y="115.294464" style="fill: #1f77b4; stroke: #1f77b4"/>
     <use xlink:href="#m1ecc669372" x="79.890786" y="129.385413" style="fill: #1f77b4; stroke: #1f77b4"/>
     <use xlink:href="#m1ecc669372" x="86.516389" y="115.294464" style="fill: #1f77b4; stroke: #1f77b4"/>
     <use xlink:href="#m1ecc669372" x="93.141992" y="171.684374" style="fill: #1f77b4; stroke: #1f77b4"/>
     <use xlink:href="#m1ecc669372" x="99.767595" y="176.561836" style="fill: #1f77b4; stroke: #1f77b4"/>
     <use xlink:href="#m1ecc669372" x="106.393198" y="112.548543" style="fill: #1f77b4; stroke: #1f77b4"/>
     <use xlink:href="#m1ecc669372" x="113.018801" y="92.564051" style="fill: #1f77b4; stroke: #1f77b4"/>
     <use xlink:href="#m1ecc669372" x="119.644404" y="93.274006" style="fill: #1f77b4; stroke: #1f77b4"/>
     <use xlink:href="#m1ecc669372" x="126.270007" y="111.40589" style="fill: #1f77b4; stroke: #1f77b4"/>
     <use xlink:href="#m1ecc669372" x="132.89561" y="112.838096" style="fill: #1f77b4; stroke: #1f77b4"/>
     <use xlink:href="#m1ecc669372" x="139.521213" y="110.062769" style="fill: #1f77b4; stroke: #1f77b4"/>
     <use xlink:href="#m1ecc669372" x="146.146816" y="126.234013" style="fill: #1f77b4; stroke: #1f77b4"/>
     <use xlink:href="#m1ecc669372" x="152.772419" y="110.816198" style="fill: #1f77b4; stroke: #1f77b4"/>
     <use xlink:href="#m1ecc669372" x="159.398022" y="117.377039" style="fill: #1f77b4; stroke: #1f77b4"/>
     <use xlink:href="#m1ecc669372" x="166.023625" y="109.24213" style="fill: #1f77b4; stroke: #1f77b4"/>
     <use xlink:href="#m1ecc669372" x="172.649228" y="117.108099" style="fill: #1f77b4; stroke: #1f77b4"/>
     <use xlink:href="#m1ecc669372" x="179.274831" y="107.541035" style="fill: #1f77b4; stroke: #1f77b4"/>
     <use xlink:href="#m1ecc669372" x="185.900434" y="111.221312" style="fill: #1f77b4; stroke: #1f77b4"/>
     <use xlink:href="#m1ecc669372" x="192.526037" y="109.983729" style="fill: #1f77b4; stroke: #1f77b4"/>
     <use xlink:href="#m1ecc669372" x="199.15164" y="114.198305" style="fill: #1f77b4; stroke: #1f77b4"/>
     <use xlink:href="#m1ecc669372" x="205.777243" y="117.594267" style="fill: #1f77b4; stroke: #1f77b4"/>
     <use xlink:href="#m1ecc669372" x="212.402846" y="118.139118" style="fill: #1f77b4; stroke: #1f77b4"/>
     <use xlink:href="#m1ecc669372" x="219.028449" y="117.248507" style="fill: #1f77b4; stroke: #1f77b4"/>
     <use xlink:href="#m1ecc669372" x="225.654051" y="110.321446" style="fill: #1f77b4; stroke: #1f77b4"/>
     <use xlink:href="#m1ecc669372" x="232.279654" y="109.289827" style="fill: #1f77b4; stroke: #1f77b4"/>
     <use xlink:href="#m1ecc669372" x="238.905257" y="107.257366" style="fill: #1f77b4; stroke: #1f77b4"/>
     <use xlink:href="#m1ecc669372" x="245.53086" y="114.60039" style="fill: #1f77b4; stroke: #1f77b4"/>
     <use xlink:href="#m1ecc669372" x="252.156463" y="117.995429" style="fill: #1f77b4; stroke: #1f77b4"/>
     <use xlink:href="#m1ecc669372" x="258.782066" y="111.778726" style="fill: #1f77b4; stroke: #1f77b4"/>
     <use xlink:href="#m1ecc669372" x="265.407669" y="115.174544" style="fill: #1f77b4; stroke: #1f77b4"/>
     <use xlink:href="#m1ecc669372" x="272.033272" y="123.636299" style="fill: #1f77b4; stroke: #1f77b4"/>
     <use xlink:href="#m1ecc669372" x="278.658875" y="116.411136" style="fill: #1f77b4; stroke: #1f77b4"/>
     <use xlink:href="#m1ecc669372" x="285.284478" y="109.514426" style="fill: #1f77b4; stroke: #1f77b4"/>
     <use xlink:href="#m1ecc669372" x="291.910081" y="122.381195" style="fill: #1f77b4; stroke: #1f77b4"/>
     <use xlink:href="#m1ecc669372" x="298.535684" y="117.287556" style="fill: #1f77b4; stroke: #1f77b4"/>
     <use xlink:href="#m1ecc669372" x="305.161287" y="123.057174" style="fill: #1f77b4; stroke: #1f77b4"/>
     <use xlink:href="#m1ecc669372" x="311.78689" y="126.472581" style="fill: #1f77b4; stroke: #1f77b4"/>
     <use xlink:href="#m1ecc669372" x="318.412493" y="128.942311" style="fill: #1f77b4; stroke: #1f77b4"/>
     <use xlink:href="#m1ecc669372" x="325.038096" y="112.052845" style="fill: #1f77b4; stroke: #1f77b4"/>
     <use xlink:href="#m1ecc669372" x="331.663699" y="129.860445" style="fill: #1f77b4; stroke: #1f77b4"/>
     <use xlink:href="#m1ecc669372" x="338.289302" y="125.314895" style="fill: #1f77b4; stroke: #1f77b4"/>
     <use xlink:href="#m1ecc669372" x="344.914905" y="118.297545" style="fill: #1f77b4; stroke: #1f77b4"/>
     <use xlink:href="#m1ecc669372" x="351.540508" y="120.584042" style="fill: #1f77b4; stroke: #1f77b4"/>
     <use xlink:href="#m1ecc669372" x="358.166111" y="115.294464" style="fill: #1f77b4; stroke: #1f77b4"/>
     <use xlink:href="#m1ecc669372" x="364.791714" y="124.889762" style="fill: #1f77b4; stroke: #1f77b4"/>
     <use xlink:href="#m1ecc669372" x="371.417317" y="91.983549" style="fill: #1f77b4; stroke: #1f77b4"/>
     <use xlink:href="#m1ecc669372" x="378.04292" y="119.76835" style="fill: #1f77b4; stroke: #1f77b4"/>
     <use xlink:href="#m1ecc669372" x="384.668523" y="178.190553" style="fill: #1f77b4; stroke: #1f77b4"/>
    </g>
   </g>
   <g id="patch_3">
    <path d="M 43.78125 215.514535 
L 43.78125 20.798437 
" style="fill: none; stroke: #000000; stroke-width: 0.8; stroke-linejoin: miter; stroke-linecap: square"/>
   </g>
   <g id="patch_4">
    <path d="M 400.90125 215.514535 
L 400.90125 20.798437 
" style="fill: none; stroke: #000000; stroke-width: 0.8; stroke-linejoin: miter; stroke-linecap: square"/>
   </g>
   <g id="patch_5">
    <path d="M 43.78125 215.514535 
L 400.90125 215.514535 
" style="fill: none; stroke: #000000; stroke-width: 0.8; stroke-linejoin: miter; stroke-linecap: square"/>
   </g>
   <g id="patch_6">
    <path d="M 43.78125 20.798437 
L 400.90125 20.798437 
" style="fill: none; stroke: #000000; stroke-width: 0.8; stroke-linejoin: miter; stroke-linecap: square"/>
   </g>
   <g id="text_7">
    <!-- y vs x -->
    <g transform="translate(207.680313 14.798437) scale(0.1 -0.1)">
     <defs>
      <path id="DejaVuSans-20" transform="scale(0.015625)"/>
      <path id="DejaVuSans-76" d="M 191 3500 
L 800 3500 
L 1894 563 
L 2988 3500 
L 3597 3500 
L 2284 0 
L 1503 0 
L 191 3500 
z
" transform="scale(0.015625)"/>
      <path id="DejaVuSans-73" d="M 2834 3397 
L 2834 2853 
Q 2591 2978 2328 3040 
Q 2066 3103 1784 3103 
Q 1356 3103 1142 2972 
Q 928 2841 928 2578 
Q 928 2378 1081 2264 
Q 1234 2150 1697 2047 
L 1894 2003 
Q 2506 1872 2764 1633 
Q 3022 1394 3022 966 
Q 3022 478 2636 193 
Q 2250 -91 1575 -91 
Q 1294 -91 989 -36 
Q 684 19 347 128 
L 347 722 
Q 666 556 975 473 
Q 1284 391 1588 391 
Q 1994 391 2212 530 
Q 2431 669 2431 922 
Q 2431 1156 2273 1281 
Q 2116 1406 1581 1522 
L 1381 1569 
Q 847 1681 609 1914 
Q 372 2147 372 2553 
Q 372 3047 722 3315 
Q 1072 3584 1716 3584 
Q 2034 3584 2315 3537 
Q 2597 3491 2834 3397 
z
" transform="scale(0.015625)"/>
      <path id="DejaVuSans-78" d="M 3513 3500 
L 2247 1797 
L 3578 0 
L 2900 0 
L 1881 1375 
L 863 0 
L 184 0 
L 1544 1831 
L 300 3500 
L 978 3500 
L 1906 2253 
L 2834 3500 
L 3513 3500 
z
" transform="scale(0.015625)"/>
     </defs>
     <use xlink:href="#DejaVuSans-79"/>
     <use xlink:href="#DejaVuSans-20" transform="translate(59.179688 0)"/>
     <use xlink:href="#DejaVuSans-76" transform="translate(90.966797 0)"/>
     <use xlink:href="#DejaVuSans-73" transform="translate(150.146484 0)"/>
     <use xlink:href="#DejaVuSans-20" transform="translate(202.246094 0)"/>
     <use xlink:href="#DejaVuSans-78" transform="translate(234.033203 0)"/>
    </g>
   </g>
   <g id="legend_1">
    <g id="patch_7">
     <path d="M 306.766875 43.754687 
L 393.90125 43.754687 
Q 395.90125 43.754687 395.90125 41.754687 
L 395.90125 27.798437 
Q 395.90125 25.798437 393.90125 25.798437 
L 306.766875 25.798437 
Q 304.766875 25.798437 304.766875 27.798437 
L 304.766875 41.754687 
Q 304.766875 43.754687 306.766875 43.754687 
z
" style="fill: #ffffff; opacity: 0.8; stroke: #cccccc; stroke-linejoin: miter"/>
    </g>
    <g id="LineCollection_2">
     <path d="M 318.766875 38.896875 
L 318.766875 28.896875 
" style="fill: none; stroke: #1f77b4; stroke-width: 1.5"/>
    </g>
    <g id="line2d_22">
     <path d="M 308.766875 33.896875 
L 328.766875 33.896875 
" style="fill: none; stroke: #1f77b4; stroke-width: 1.5; stroke-linecap: square"/>
    </g>
    <g id="line2d_23">
     <g>
      <use xlink:href="#m1ecc669372" x="318.766875" y="33.896875" style="fill: #1f77b4; stroke: #1f77b4"/>
     </g>
    </g>
    <g id="text_8">
     <!-- tests_input -->
     <g transform="translate(336.766875 37.396875) scale(0.1 -0.1)">
      <defs>
       <path id="DejaVuSans-74" d="M 1172 4494 
L 1172 3500 
L 2356 3500 
L 2356 3053 
L 1172 3053 
L 1172 1153 
Q 1172 725 1289 603 
Q 1406 481 1766 481 
L 2356 481 
L 2356 0 
L 1766 0 
Q 1100 0 847 248 
Q 594 497 594 1153 
L 594 3053 
L 172 3053 
L 172 3500 
L 594 3500 
L 594 4494 
L 1172 4494 
z
" transform="scale(0.015625)"/>
       <path id="DejaVuSans-65" d="M 3597 1894 
L 3597 1613 
L 953 1613 
Q 991 1019 1311 708 
Q 1631 397 2203 397 
Q 2534 397 2845 478 
Q 3156 559 3463 722 
L 3463 178 
Q 3153 47 2828 -22 
Q 2503 -91 2169 -91 
Q 1331 -91 842 396 
Q 353 884 353 1716 
Q 353 2575 817 3079 
Q 1281 3584 2069 3584 
Q 2775 3584 3186 3129 
Q 3597 2675 3597 1894 
z
M 3022 2063 
Q 3016 2534 2758 2815 
Q 2500 3097 2075 3097 
Q 1594 3097 1305 2825 
Q 1016 2553 972 2059 
L 3022 2063 
z
" transform="scale(0.015625)"/>
       <path id="DejaVuSans-5f" d="M 3263 -1063 
L 3263 -1509 
L -63 -1509 
L -63 -1063 
L 3263 -1063 
z
" transform="scale(0.015625)"/>
       <path id="DejaVuSans-69" d="M 603 3500 
L 1178 3500 
L 1178 0 
L 603 0 
L 603 3500 
z
M 603 4863 
L 1178 4863 
L 1178 4134 
L 603 4134 
L 603 4863 
z
" transform="scale(0.015625)"/>
       <path id="DejaVuSans-6e" d="M 3513 2113 
L 3513 0 
L 2938 0 
L 2938 2094 
Q 2938 2591 2744 2837 
Q 2550 3084 2163 3084 
Q 1697 3084 1428 2787 
Q 1159 2491 1159 1978 
L 1159 0 
L 581 0 
L 581 3500 
L 1159 3500 
L 1159 2956 
Q 1366 3272 1645 3428 
Q 1925 3584 2291 3584 
Q 2894 3584 3203 3211 
Q 3513 2838 3513 2113 
z
" transform="scale(0.015625)"/>
       <path id="DejaVuSans-70" d="M 1159 525 
L 1159 -1331 
L 581 -1331 
L 581 3500 
L 1159 3500 
L 1159 2969 
Q 1341 3281 1617 3432 
Q 1894 3584 2278 3584 
Q 2916 3584 3314 3078 
Q 3713 2572 3713 1747 
Q 3713 922 3314 415 
Q 2916 -91 2278 -91 
Q 1894 -91 1617 61 
Q 1341 213 1159 525 
z
M 3116 1747 
Q 3116 2381 2855 2742 
Q 2594 3103 2138 3103 
Q 1681 3103 1420 2742 
Q 1159 2381 1159 1747 
Q 1159 1113 1420 752 
Q 1681 391 2138 391 
Q 2594 391 2855 752 
Q 3116 1113 3116 1747 
z
" transform="scale(0.015625)"/>
       <path id="DejaVuSans-75" d="M 544 1381 
L 544 3500 
L 1119 3500 
L 1119 1403 
Q 1119 906 1312 657 
Q 1506 409 1894 409 
Q 2359 409 2629 706 
Q 2900 1003 2900 1516 
L 2900 3500 
L 3475 3500 
L 3475 0 
L 2900 0 
L 2900 538 
Q 2691 219 2414 64 
Q 2138 -91 1772 -91 
Q 1169 -91 856 284 
Q 544 659 544 1381 
z
M 1991 3584 
L 1991 3584 
z
" transform="scale(0.015625)"/>
      </defs>
      <use xlink:href="#DejaVuSans-74"/>
      <use xlink:href="#DejaVuSans-65" transform="translate(39.208984 0)"/>
      <use xlink:href="#DejaVuSans-73" transform="translate(100.732422 0)"/>
      <use xlink:href="#DejaVuSans-74" transform="translate(152.832031 0)"/>
      <use xlink:href="#DejaVuSans-73" transform="translate(192.041016 0)"/>
      <use xlink:href="#DejaVuSans-5f" transform="translate(244.140625 0)"/>
      <use xlink:href="#DejaVuSans-69" transform="translate(294.140625 0)"/>
      <use xlink:href="#DejaVuSans-6e" transform="translate(321.923828 0)"/>
      <use xlink:href="#DejaVuSans-70" transform="translate(385.302734 0)"/>
      <use xlink:href="#DejaVuSans-75" transform="translate(448.779297 0)"/>
      <use xlink:href="#DejaVuSans-74" transform="translate(512.158203 0)"/>
     </g>
    </g>
   </g>
  </g>
  <g id="axes_2">
   <g id="patch_8">
    <path d="M 43.78125 286.910437 
L 400.90125 286.910437 
L 400.90125 222.005072 
L 43.78125 222.005072 
z
" style="fill: #ffffff"/>
   </g>
   <g id="matplotlib.axis_3">
    <g id="xtick_6">
     <g id="line2d_24">
      <path d="M 86.206792 286.910437 
L 86.206792 222.005072 
" clip-path="url(#pa0513e1f9e)" style="fill: none; stroke: #b0b0b0; stroke-opacity: 0.3; stroke-width: 0.8; stroke-linecap: square"/>
     </g>
     <g id="line2d_25">
      <g>
       <use xlink:href="#m26ad92a041" x="86.206792" y="286.910437" style="stroke: #000000; stroke-width: 0.8"/>
      </g>
     </g>
     <g id="text_9">
      <!-- −4 -->
      <g transform="translate(78.835699 301.508875) scale(0.1 -0.1)">
       <use xlink:href="#DejaVuSans-2212"/>
       <use xlink:href="#DejaVuSans-34" transform="translate(83.789062 0)"/>
      </g>
     </g>
    </g>
    <g id="xtick_7">
     <g id="line2d_26">
      <path d="M 154.565043 286.910437 
L 154.565043 222.005072 
" clip-path="url(#pa0513e1f9e)" style="fill: none; stroke: #b0b0b0; stroke-opacity: 0.3; stroke-width: 0.8; stroke-linecap: square"/>
     </g>
     <g id="line2d_27">
      <g>
       <use xlink:href="#m26ad92a041" x="154.565043" y="286.910437" style="stroke: #000000; stroke-width: 0.8"/>
      </g>
     </g>
     <g id="text_10">
      <!-- −2 -->
      <g transform="translate(147.193949 301.508875) scale(0.1 -0.1)">
       <use xlink:href="#DejaVuSans-2212"/>
       <use xlink:href="#DejaVuSans-32" transform="translate(83.789062 0)"/>
      </g>
     </g>
    </g>
    <g id="xtick_8">
     <g id="line2d_28">
      <path d="M 222.923293 286.910437 
L 222.923293 222.005072 
" clip-path="url(#pa0513e1f9e)" style="fill: none; stroke: #b0b0b0; stroke-opacity: 0.3; stroke-width: 0.8; stroke-linecap: square"/>
     </g>
     <g id="line2d_29">
      <g>
       <use xlink:href="#m26ad92a041" x="222.923293" y="286.910437" style="stroke: #000000; stroke-width: 0.8"/>
      </g>
     </g>
     <g id="text_11">
      <!-- 0 -->
      <g transform="translate(219.742043 301.508875) scale(0.1 -0.1)">
       <use xlink:href="#DejaVuSans-30"/>
      </g>
     </g>
    </g>
    <g id="xtick_9">
     <g id="line2d_30">
      <path d="M 291.281544 286.910437 
L 291.281544 222.005072 
" clip-path="url(#pa0513e1f9e)" style="fill: none; stroke: #b0b0b0; stroke-opacity: 0.3; stroke-width: 0.8; stroke-linecap: square"/>
     </g>
     <g id="line2d_31">
      <g>
       <use xlink:href="#m26ad92a041" x="291.281544" y="286.910437" style="stroke: #000000; stroke-width: 0.8"/>
      </g>
     </g>
     <g id="text_12">
      <!-- 2 -->
      <g transform="translate(288.100294 301.508875) scale(0.1 -0.1)">
       <use xlink:href="#DejaVuSans-32"/>
      </g>
     </g>
    </g>
    <g id="xtick_10">
     <g id="line2d_32">
      <path d="M 359.639794 286.910437 
L 359.639794 222.005072 
" clip-path="url(#pa0513e1f9e)" style="fill: none; stroke: #b0b0b0; stroke-opacity: 0.3; stroke-width: 0.8; stroke-linecap: square"/>
     </g>
     <g id="line2d_33">
      <g>
       <use xlink:href="#m26ad92a041" x="359.639794" y="286.910437" style="stroke: #000000; stroke-width: 0.8"/>
      </g>
     </g>
     <g id="text_13">
      <!-- 4 -->
      <g transform="translate(356.458544 301.508875) scale(0.1 -0.1)">
       <use xlink:href="#DejaVuSans-34"/>
      </g>
     </g>
    </g>
    <g id="text_14">
     <!-- x -->
     <g transform="translate(219.381875 315.187) scale(0.1 -0.1)">
      <use xlink:href="#DejaVuSans-78"/>
     </g>
    </g>
   </g>
   <g id="matplotlib.axis_4">
    <g id="ytick_6">
     <g id="line2d_34">
      <path d="M 43.78125 286.910437 
L 400.90125 286.910437 
" clip-path="url(#pa0513e1f9e)" style="fill: none; stroke: #b0b0b0; stroke-opacity: 0.3; stroke-width: 0.8; stroke-linecap: square"/>
     </g>
     <g id="line2d_35">
      <g>
       <use xlink:href="#m804092c2f4" x="43.78125" y="286.910437" style="stroke: #000000; stroke-width: 0.8"/>
      </g>
     </g>
     <g id="text_15">
      <!-- 0.0 -->
      <g transform="translate(20.878125 290.709656) scale(0.1 -0.1)">
       <defs>
        <path id="DejaVuSans-2e" d="M 684 794 
L 1344 794 
L 1344 0 
L 684 0 
L 684 794 
z
" transform="scale(0.015625)"/>
       </defs>
       <use xlink:href="#DejaVuSans-30"/>
       <use xlink:href="#DejaVuSans-2e" transform="translate(63.623047 0)"/>
       <use xlink:href="#DejaVuSans-30" transform="translate(95.410156 0)"/>
      </g>
     </g>
    </g>
    <g id="ytick_7">
     <g id="line2d_36">
      <path d="M 43.78125 254.457755 
L 400.90125 254.457755 
" clip-path="url(#pa0513e1f9e)" style="fill: none; stroke: #b0b0b0; stroke-opacity: 0.3; stroke-width: 0.8; stroke-linecap: square"/>
     </g>
     <g id="line2d_37">
      <g>
       <use xlink:href="#m804092c2f4" x="43.78125" y="254.457755" style="stroke: #000000; stroke-width: 0.8"/>
      </g>
     </g>
     <g id="text_16">
      <!-- 0.5 -->
      <g transform="translate(20.878125 258.256973) scale(0.1 -0.1)">
       <defs>
        <path id="DejaVuSans-35" d="M 691 4666 
L 3169 4666 
L 3169 4134 
L 1269 4134 
L 1269 2991 
Q 1406 3038 1543 3061 
Q 1681 3084 1819 3084 
Q 2600 3084 3056 2656 
Q 3513 2228 3513 1497 
Q 3513 744 3044 326 
Q 2575 -91 1722 -91 
Q 1428 -91 1123 -41 
Q 819 9 494 109 
L 494 744 
Q 775 591 1075 516 
Q 1375 441 1709 441 
Q 2250 441 2565 725 
Q 2881 1009 2881 1497 
Q 2881 1984 2565 2268 
Q 2250 2553 1709 2553 
Q 1456 2553 1204 2497 
Q 953 2441 691 2322 
L 691 4666 
z
" transform="scale(0.015625)"/>
       </defs>
       <use xlink:href="#DejaVuSans-30"/>
       <use xlink:href="#DejaVuSans-2e" transform="translate(63.623047 0)"/>
       <use xlink:href="#DejaVuSans-35" transform="translate(95.410156 0)"/>
      </g>
     </g>
    </g>
    <g id="ytick_8">
     <g id="line2d_38">
      <path d="M 43.78125 222.005072 
L 400.90125 222.005072 
" clip-path="url(#pa0513e1f9e)" style="fill: none; stroke: #b0b0b0; stroke-opacity: 0.3; stroke-width: 0.8; stroke-linecap: square"/>
     </g>
     <g id="line2d_39">
      <g>
       <use xlink:href="#m804092c2f4" x="43.78125" y="222.005072" style="stroke: #000000; stroke-width: 0.8"/>
      </g>
     </g>
     <g id="text_17">
      <!-- 1.0 -->
      <g transform="translate(20.878125 225.80429) scale(0.1 -0.1)">
       <defs>
        <path id="DejaVuSans-31" d="M 794 531 
L 1825 531 
L 1825 4091 
L 703 3866 
L 703 4441 
L 1819 4666 
L 2450 4666 
L 2450 531 
L 3481 531 
L 3481 0 
L 794 0 
L 794 531 
z
" transform="scale(0.015625)"/>
       </defs>
       <use xlink:href="#DejaVuSans-31"/>
       <use xlink:href="#DejaVuSans-2e" transform="translate(63.623047 0)"/>
       <use xlink:href="#DejaVuSans-30" transform="translate(95.410156 0)"/>
      </g>
     </g>
    </g>
    <g id="text_18">
     <!-- Ratio -->
     <g transform="translate(14.798438 267.29213) rotate(-90) scale(0.1 -0.1)">
      <defs>
       <path id="DejaVuSans-52" d="M 2841 2188 
Q 3044 2119 3236 1894 
Q 3428 1669 3622 1275 
L 4263 0 
L 3584 0 
L 2988 1197 
Q 2756 1666 2539 1819 
Q 2322 1972 1947 1972 
L 1259 1972 
L 1259 0 
L 628 0 
L 628 4666 
L 2053 4666 
Q 2853 4666 3247 4331 
Q 3641 3997 3641 3322 
Q 3641 2881 3436 2590 
Q 3231 2300 2841 2188 
z
M 1259 4147 
L 1259 2491 
L 2053 2491 
Q 2509 2491 2742 2702 
Q 2975 2913 2975 3322 
Q 2975 3731 2742 3939 
Q 2509 4147 2053 4147 
L 1259 4147 
z
" transform="scale(0.015625)"/>
       <path id="DejaVuSans-61" d="M 2194 1759 
Q 1497 1759 1228 1600 
Q 959 1441 959 1056 
Q 959 750 1161 570 
Q 1363 391 1709 391 
Q 2188 391 2477 730 
Q 2766 1069 2766 1631 
L 2766 1759 
L 2194 1759 
z
M 3341 1997 
L 3341 0 
L 2766 0 
L 2766 531 
Q 2569 213 2275 61 
Q 1981 -91 1556 -91 
Q 1019 -91 701 211 
Q 384 513 384 1019 
Q 384 1609 779 1909 
Q 1175 2209 1959 2209 
L 2766 2209 
L 2766 2266 
Q 2766 2663 2505 2880 
Q 2244 3097 1772 3097 
Q 1472 3097 1187 3025 
Q 903 2953 641 2809 
L 641 3341 
Q 956 3463 1253 3523 
Q 1550 3584 1831 3584 
Q 2591 3584 2966 3190 
Q 3341 2797 3341 1997 
z
" transform="scale(0.015625)"/>
       <path id="DejaVuSans-6f" d="M 1959 3097 
Q 1497 3097 1228 2736 
Q 959 2375 959 1747 
Q 959 1119 1226 758 
Q 1494 397 1959 397 
Q 2419 397 2687 759 
Q 2956 1122 2956 1747 
Q 2956 2369 2687 2733 
Q 2419 3097 1959 3097 
z
M 1959 3584 
Q 2709 3584 3137 3096 
Q 3566 2609 3566 1747 
Q 3566 888 3137 398 
Q 2709 -91 1959 -91 
Q 1206 -91 779 398 
Q 353 888 353 1747 
Q 353 2609 779 3096 
Q 1206 3584 1959 3584 
z
" transform="scale(0.015625)"/>
      </defs>
      <use xlink:href="#DejaVuSans-52"/>
      <use xlink:href="#DejaVuSans-61" transform="translate(67.232422 0)"/>
      <use xlink:href="#DejaVuSans-74" transform="translate(128.511719 0)"/>
      <use xlink:href="#DejaVuSans-69" transform="translate(167.720703 0)"/>
      <use xlink:href="#DejaVuSans-6f" transform="translate(195.503906 0)"/>
     </g>
    </g>
   </g>
   <g id="line2d_40">
    <path d="M 43.78125 222.005072 
L 400.90125 222.005072 
" clip-path="url(#pa0513e1f9e)" style="fill: none; stroke-dasharray: 3.7,1.6; stroke-dashoffset: 0; stroke: #000000; stroke-opacity: 0.8"/>
   </g>
   <g id="patch_9">
    <path d="M 43.78125 286.910437 
L 43.78125 222.005072 
" style="fill: none; stroke: #000000; stroke-width: 0.8; stroke-linejoin: miter; stroke-linecap: square"/>
   </g>
   <g id="patch_10">
    <path d="M 400.90125 286.910437 
L 400.90125 222.005072 
" style="fill: none; stroke: #000000; stroke-width: 0.8; stroke-linejoin: miter; stroke-linecap: square"/>
   </g>
   <g id="patch_11">
    <path d="M 43.78125 286.910437 
L 400.90125 286.910437 
" style="fill: none; stroke: #000000; stroke-width: 0.8; stroke-linejoin: miter; stroke-linecap: square"/>
   </g>
   <g id="patch_12">
    <path d="M 43.78125 222.005072 
L 400.90125 222.005072 
" style="fill: none; stroke: #000000; stroke-width: 0.8; stroke-linejoin: miter; stroke-linecap: square"/>
   </g>
  </g>
 </g>
 <defs>
  <clipPath id="p703a3164bf">
   <rect x="43.78125" y="20.798437" width="357.12" height="194.716098"/>
  </clipPath>
  <clipPath id="pa0513e1f9e">
   <rect x="43.78125" y="222.005072" width="357.12" height="64.905366"/>
  </clipPath>
 </defs>
</svg>
